<?xml version="1.0" encoding="utf-8"?>
<!-- Generator: Adobe Illustrator 25.0.0, SVG Export Plug-In . SVG Version: 6.00 Build 0)  -->
<svg version="1.1" id="Layer_1" xmlns="http://www.w3.org/2000/svg" xmlns:xlink="http://www.w3.org/1999/xlink" x="0px" y="0px"
	 viewBox="0 0 500 500" style="enable-background:new 0 0 500 500;" xml:space="preserve">
<style type="text/css">
	.st0{fill:#F4F4F4;}
	.st1{fill:#E5E5E5;}
	.st2{fill:#DFDFDF;}
	.st3{fill:#F9F9F9;}
	.st4{fill:#FFFFFF;}
	.st5{fill:#EFEFEF;}
	.st6{fill:#4BBDB9;}
	.st7{opacity:0.3;fill:#FFFFFF;enable-background:new    ;}
	.st8{fill:#377066;}
	.st9{opacity:0.4;fill:#FFFFFF;enable-background:new    ;}
	.st10{opacity:0.6;fill:#FFFFFF;enable-background:new    ;}
	.st11{opacity:5.000000e-02;}
	.st12{fill:#EAEAEA;}
	.st13{opacity:5.000000e-02;enable-background:new    ;}
	.st14{opacity:0.3;enable-background:new    ;}
	.st15{opacity:0.15;enable-background:new    ;}
	.st16{fill:#20453F;}
	.st17{fill:#2C5C56;}
	.st18{fill:#383826;}
	.st19{opacity:0.2;enable-background:new    ;}
	.st20{fill:#FFBDA7;}
	.st21{fill:#F0997A;}
	.st22{fill:#455A64;}
	.st23{fill:#4E4F37;}
	.st24{fill:#B16668;}
	.st25{fill:#F28F8F;}
	.st26{opacity:0.1;enable-background:new    ;}
	.st27{fill:#263238;}
	.st28{fill:#37474F;}
	.st29{fill:#FAFAFA;}
	.st30{opacity:0.4;enable-background:new    ;}
	.st31{opacity:0.25;enable-background:new    ;}
	.st32{fill:#9A4A4D;}
</style>
<g id="Floor">
	<ellipse id="Floor_2_" class="st0" cx="251.7" cy="350.3" rx="235.3" ry="124.1"/>
</g>
<g id="Shadows">
	<path id="Shadow_28_" class="st1" d="M400.7,309.6c-16.3,9.4-16.3,24.7,0,34.1c16.3,9.4,42.7,9.4,59,0c16.3-9.4,16.3-24.7,0-34.1
		C443.5,300.2,417,300.2,400.7,309.6z"/>
	<ellipse id="Shadow_27_" class="st2" cx="366.1" cy="381.8" rx="64.6" ry="37.3"/>
	<path id="Shadow_15_" class="st2" d="M57,411.6l6.6,3.8c2.1,1.2,5.5,1.2,7.5,0l145.5-84c2.1-1.2,2.1-3.1,0-4.4l-6.6-3.8
		c-2.1-1.2-5.5-1.2-7.5,0L57,407.2C54.9,408.4,54.9,410.4,57,411.6z"/>
	<path id="Shadow_24_" class="st2" d="M94,419.6l6.6,3.8c2.1,1.2,5.5,1.2,7.5,0L232.3,352c2.1-1.2,2.1-3.1,0-4.4l-6.6-3.8
		c-2.1-1.2-5.5-1.2-7.5,0L94,415.3C91.9,416.5,91.9,418.4,94,419.6z"/>
</g>
<g id="Pictures">
	<g id="Picture_2_">
		<g id="Frame_2_">
			<polygon id="XMLID_1254_" class="st3" points="454.5,111.3 452.7,112.3 417,91.7 418.7,90.6 			"/>
			<g id="XMLID_1240_">
				<g id="XMLID_1245_">
					<g id="XMLID_1249_">
						<polygon id="XMLID_1253_" class="st4" points="418.7,90.6 452.7,110.3 452.7,74.6 418.7,55 						"/>
					</g>
				</g>
			</g>
			<path id="XMLID_1230_" class="st5" d="M413.7,93.6L456,118V72.8l-42.3-24.4L413.7,93.6z M417,54l35.8,20.6l0,37.7L417,91.7
				L417,54z"/>
			<polygon id="XMLID_1229_" class="st2" points="417,91.7 418.7,90.6 418.7,55 417,54 			"/>
			<polygon id="XMLID_1227_" class="st3" points="413.7,48.3 415.4,47.3 457.8,71.7 456,72.8 			"/>
			<polygon id="XMLID_1225_" class="st2" points="457.8,71.7 456,72.8 456,118 457.8,117 			"/>
		</g>
		<g id="Land_1_">
			<polygon class="st5" points="420,89.6 451.4,107.7 451.4,98.6 443.5,80.5 438.7,85 440.4,92.6 429.6,69.5 420,80.5 			"/>
			<path class="st5" d="M439,71.8c1.3,0.7,2.3,2.5,2.3,4c0,1.5-1,2.1-2.3,1.3s-2.3-2.5-2.3-4C436.6,71.6,437.7,71,439,71.8z"/>
		</g>
	</g>
	<g id="Picture_1_">
		<g id="Frame_3_">
			<polygon id="XMLID_1224_" class="st3" points="454.5,168.2 452.7,169.2 417,148.5 418.7,147.5 			"/>
			<g id="XMLID_1220_">
				<g id="XMLID_1221_">
					<g id="XMLID_1222_">
						<polygon id="XMLID_1223_" class="st4" points="418.7,147.5 452.7,167.1 452.7,131.5 418.7,111.9 						"/>
					</g>
				</g>
			</g>
			<path id="XMLID_1217_" class="st5" d="M413.7,150.4l42.3,24.4v-45.3l-42.3-24.4L413.7,150.4z M417,110.9l35.8,20.6l0,37.7
				L417,148.5L417,110.9z"/>
			<polygon id="XMLID_1215_" class="st2" points="417,148.5 418.7,147.5 418.7,111.9 417,110.9 			"/>
			<polygon id="XMLID_1214_" class="st3" points="413.7,105.2 415.4,104.2 457.8,128.6 456,129.6 			"/>
			<polygon id="XMLID_1210_" class="st2" points="457.8,128.6 456,129.6 456,174.9 457.8,173.9 			"/>
		</g>
		<g id="Land_2_">
			<polygon class="st5" points="420,146.4 451.4,164.6 451.4,155.5 443.5,137.4 438.7,141.9 440.4,149.5 429.6,126.3 420,137.4 			
				"/>
			<path class="st5" d="M439,128.6c1.3,0.7,2.3,2.5,2.3,4c0,1.5-1,2.1-2.3,1.3c-1.3-0.7-2.3-2.5-2.3-4
				C436.6,128.5,437.7,127.9,439,128.6z"/>
		</g>
	</g>
</g>
<g id="Plants">
	<g id="Plants_4_">
		<g id="XMLID_779_">
			<g id="XMLID_786_">
				<path id="XMLID_801_" class="st6" d="M66.6,400.7c2.5-13.7,3.6-29-1-50.3c-3.9-18-13.6-33.5-24.9-35.5
					c-4.6-0.8-9.2,1.8-10.4,4.6c-3.2,7.6,2.7,14.6,5.4,18.1c2,2.6,20.9,21.1,22.4,49.2l0.9,16.8c0.1,0.9,0.9,1.3,1.5,0.9L66.6,400.7
					z"/>
				<path id="XMLID_1303_" class="st7" d="M66.6,400.7c2.5-13.7,3.6-29-1-50.3c-3.9-18-13.6-33.5-24.9-35.5
					c-4.6-0.8-9.2,1.8-10.4,4.6c-3.2,7.6,2.7,14.6,5.4,18.1c2,2.6,20.9,21.1,22.4,49.2l0.9,16.8c0.1,0.9,0.9,1.3,1.5,0.9L66.6,400.7
					z"/>
			</g>
			<g id="XMLID_780_">
				<path id="XMLID_785_" class="st4" d="M63.5,394.4c-0.2-0.1-0.4-0.3-0.4-0.6c0.7-35.8-9.8-58.2-25-70.9c-0.2-0.2-0.3-0.6-0.2-0.9
					c0.1-0.3,0.5-0.4,0.7-0.2c15.4,12.8,26.2,35.7,25.5,72c0,0.4-0.2,0.6-0.5,0.6C63.6,394.4,63.6,394.4,63.5,394.4z"/>
			</g>
		</g>
		<g id="XMLID_736_">
			<g id="XMLID_760_">
				<path id="XMLID_778_" class="st6" d="M60.6,404.5c-1.7,1.2-2.6-1.3-3.4-4.1c-2.7-9.1-5.7-13.8-10.7-20.2
					c-6.2-7.8-17-15.1-18.2-21.5c-1.1-5.9,3.6-10.4,12.1-7.3c10.1,3.8,23.8,16,23.3,51.2L60.6,404.5z"/>
			</g>
			<g id="XMLID_741_">
				<path id="XMLID_758_" class="st4" d="M61.3,400c-0.2-0.1-0.3-0.3-0.4-0.5c-4.8-27.2-19.8-40.6-26.8-43.3
					c-0.3-0.1-0.4-0.5-0.4-0.8c0.1-0.3,0.3-0.5,0.6-0.4c7.7,2.9,22.7,16.6,27.6,44.3c0.1,0.4-0.1,0.7-0.4,0.8
					C61.4,400,61.4,400,61.3,400z"/>
			</g>
		</g>
	</g>
</g>
<g id="Table">
	<g id="Table_5_">
		<g id="Table_7_">
			<g>
				<path class="st8" d="M400.5,280.6c0-0.3,0.2-0.6,0.6-0.9c0.8-0.5,2.2-0.5,3,0c0.4,0.2,0.6,0.6,0.6,0.9l-7.6,44.9h0
					c0,0.2-0.2,0.4-0.4,0.6c-0.6,0.3-1.5,0.3-2.1,0c-0.3-0.2-0.4-0.4-0.4-0.6h0L400.5,280.6z"/>
				<path class="st8" d="M459.1,280.6c0-0.3-0.2-0.6-0.6-0.9c-0.8-0.5-2.2-0.5-3,0c-0.4,0.2-0.6,0.6-0.6,0.9l7.6,44.9h0
					c0,0.2,0.2,0.4,0.4,0.6c0.6,0.3,1.5,0.3,2.1,0c0.3-0.2,0.4-0.4,0.4-0.6h0L459.1,280.6z"/>
				<path class="st8" d="M432.1,284c0-0.3-0.2-0.6-0.6-0.9c-0.8-0.5-2.2-0.5-3,0c-0.4,0.2-0.6,0.6-0.6,0.9l0.6,53.4h0
					c0,0.2,0.2,0.4,0.4,0.6c0.6,0.3,1.5,0.3,2.1,0c0.3-0.2,0.4-0.4,0.4-0.6h0L432.1,284z"/>
			</g>
			<g>
				<path class="st6" d="M468.3,265.8L468.3,265.8c0-5.7-3.7-11.3-11.2-15.6c-14.9-8.6-39.2-8.6-54.1,0c-7.5,4.3-11.2,10-11.2,15.6
					h0v3l0,0c0.1,5.6,3.8,11.1,11.2,15.4c14.9,8.6,39.2,8.6,54.1,0c7.4-4.3,11.1-9.8,11.2-15.4l0,0L468.3,265.8L468.3,265.8z"/>
				<path class="st9" d="M468.3,265.8L468.3,265.8c0-5.7-3.7-11.3-11.2-15.6c-14.9-8.6-39.2-8.6-54.1,0c-7.5,4.3-11.2,10-11.2,15.6
					h0v3l0,0c0.1,5.6,3.8,11.1,11.2,15.4c14.9,8.6,39.2,8.6,54.1,0c7.4-4.3,11.1-9.8,11.2-15.4l0,0L468.3,265.8L468.3,265.8z"/>
				<path id="XMLID_1301_" class="st6" d="M403,250.2c-14.9,8.6-14.9,22.6,0,31.2c14.9,8.6,39.2,8.6,54.1,0
					c14.9-8.6,14.9-22.6,0-31.2C442.1,241.6,417.9,241.6,403,250.2z"/>
				<path id="XMLID_1300_" class="st10" d="M403,250.2c-14.9,8.6-14.9,22.6,0,31.2c14.9,8.6,39.2,8.6,54.1,0
					c14.9-8.6,14.9-22.6,0-31.2C442.1,241.6,417.9,241.6,403,250.2z"/>
			</g>
		</g>
		<g id="Pot_11_">
			<g id="XMLID_1296_" class="st11">
				<path id="XMLID_1299_" d="M438.4,258.5c4.8,2.8,4.8,7.2,0,10s-12.5,2.8-17.3,0s-4.8-7.2,0-10
					C425.9,255.8,433.6,255.8,438.4,258.5z"/>
			</g>
			<g id="XMLID_1290_">
				<path id="XMLID_1295_" class="st12" d="M422.2,264.1c-4.1-4.2-6.6-14.8-2.5-18.2h20.6c4,3.4,1.6,13.9-2.5,18.2
					c0,0-0.1,0.1-0.1,0.1c0,0-0.1,0.1-0.1,0.1c-0.1,0.1-0.2,0.2-0.4,0.3c0,0-0.1,0.1-0.1,0.1c-0.1,0.1-0.2,0.2-0.3,0.2
					c-0.2,0.1-0.4,0.2-0.5,0.3c-3.4,2-8.9,2-12.4,0l0,0l0,0c-0.2-0.1-0.4-0.2-0.5-0.3c-0.1-0.1-0.2-0.1-0.3-0.2c0,0-0.1-0.1-0.1-0.1
					c-0.1-0.1-0.2-0.2-0.4-0.3c-0.1-0.1-0.1-0.1-0.2-0.2C422.2,264.2,422.2,264.2,422.2,264.1z"/>
				<path id="XMLID_1294_" class="st3" d="M438.4,244.6c4.7,2.7,4.7,7.1,0,9.8c-4.7,2.7-12.3,2.7-17,0c-4.7-2.7-4.7-7.1,0-9.8
					S433.7,241.9,438.4,244.6z"/>
				<path id="XMLID_1292_" class="st12" d="M435.1,246.5c2.9,1.6,2.9,4.3,0,6c-2.9,1.6-7.5,1.6-10.4,0c-2.9-1.7-2.9-4.3,0-6
					C427.6,244.9,432.3,244.9,435.1,246.5z"/>
				<path id="XMLID_1291_" class="st2" d="M424.8,249.4c2.9-1.6,7.5-1.6,10.4,0c0.8,0.5,1.4,1,1.7,1.6c-0.4,0.6-0.9,1.1-1.7,1.6
					c-2.9,1.6-7.5,1.6-10.4,0c-0.8-0.5-1.4-1-1.7-1.6C423.4,250.4,424,249.8,424.8,249.4z"/>
			</g>
			<g id="XMLID_1279_">
				<path id="XMLID_1289_" class="st6" d="M434.5,251c0,0,2-1.9,3.7-5s2-7.2,1.2-7.7c-0.9-0.5-4.5,3.6-4.5,3.6s0.5-2.5,0.4-5.2
					s-0.8-5.2-1.6-5.7c-0.8-0.5-2.5,2.9-3.3,5.4s-1.2,4.5-1.2,4.5s-0.5-3.4-1.3-5.7c-0.9-2.6-1.7-3.2-2.4-2.9
					c-0.6,0.3-1.1,1.5-1.2,4.9c-0.1,2.4,0.2,4.9,0.2,4.9s-1.3-1.4-2.7-2.8c-1.6-1.5-2.2-1.7-2.7-1.4c-0.4,0.3-0.6,2.6,1.9,7
					c2.1,3.9,4.6,6,4.6,6S428.8,253.1,434.5,251z"/>
			</g>
		</g>
	</g>
</g>
<g id="Device">
	<g id="Mobile_1_">
		<path class="st6" d="M184.6,31.8L62.4,102.3c-3.7,2.1-5.9,5.9-6.1,10.2l0,284.1c0,4.2,2.6,9.1,5.8,10.9s8.7,1.6,12.3-0.5
			l121.8-70.3c3.6-2.1,6.6-7.2,6.6-11.3l0-283.2c0-4.2-2.6-9.1-5.8-10.9C193.7,29.5,188.2,29.7,184.6,31.8z"/>
		<path class="st13" d="M184.6,31.8L62.4,102.3c-3.7,2.1-5.9,5.9-6.1,10.2l0,284.1c0,4.2,2.6,9.1,5.8,10.9s8.7,1.6,12.3-0.5
			l121.8-70.3c3.6-2.1,6.6-7.2,6.6-11.3l0-283.2c0-4.2-2.6-9.1-5.8-10.9C193.7,29.5,188.2,29.7,184.6,31.8z"/>
		<path class="st6" d="M72.7,407.8c-3.5,1.4-8,1.3-10.7-0.3c-3.2-1.8-5.8-6.7-5.8-10.9l0-284.1c0-1.6,0.4-3.4,1.7-5.6l10.6,6
			c-2,2.5-3,5-3,7.6l0,281.4C65.4,407,68.6,409.4,72.7,407.8z"/>
		<path class="st14" d="M72.7,407.8c-3.5,1.4-8,1.3-10.7-0.3c-3.2-1.8-5.8-6.7-5.8-10.9l0-284.1c0-1.6,0.4-3.4,1.7-5.6l10.6,6
			c-2,2.5-3,5-3,7.6l0,281.4C65.4,407,68.6,409.4,72.7,407.8z"/>
		<path class="st6" d="M71.2,110.5c-3.2,1.8-5.8,6.3-5.8,10l0,281.4c0,5.6,4,8,8.9,5.1l121.8-70.3c3.6-2.1,6.6-7.2,6.6-11.3l0-283.2
			c0-4.2-2.9-5.9-6.6-3.8L71.2,110.5z"/>
		<path class="st15" d="M71.2,110.5c-3.2,1.8-5.8,6.3-5.8,10l0,281.4c0,5.6,4,8,8.9,5.1l121.8-70.3c3.6-2.1,6.6-7.2,6.6-11.3
			l0-283.2c0-4.2-2.9-5.9-6.6-3.8L71.2,110.5z"/>
		<path class="st16" d="M75.7,127.5c-3.4,2-6.2,6.8-6.2,10.8l0,252.6c0,4,2.8,5.6,6.2,3.6L190.7,328c3.4-2,6.2-6.8,6.2-10.8l0-252.6
			c0-4-2.8-5.6-6.2-3.6L75.7,127.5z"/>
		<path class="st17" d="M187.4,310.3l0-247.4L75.7,127.5c-3.4,2-6.2,6.8-6.2,10.8l0,247.4l111.8-64.5
			C184.6,319.1,187.4,314.3,187.4,310.3z"/>
		<g>
			<path class="st18" d="M123.7,88.2l19-10.9c1.1-0.7,2-0.2,2,1c0,1.2-0.9,2.7-2,3.4l-19,10.9c-1.1,0.7-2,0.2-2-1
				C121.7,90.4,122.6,88.8,123.7,88.2z"/>
			<g>
				<path class="st18" d="M156.2,69.4c1.1-0.6,1.9-0.1,1.9,1.1s-0.9,2.7-1.9,3.3c-1.1,0.6-1.9,0.1-1.9-1.1
					C154.3,71.5,155.2,70,156.2,69.4z"/>
				<path class="st18" d="M163.9,64.9c1.1-0.6,1.9-0.1,1.9,1.1s-0.9,2.7-1.9,3.3c-1.1,0.6-1.9,0.1-1.9-1.1
					C162,67,162.9,65.6,163.9,64.9z"/>
				<path class="st18" d="M102.5,100.4c1.1-0.6,1.9-0.1,1.9,1.1s-0.9,2.7-1.9,3.3c-1.1,0.6-1.9,0.1-1.9-1.1
					C100.5,102.5,101.4,101,102.5,100.4z"/>
				<path class="st18" d="M110.1,96c1.1-0.6,1.9-0.1,1.9,1.1s-0.9,2.7-1.9,3.3c-1.1,0.6-1.9,0.1-1.9-1.1
					C108.2,98.1,109.1,96.6,110.1,96z"/>
			</g>
		</g>
	</g>
</g>
<g id="Icons">
	<g id="Mail_1_">
		<g id="Box_1_">
			<path id="XMLID_733_" class="st6" d="M355.9,190.3c0-1.4-1-3-2.2-3.7l-1.8-1c-1.2-0.7-3.1-0.7-4.3,0l-26.9,15.5
				c-1.2,0.7-2.2,2.4-2.2,3.7v29.6c0,1.4,1,3,2.2,3.7l1.8,1c1.2,0.7,3.1,0.7,4.3,0l26.9-15.5c1.2-0.7,2.2-2.4,2.2-3.7V190.3z"/>
			<path id="XMLID_730_" class="st19" d="M318.7,234.3c0,1.4,1,3,2.2,3.7l1.8,1c1.1,0.6,2.7,0.7,3.9,0.2c-1,0.4-1.8-0.2-1.8-1.4
				v-29.6c0-0.7,0.2-1.4,0.6-2.1l-6.1-3.5c-0.4,0.7-0.6,1.4-0.6,2.1L318.7,234.3L318.7,234.3z"/>
			<path id="XMLID_727_" class="st7" d="M355.8,189.6c-0.3-0.9-1.1-1.2-2.1-0.6l-26.9,15.5c-0.6,0.3-1.1,0.9-1.5,1.6l-6.1-3.5
				c0.4-0.7,0.9-1.3,1.5-1.6l26.9-15.5c1.2-0.7,3.1-0.7,4.3,0l1.8,1C354.7,187.1,355.6,188.4,355.8,189.6z"/>
		</g>
		<path id="Mail" class="st3" d="M349.2,200.3c-0.2-0.1-0.4-0.1-0.6,0l-17.6,10.1c-0.2,0.1-0.3,0.3-0.3,0.5v16.7
			c0,0.2,0.1,0.4,0.3,0.5c0.1,0.1,0.2,0.1,0.3,0.1s0.2,0,0.3-0.1l17.6-10.1c0.2-0.1,0.3-0.3,0.3-0.5v-16.7
			C349.5,200.6,349.4,200.4,349.2,200.3z M340,215.2l-7.4-4.2l14.9-8.6L340,215.2z M337.4,215l-5.4,10.3v-13.4L337.4,215z
			 M338.4,215.6l1.5,0.9c0.1,0.1,0.2,0.1,0.3,0.1c0.2,0,0.4-0.1,0.5-0.3l1.7-2.9l5.5,4.1l-15.1,8.7L338.4,215.6z M343,212.3l5.4-9.4
			v13.4L343,212.3z"/>
	</g>
	<g id="Chat_1_">
		<g id="Box_3_">
			<path id="XMLID_1213_" class="st6" d="M310.8,216.2c0-1.4-1-3-2.2-3.7l-1.8-1c-1.2-0.7-3.1-0.7-4.3,0L275.8,227
				c-1.2,0.7-2.2,2.4-2.2,3.7v29.6c0,1.4,1,3,2.2,3.7l1.8,1c1.2,0.7,3.1,0.7,4.3,0l26.9-15.5c1.2-0.7,2.2-2.4,2.2-3.7V216.2z"/>
			<path id="XMLID_1212_" class="st19" d="M273.6,260.3c0,1.4,1,3,2.2,3.7l1.8,1c1.1,0.6,2.7,0.7,3.9,0.2c-1,0.4-1.8-0.2-1.8-1.4
				v-29.6c0-0.7,0.2-1.4,0.6-2.1l-6.1-3.5c-0.4,0.7-0.6,1.4-0.6,2.1L273.6,260.3L273.6,260.3z"/>
			<path id="XMLID_1211_" class="st7" d="M310.8,215.6c-0.3-0.9-1.1-1.2-2.1-0.6l-26.9,15.5c-0.6,0.3-1.1,0.9-1.5,1.6l-6.1-3.5
				c0.4-0.7,0.9-1.3,1.5-1.6l26.9-15.5c1.2-0.7,3.1-0.7,4.3,0l1.8,1C309.7,213.1,310.5,214.4,310.8,215.6z"/>
		</g>
		<path id="Chat" class="st3" d="M304.2,232.5l-8.5,4.9c-1,0.6-1.8,2.3-1.8,3.9v6.2c0,1.6,0.8,2.4,1.8,1.8l4.5-2.6l3.1,3.3
			c0.1,0.1,0.2,0.1,0.4,0c0.1,0,0.2-0.1,0.2-0.2c0.2-0.3,0.3-0.7,0.2-1l-0.6-4.1l0.6-0.4c1-0.6,1.8-2.3,1.8-3.9v-6.2
			C306.1,232.7,305.2,231.9,304.2,232.5z M305.1,241.3c0,0.8-0.4,1.6-0.9,1.9l-1.2,0.7c-0.1,0.1-0.3,0.3-0.4,0.5
			c-0.1,0.2-0.1,0.5-0.1,0.7l0.4,2.2l-2.1-1.9c-0.1-0.1-0.2-0.1-0.4,0l-4.7,2.7c-0.5,0.3-0.9-0.1-0.9-0.9v-6.5
			c0-0.8,0.4-1.6,0.9-1.9l8.5-4.9c0.5-0.3,0.9,0.1,0.9,0.9L305.1,241.3L305.1,241.3z M292.8,243.2l-0.2,0.1
			c-0.1,0.1-0.2,0.2-0.3,0.3l-4.1,7l0.2-4c0-0.2,0-0.5-0.1-0.6c-0.1-0.1-0.2-0.2-0.4-0.1l-1.2,0.7c-0.6,0.3-1.1-0.1-1.1-1.1v-9.3
			c0-0.9,0.5-2,1.1-2.3l13.6-7.9c0.6-0.3,1.1,0.1,1.1,1.1v5.1c0,0.4,0.2,0.6,0.5,0.5c0.3-0.2,0.5-0.6,0.5-1v-5.1
			c0-1.7-0.9-2.6-2.1-2l-13.6,7.9c-1.1,0.7-2.1,2.6-2.1,4.4v9.3c0,1.7,0.9,2.6,2.1,2l0.5-0.3l-0.1,4.6c-0.1,0.3,0,0.6,0.2,0.7
			c0.1,0,0.2,0,0.3,0c0.1-0.1,0.2-0.2,0.3-0.3l4.8-8.1l0,0c0.3-0.2,0.5-0.6,0.5-1C293.3,243.2,293.1,243,292.8,243.2z"/>
	</g>
	<g id="Phone_1_">
		<g id="Box_5_">
			<path id="XMLID_703_" class="st6" d="M265.7,242.3c0-1.4-1-3-2.2-3.7l-1.8-1c-1.2-0.7-3.1-0.7-4.3,0l-26.9,15.5
				c-1.2,0.7-2.2,2.4-2.2,3.7v29.6c0,1.4,1,3,2.2,3.7l1.8,1c1.2,0.7,3.1,0.7,4.3,0l26.9-15.5c1.2-0.7,2.2-2.4,2.2-3.7L265.7,242.3z"
				/>
			<path id="XMLID_702_" class="st19" d="M228.5,286.4c0,1.4,1,3,2.2,3.7l1.8,1c1.1,0.6,2.7,0.7,3.9,0.2c-1,0.4-1.8-0.2-1.8-1.4
				v-29.6c0-0.7,0.2-1.4,0.6-2.1l-6.1-3.5c-0.4,0.7-0.6,1.4-0.6,2.1L228.5,286.4L228.5,286.4z"/>
			<path id="XMLID_701_" class="st7" d="M265.6,241.7c-0.3-0.9-1.1-1.2-2.1-0.6l-26.9,15.5c-0.6,0.3-1.1,0.9-1.5,1.6l-6.1-3.5
				c0.4-0.7,0.9-1.3,1.5-1.6l26.9-15.5c1.2-0.7,3.1-0.7,4.3,0l1.8,1C264.6,239.1,265.4,240.4,265.6,241.7z"/>
		</g>
		<g id="Phone">
			<path class="st3" d="M254.1,276.9c0,0-0.1,0-0.1,0c-6-0.5-10.2-4.6-12.5-12c-0.8-2.6,0-5.8,2.1-8.1c0.5-0.5,1-0.8,1.5-0.8
				c0,0,0,0,0,0c1.3,0,3.5,3.7,3.6,5.1c0,1.2-0.5,2.1-1,2.9c-0.7,1.1-0.8,2-0.4,3.1c0.7,2.1,1.9,3.2,3.6,3.4c0.4,0,0.8-0.4,1.1-1.3
				c0.5-1.5,1.2-2.4,1.9-2.7c0.5-0.2,1.1-0.2,1.7,0.1l0.3,0.1c0.5,0.2,0.9,0.5,1.4,0.8l0,0c0.1,0.1,0.2,0.1,0.2,0.1
				c0.9,0.5,1.6,1.1,1.2,3.2c-0.4,2.2-2,5.1-3.5,6c-0.1,0-0.1,0.1-0.2,0.1c0,0-0.1,0-0.1,0C254.6,276.9,254.3,276.9,254.1,276.9z
				 M245,257.1c-0.1,0-0.3,0.2-0.6,0.4c-1.8,2-2.6,4.8-1.9,7c2.2,7.1,6,10.8,11.5,11.2c0.1,0,0.3,0,0.5-0.1c0,0,0.1,0,0.1,0
				c1.1-0.7,2.5-3.2,2.9-5.2c0.3-1.4-0.1-1.6-0.6-2c-0.1-0.1-0.2-0.1-0.3-0.2l0,0c-0.4-0.3-0.8-0.5-1.3-0.7l-0.3-0.1
				c-0.4-0.2-0.6-0.1-0.8-0.1c-0.3,0.1-0.8,0.6-1.3,2c-0.6,1.8-1.6,2.1-2.3,2c-2.1-0.3-3.7-1.6-4.5-4.1c-0.5-1.4-0.3-2.7,0.5-4
				c0.4-0.7,0.8-1.4,0.8-2.2C247.4,260,245.5,257.3,245,257.1z"/>
		</g>
	</g>
</g>
<g id="Window_1_">
	<g id="Window">
		<g>
			<path class="st2" d="M346.4,23.6L230.7,90.3c-1.4,0.8-2.6,2.8-2.6,4.5v133.8c0,1.7,1.2,3.7,2.6,4.5l1.6,0.9
				c1.4,0.8,3.8,0.8,5.2,0l115.7-66.8c1.4-0.8,2.6-2.9,2.6-4.5V29c0-1.7-1.2-3.7-2.6-4.5l-1.6-0.9C350.2,22.8,347.9,22.8,346.4,23.6
				z"/>
			<path id="XMLID_681_" class="st3" d="M355.9,162.9c0,2.3-1.6,3.8-3.6,4.9l-113.7,65.7c-2,1.1-3.6,0.2-3.6-2.1V99.9l0,0
				c0-2.6,1.4-4.9,3.6-6.2L352.3,28c1.6-0.9,3.6,0.2,3.6,2.1l0,0L355.9,162.9L355.9,162.9z"/>
			<path id="XMLID_657_" class="st2" d="M353.5,28.6L353.5,28.6c0.7,0,1.4,0.5,1.4,1.4v132.9c0,1.6-1,2.8-3.1,4L238,232.6
				c-0.4,0.2-0.8,0.4-1.1,0.4c-0.9,0-1-1-1-1.6V99.9c0-2.2,1.2-4.2,3.1-5.3l113.8-65.7C353,28.7,353.2,28.6,353.5,28.6 M353.5,27.6
				c-0.4,0-0.8,0.1-1.2,0.3L238.5,93.7c-2.2,1.3-3.6,3.6-3.6,6.2v131.5c0,1.6,0.8,2.6,2,2.6c0.5,0,1-0.2,1.6-0.5l113.7-65.7
				c2-1.1,3.6-2.6,3.6-4.9V30C355.9,28.6,354.7,27.6,353.5,27.6L353.5,27.6z"/>
			<path class="st5" d="M355.9,29v1c0-1.8-2-3-3.6-2.1L238.5,93.7c-1.1,0.6-2,1.5-2.6,2.6c0,0,0,0.1,0,0.1l-7-4.1
				c0.5-0.8,1.1-1.6,1.9-2l115.7-66.7c1.4-0.8,3.8-0.8,5.2,0l1.6,0.9C354.7,25.3,355.9,27.4,355.9,29z"/>
		</g>
		<g>
			<g>
				<path class="st8" d="M249.4,124c-0.1,0-0.1,0-0.2,0c0,0-0.1-0.1-0.1-0.1l-1.7-2.9v3.9c0,0.1,0,0.1-0.1,0.2
					c0,0.1-0.1,0.1-0.1,0.1l-0.5,0.3c0,0-0.1,0-0.1,0c0,0,0-0.1,0-0.2v-6.1c0-0.1,0-0.1,0-0.2c0-0.1,0.1-0.1,0.1-0.1l0.4-0.2
					c0.1,0,0.1,0,0.2,0c0,0,0.1,0.1,0.1,0.1l1.7,2.9v-3.9c0-0.1,0-0.1,0.1-0.2c0-0.1,0.1-0.1,0.1-0.1l0.5-0.3c0,0,0.1,0,0.1,0
					c0,0,0,0.1,0,0.2v6.1c0,0.1,0,0.1,0,0.2c0,0.1-0.1,0.1-0.1,0.1L249.4,124z"/>
				<path class="st8" d="M250.9,119.4c0-0.1,0.1-0.3,0.1-0.5c0.1-0.2,0.1-0.4,0.3-0.6c0.1-0.2,0.2-0.4,0.4-0.6
					c0.2-0.2,0.3-0.3,0.6-0.4c0.2-0.1,0.4-0.2,0.6-0.2c0.2,0,0.3,0,0.4,0.1s0.2,0.2,0.3,0.5c0.1,0.2,0.1,0.5,0.1,0.8v2.8
					c0,0.1,0,0.1,0,0.2c0,0.1-0.1,0.1-0.1,0.1l-0.5,0.3c0,0-0.1,0-0.1,0c0,0,0-0.1,0-0.2v-0.3c-0.1,0.2-0.2,0.5-0.4,0.7
					c-0.2,0.2-0.4,0.4-0.6,0.5c-0.2,0.1-0.3,0.2-0.5,0.2c-0.1,0-0.3,0-0.4-0.1c-0.1-0.1-0.2-0.2-0.2-0.3s-0.1-0.3-0.1-0.5
					c0-0.4,0.1-0.8,0.3-1.2s0.5-0.7,0.8-1l1-0.8c0-0.3-0.1-0.4-0.2-0.5c-0.1,0-0.2,0-0.4,0.1c-0.1,0.1-0.2,0.1-0.2,0.2
					c-0.1,0.1-0.1,0.2-0.2,0.3c0,0.1-0.1,0.1-0.1,0.2c0,0-0.1,0.1-0.1,0.1l-0.6,0.3c0,0-0.1,0-0.1,0
					C250.9,119.5,250.9,119.5,250.9,119.4z M251.9,121.5c0.1-0.1,0.3-0.2,0.4-0.3c0.1-0.1,0.2-0.3,0.3-0.4c0.1-0.1,0.1-0.3,0.2-0.4
					c0-0.1,0.1-0.3,0.1-0.4v-0.1l-0.8,0.7c-0.2,0.1-0.3,0.3-0.4,0.4c-0.1,0.1-0.1,0.3-0.1,0.4c0,0.1,0,0.2,0.1,0.2
					C251.7,121.6,251.8,121.5,251.9,121.5z"/>
				<path class="st8" d="M255.2,116.2c0.1-0.2,0.2-0.4,0.4-0.6c0.1-0.2,0.3-0.3,0.4-0.4c0.3-0.1,0.5-0.2,0.6-0.1s0.3,0.2,0.4,0.4
					c0.1-0.2,0.1-0.3,0.2-0.5c0.1-0.1,0.2-0.3,0.2-0.4c0.1-0.1,0.2-0.2,0.3-0.3c0.1-0.1,0.2-0.2,0.3-0.2c0.2-0.1,0.4-0.2,0.6-0.2
					c0.2,0,0.3,0.1,0.4,0.3s0.2,0.3,0.2,0.6c0,0.2,0.1,0.5,0.1,0.8v2.5c0,0.1,0,0.1,0,0.2c0,0.1-0.1,0.1-0.1,0.1l-0.5,0.3
					c0,0-0.1,0-0.1,0c0,0,0-0.1,0-0.2V116c0-0.4-0.1-0.7-0.2-0.8c-0.1-0.1-0.3-0.1-0.5,0c-0.2,0.1-0.3,0.3-0.4,0.5
					c-0.1,0.2-0.2,0.6-0.2,1v2.5c0,0.1,0,0.1,0,0.2c0,0.1-0.1,0.1-0.1,0.1l-0.5,0.3c0,0-0.1,0-0.1,0c0,0,0-0.1,0-0.2v-2.5
					c0-0.4-0.1-0.7-0.2-0.8c-0.1-0.1-0.3-0.1-0.4,0c-0.2,0.1-0.3,0.3-0.4,0.5c-0.1,0.2-0.2,0.6-0.2,1v2.5c0,0.1,0,0.1,0,0.2
					c0,0.1-0.1,0.1-0.1,0.1l-0.5,0.3c0,0-0.1,0-0.1,0c0,0,0-0.1,0-0.2v-4.4c0-0.1,0-0.1,0-0.2c0-0.1,0.1-0.1,0.1-0.1l0.5-0.3
					c0,0,0.1,0,0.1,0c0,0,0,0.1,0,0.2L255.2,116.2L255.2,116.2z"/>
				<path class="st8" d="M259.9,115.4c0-0.4,0-0.7,0.1-1.1c0.1-0.4,0.2-0.7,0.3-1c0.1-0.3,0.3-0.6,0.5-0.8c0.2-0.2,0.4-0.4,0.6-0.6
					c0.2-0.1,0.4-0.2,0.6-0.2c0.2,0,0.3,0.1,0.5,0.2c0.1,0.1,0.2,0.3,0.3,0.6c0.1,0.3,0.1,0.5,0.1,0.9v0.4c0,0.1,0,0.1,0,0.2
					c0,0.1-0.1,0.1-0.1,0.1l-2.1,1.2c0,0.1,0,0.3,0.1,0.3c0,0.1,0.1,0.2,0.2,0.2c0.1,0,0.1,0.1,0.2,0c0.1,0,0.2,0,0.3-0.1
					c0.1-0.1,0.2-0.2,0.3-0.2c0.1-0.1,0.1-0.2,0.2-0.3c0-0.1,0.1-0.1,0.1-0.2c0,0,0.1-0.1,0.1-0.1l0.5-0.3c0,0,0.1,0,0.1,0
					c0,0,0.1,0.1,0,0.2c0,0.1,0,0.2-0.1,0.4c-0.1,0.2-0.1,0.4-0.3,0.6c-0.1,0.2-0.3,0.4-0.4,0.6c-0.2,0.2-0.4,0.4-0.6,0.5
					c-0.2,0.1-0.4,0.2-0.6,0.2s-0.3-0.1-0.5-0.3c-0.1-0.2-0.2-0.4-0.3-0.6C259.9,116.1,259.9,115.8,259.9,115.4z M261.4,113.2
					c-0.1,0.1-0.2,0.2-0.3,0.3c-0.1,0.1-0.2,0.2-0.2,0.3c-0.1,0.1-0.1,0.2-0.1,0.4c0,0.1,0,0.2-0.1,0.3l1.4-0.8c0-0.1,0-0.2,0-0.3
					c0-0.1-0.1-0.2-0.1-0.2c-0.1-0.1-0.1-0.1-0.2-0.1C261.6,113,261.5,113.1,261.4,113.2z"/>
			</g>
			<g>
				<path class="st6" d="M268.9,91c-0.2,0.1-0.4,0.3-0.6,0.5c-0.2,0.2-0.3,0.4-0.4,0.6c-0.1,0.2-0.2,0.4-0.2,0.7
					c0,0.2-0.1,0.5-0.1,0.7c0,0.1,0,0.3,0,0.6c0,0.2,0,0.5,0,0.7c0,0.2,0,0.5,0,0.7c0,0.2,0,0.4,0,0.5c0,0.2,0,0.4,0.1,0.6
					c0,0.2,0.1,0.3,0.2,0.4c0.1,0.1,0.2,0.2,0.4,0.2c0.2,0,0.3-0.1,0.6-0.2c0.2-0.1,0.3-0.2,0.5-0.4c0.2-0.1,0.3-0.3,0.4-0.5
					c0.1-0.2,0.2-0.4,0.3-0.7c0.1-0.3,0.1-0.5,0.1-0.8l-0.8,0.5c-0.1,0-0.1,0-0.2,0c-0.1-0.1-0.1-0.1-0.1-0.2v-1.6
					c0-0.1,0-0.2,0.1-0.3c0.1-0.1,0.1-0.2,0.2-0.2l2.4-1.4c0.1,0,0.1,0,0.2,0c0.1,0.1,0.1,0.1,0.1,0.2v1.9c0,0.6-0.1,1.3-0.2,1.9
					c-0.2,0.6-0.4,1.2-0.6,1.7c-0.3,0.5-0.6,1-1,1.4c-0.4,0.4-0.8,0.7-1.2,1c-0.5,0.3-0.9,0.4-1.3,0.4c-0.4,0-0.7-0.1-0.9-0.3
					c-0.3-0.2-0.5-0.5-0.6-1c-0.1-0.4-0.2-0.9-0.2-1.4c0-0.4,0-0.8,0-1.3c0-0.5,0-0.9,0-1.4c0-0.6,0.1-1.1,0.2-1.7
					c0.1-0.6,0.3-1.1,0.6-1.7c0.3-0.5,0.6-1,0.9-1.4c0.4-0.4,0.8-0.8,1.3-1.1c0.5-0.3,0.9-0.4,1.2-0.4c0.4,0,0.7,0.1,0.9,0.2
					c0.3,0.2,0.5,0.4,0.6,0.7c0.1,0.3,0.2,0.6,0.2,0.9c0,0.1,0,0.2-0.1,0.3c0,0.1-0.1,0.2-0.2,0.2l-1.3,0.8c-0.1,0.1-0.2,0.1-0.2,0
					c-0.1-0.1-0.1-0.1-0.2-0.2c-0.1-0.1-0.2-0.2-0.4-0.3C269.5,90.8,269.3,90.9,268.9,91z"/>
				<path class="st6" d="M274.5,93.1c0,0.2,0,0.4,0.1,0.5c0.1,0.1,0.1,0.2,0.2,0.2c0.1,0,0.2,0.1,0.3,0c0.1,0,0.2-0.1,0.3-0.1
					c0.2-0.1,0.4-0.2,0.5-0.4c0.1-0.1,0.2-0.3,0.3-0.4c0.1-0.1,0.1-0.2,0.2-0.3c0,0,0.1-0.1,0.2-0.1l1.3-0.7c0.1-0.1,0.2,0,0.2,0.2
					c0,0.1,0,0.3-0.1,0.6c-0.1,0.3-0.3,0.6-0.5,1c-0.2,0.4-0.5,0.8-0.8,1.1c-0.3,0.4-0.7,0.7-1.2,1c-0.4,0.2-0.8,0.4-1.1,0.4
					c-0.3,0-0.6-0.1-0.8-0.3c-0.2-0.2-0.4-0.6-0.5-1c-0.1-0.4-0.2-1-0.2-1.6c0-0.6,0.1-1.2,0.2-1.7c0.1-0.6,0.3-1.1,0.5-1.6
					c0.2-0.5,0.5-0.9,0.8-1.3c0.3-0.4,0.7-0.7,1.1-1c0.5-0.3,0.9-0.4,1.2-0.3s0.6,0.2,0.8,0.5c0.2,0.3,0.4,0.6,0.5,1.1
					c0.1,0.4,0.1,0.9,0.1,1.4v0.4c0,0.1,0,0.2-0.1,0.3s-0.1,0.2-0.2,0.2L274.5,93.1z M275.4,89.7c-0.3,0.2-0.5,0.4-0.6,0.7
					c-0.1,0.3-0.2,0.7-0.3,1l1.8-1c0-0.3-0.1-0.5-0.3-0.7C275.9,89.5,275.7,89.5,275.4,89.7z"/>
				<path class="st6" d="M281.3,89.2c0,0.2,0,0.4,0.1,0.5c0.1,0.1,0.2,0.1,0.3,0l0.8-0.5c0.1,0,0.1,0,0.2,0c0.1,0.1,0.1,0.1,0.1,0.2
					V91c0,0.1,0,0.2-0.1,0.3c-0.1,0.1-0.1,0.2-0.2,0.2l-0.9,0.5c-0.3,0.2-0.6,0.3-0.8,0.3c-0.3,0-0.5-0.1-0.6-0.2
					c-0.2-0.2-0.3-0.4-0.4-0.7c-0.1-0.3-0.1-0.7-0.1-1.2v-2.5l-0.7,0.4c-0.1,0-0.1,0-0.2,0c-0.1-0.1-0.1-0.1-0.1-0.2v-1.5
					c0-0.1,0-0.2,0.1-0.3c0.1-0.1,0.1-0.2,0.2-0.2l0.7-0.4v-2.5c0-0.1,0-0.2,0.1-0.3c0.1-0.1,0.1-0.2,0.2-0.2l1.2-0.7
					c0.1,0,0.1,0,0.2,0c0.1,0,0.1,0.1,0.1,0.2v2.5l1.1-0.6c0.1,0,0.1,0,0.2,0c0.1,0.1,0.1,0.1,0.1,0.2v1.5c0,0.1,0,0.2-0.1,0.3
					c-0.1,0.1-0.1,0.2-0.2,0.2l-1.1,0.6L281.3,89.2L281.3,89.2z"/>
				<path class="st6" d="M287.5,79.6c0,0.1,0,0.2-0.1,0.3c-0.1,0.1-0.1,0.2-0.2,0.2l-1.2,0.7c-0.1,0-0.1,0-0.2,0
					c-0.1-0.1-0.1-0.1-0.1-0.2v-1.5c0-0.1,0-0.2,0.1-0.3c0.1-0.1,0.1-0.2,0.2-0.2l1.2-0.7c0.1,0,0.1,0,0.2,0
					c0.1,0.1,0.1,0.1,0.1,0.2V79.6z M287.5,88.3c0,0.1,0,0.2-0.1,0.3c-0.1,0.1-0.1,0.2-0.2,0.2l-1.2,0.7c-0.1,0-0.1,0-0.2,0
					c-0.1-0.1-0.1-0.1-0.1-0.2v-7.1c0-0.1,0-0.2,0.1-0.3c0.1-0.1,0.1-0.2,0.2-0.2l1.2-0.7c0.1,0,0.1,0,0.2,0
					c0.1,0.1,0.1,0.1,0.1,0.2V88.3z"/>
				<path class="st6" d="M293.8,84.6c0,0.1,0,0.2-0.1,0.3c-0.1,0.1-0.1,0.2-0.2,0.2l-1.2,0.7c-0.1,0-0.1,0-0.2,0
					c-0.1-0.1-0.1-0.1-0.1-0.2v-3.8c0-0.4-0.1-0.7-0.2-0.9c-0.1-0.2-0.4-0.2-0.6,0c-0.3,0.2-0.5,0.4-0.6,0.8
					c-0.1,0.3-0.2,0.7-0.2,1.2v3.8c0,0.1,0,0.2-0.1,0.3c-0.1,0.1-0.1,0.2-0.2,0.2l-1.2,0.7c-0.1,0-0.1,0-0.2,0
					c-0.1-0.1-0.1-0.1-0.1-0.2v-7.1c0-0.1,0-0.2,0.1-0.3c0.1-0.1,0.1-0.2,0.2-0.2l1.2-0.7c0.1,0,0.1,0,0.2,0
					c0.1,0.1,0.1,0.1,0.1,0.2v0.3c0.1-0.1,0.1-0.3,0.2-0.4c0.1-0.2,0.2-0.3,0.3-0.5c0.1-0.1,0.2-0.3,0.4-0.4
					c0.1-0.1,0.3-0.3,0.5-0.4c0.3-0.2,0.6-0.3,0.9-0.3c0.3,0,0.5,0.1,0.7,0.2c0.2,0.2,0.3,0.4,0.4,0.8c0.1,0.4,0.2,0.9,0.2,1.5
					L293.8,84.6L293.8,84.6z"/>
				<path class="st6" d="M299.2,78.8c0,0.2,0,0.4,0.1,0.5c0.1,0.1,0.2,0.1,0.3,0l0.8-0.5c0.1,0,0.1,0,0.2,0c0.1,0.1,0.1,0.1,0.1,0.2
					v1.5c0,0.1,0,0.2-0.1,0.3c-0.1,0.1-0.1,0.2-0.2,0.2l-0.9,0.5c-0.3,0.2-0.6,0.3-0.8,0.3c-0.3,0-0.5-0.1-0.6-0.2
					c-0.2-0.2-0.3-0.4-0.4-0.7c-0.1-0.3-0.1-0.7-0.1-1.2v-2.5l-0.7,0.4c-0.1,0-0.1,0-0.2,0c-0.1-0.1-0.1-0.1-0.1-0.2V76
					c0-0.1,0-0.2,0.1-0.3c0.1-0.1,0.1-0.2,0.2-0.2l0.7-0.4v-2.5c0-0.1,0-0.2,0.1-0.3s0.1-0.2,0.2-0.2l1.2-0.7c0.1,0,0.1,0,0.2,0
					c0.1,0,0.1,0.1,0.1,0.2V74l1.1-0.6c0.1,0,0.1,0,0.2,0c0.1,0.1,0.1,0.1,0.1,0.2v1.5c0,0.1,0,0.2-0.1,0.3
					c-0.1,0.1-0.1,0.2-0.2,0.2l-1.1,0.6L299.2,78.8L299.2,78.8z"/>
				<path class="st6" d="M306.6,73.1c0,0.1,0,0.3,0,0.6c0,0.2,0,0.4,0,0.6c0,0.5-0.1,1-0.2,1.5c-0.1,0.5-0.3,1-0.5,1.4
					c-0.2,0.5-0.5,0.9-0.8,1.2c-0.3,0.4-0.7,0.7-1.1,0.9c-0.4,0.2-0.8,0.3-1.1,0.4c-0.3,0-0.6-0.1-0.8-0.3c-0.2-0.2-0.4-0.5-0.5-0.8
					c-0.1-0.3-0.2-0.8-0.2-1.2c0-0.1,0-0.3,0-0.6c0-0.2,0-0.4,0-0.6c0-0.5,0.1-1,0.2-1.5c0.1-0.5,0.3-1,0.5-1.4
					c0.2-0.5,0.5-0.9,0.8-1.2c0.3-0.4,0.7-0.7,1.1-0.9c0.4-0.2,0.8-0.3,1.1-0.3c0.3,0,0.6,0.1,0.8,0.3c0.2,0.2,0.4,0.5,0.5,0.8
					C306.5,72.2,306.6,72.6,306.6,73.1z M303,76.3c0,0.4,0.1,0.6,0.3,0.7c0.2,0.1,0.4,0.1,0.6,0c0.3-0.2,0.5-0.4,0.6-0.7
					c0.2-0.3,0.3-0.7,0.3-1.1c0-0.2,0-0.3,0-0.5c0-0.2,0-0.4,0-0.5c0-0.4-0.1-0.6-0.3-0.7c-0.2-0.1-0.4-0.1-0.6,0
					c-0.3,0.2-0.5,0.4-0.6,0.7c-0.2,0.3-0.3,0.7-0.3,1.1c0,0.2,0,0.3,0,0.5C303,76,303,76.1,303,76.3z"/>
				<path class="st6" d="M307.5,69.6c0-0.1,0-0.2,0.1-0.3c0.1-0.1,0.1-0.2,0.2-0.2l1.2-0.7c0.1,0,0.1,0,0.2,0s0.1,0.1,0.1,0.2v3.8
					c0,0.4,0.1,0.7,0.2,0.9c0.1,0.2,0.3,0.2,0.6,0c0.3-0.2,0.5-0.4,0.6-0.7c0.1-0.3,0.2-0.7,0.2-1.2v-3.8c0-0.1,0-0.2,0.1-0.3
					c0.1-0.1,0.1-0.2,0.2-0.2l1.2-0.7c0.1,0,0.1,0,0.2,0c0.1,0.1,0.1,0.1,0.1,0.2v7.1c0,0.1,0,0.2-0.1,0.3c-0.1,0.1-0.1,0.2-0.2,0.2
					l-1.1,0.7c-0.1,0-0.1,0-0.2,0c-0.1-0.1-0.1-0.1-0.1-0.2v-0.3c-0.1,0.1-0.1,0.3-0.2,0.4c-0.1,0.1-0.2,0.3-0.3,0.4
					s-0.2,0.3-0.4,0.4s-0.3,0.3-0.5,0.4c-0.6,0.4-1.1,0.4-1.5,0c-0.4-0.3-0.6-1.1-0.6-2.3L307.5,69.6L307.5,69.6z"/>
				<path class="st6" d="M315.3,68.1c0,0.2,0,0.3,0,0.5c0,0.2,0,0.4,0,0.5c0,0.4,0.1,0.6,0.3,0.7c0.2,0.1,0.4,0.1,0.6,0
					c0.2-0.1,0.4-0.3,0.5-0.4c0.1-0.2,0.2-0.3,0.3-0.6c0-0.1,0.1-0.2,0.1-0.3s0.1-0.1,0.2-0.2l1.3-0.7c0.1,0,0.1,0,0.2,0
					c0.1,0,0.1,0.1,0.1,0.2c0,0.2,0,0.4-0.1,0.8c-0.1,0.4-0.2,0.7-0.4,1.2c-0.2,0.4-0.5,0.8-0.8,1.3c-0.3,0.4-0.8,0.8-1.3,1.1
					c-0.4,0.2-0.7,0.3-1,0.4c-0.3,0-0.6,0-0.8-0.2c-0.2-0.2-0.4-0.4-0.6-0.8c-0.1-0.3-0.2-0.8-0.2-1.3c0-0.1,0-0.3,0-0.6
					c0-0.3,0-0.5,0-0.6c0-0.5,0.1-1.1,0.2-1.6c0.1-0.5,0.3-1,0.6-1.4c0.2-0.4,0.5-0.8,0.8-1.2c0.3-0.3,0.7-0.6,1-0.8
					c0.5-0.3,0.9-0.4,1.3-0.4c0.3,0,0.6,0.1,0.8,0.3c0.2,0.2,0.3,0.4,0.4,0.7c0.1,0.3,0.1,0.5,0.1,0.6c0,0.1,0,0.2-0.1,0.3
					c-0.1,0.1-0.1,0.2-0.2,0.2l-1.3,0.7c-0.1,0-0.1,0-0.2,0c0,0-0.1-0.1-0.1-0.1c-0.1-0.1-0.2-0.2-0.3-0.2c-0.1,0-0.3,0-0.5,0.1
					c-0.3,0.2-0.5,0.4-0.6,0.7C315.5,67.4,315.4,67.7,315.3,68.1z"/>
				<path class="st6" d="M325,66.6c0,0.1,0,0.2-0.1,0.3c-0.1,0.1-0.1,0.2-0.2,0.2l-1.2,0.7c-0.1,0-0.1,0-0.2,0
					c-0.1-0.1-0.1-0.1-0.1-0.2v-3.8c0-0.4-0.1-0.7-0.2-0.9c-0.1-0.2-0.4-0.2-0.6,0c-0.3,0.2-0.5,0.4-0.6,0.8
					c-0.1,0.3-0.2,0.7-0.2,1.2v3.8c0,0.1,0,0.2-0.1,0.3c-0.1,0.1-0.1,0.2-0.2,0.2l-1.2,0.7c-0.1,0-0.1,0-0.2,0
					c-0.1,0-0.1-0.1-0.1-0.2v-9.9c0-0.1,0-0.2,0.1-0.3c0.1-0.1,0.1-0.2,0.2-0.2l1.2-0.7c0.1,0,0.1,0,0.2,0c0.1,0,0.1,0.1,0.1,0.2
					v3.2c0.1-0.3,0.3-0.6,0.5-0.9c0.2-0.3,0.5-0.6,0.8-0.8c0.3-0.2,0.6-0.3,0.9-0.3c0.3,0,0.5,0.1,0.7,0.2s0.3,0.4,0.4,0.8
					c0.1,0.4,0.2,0.9,0.2,1.5L325,66.6L325,66.6z"/>
			</g>
			<polygon class="st2" points="246.1,130.3 346,72.6 346,81.5 246.1,139.2 			"/>
			<g>
				<path class="st8" d="M249.5,149.4c0,0,0.1,0,0.1,0c0,0,0,0.1,0,0.2v0.7c0,0.1,0,0.1,0,0.2c0,0.1-0.1,0.1-0.1,0.1l-2.7,1.6
					c0,0-0.1,0-0.1,0c0,0,0-0.1,0-0.2v-6.1c0-0.1,0-0.1,0-0.2c0-0.1,0.1-0.1,0.1-0.1l2.6-1.5c0,0,0.1,0,0.1,0c0,0,0,0.1,0,0.2v0.7
					c0,0.1,0,0.1,0,0.2c0,0.1-0.1,0.1-0.1,0.1l-2,1.1v1.5l1.9-1.1c0,0,0.1,0,0.1,0c0,0,0,0.1,0,0.2v0.7c0,0.1,0,0.1,0,0.2
					c0,0.1-0.1,0.1-0.1,0.1l-1.9,1.1v1.6L249.5,149.4z"/>
				<path class="st8" d="M251.1,145.1c0.1-0.2,0.2-0.4,0.4-0.6c0.1-0.2,0.3-0.3,0.4-0.4c0.3-0.1,0.5-0.2,0.6-0.1s0.3,0.2,0.4,0.4
					c0.1-0.2,0.1-0.3,0.2-0.5c0.1-0.1,0.2-0.3,0.2-0.4c0.1-0.1,0.2-0.2,0.3-0.3c0.1-0.1,0.2-0.2,0.3-0.2c0.2-0.1,0.4-0.2,0.6-0.2
					c0.2,0,0.3,0.1,0.4,0.3c0.1,0.1,0.2,0.3,0.2,0.6c0,0.2,0.1,0.5,0.1,0.8v2.5c0,0.1,0,0.1-0.1,0.2c0,0.1-0.1,0.1-0.1,0.1l-0.5,0.3
					c0,0-0.1,0-0.1,0s0-0.1,0-0.2V145c0-0.4-0.1-0.7-0.2-0.8c-0.1-0.1-0.3-0.1-0.4,0c-0.2,0.1-0.3,0.3-0.4,0.5
					c-0.1,0.2-0.2,0.6-0.2,1v2.5c0,0.1,0,0.1,0,0.2c0,0.1-0.1,0.1-0.1,0.1l-0.5,0.3c0,0-0.1,0-0.1,0c0,0,0-0.1,0-0.2v-2.5
					c0-0.4-0.1-0.7-0.2-0.8c-0.1-0.1-0.3-0.1-0.4,0c-0.2,0.1-0.3,0.3-0.4,0.5c-0.1,0.2-0.2,0.6-0.2,1v2.5c0,0.1,0,0.1,0,0.2
					c0,0.1-0.1,0.1-0.1,0.1l-0.5,0.3c0,0-0.1,0-0.1,0c0,0,0-0.1,0-0.2v-4.4c0-0.1,0-0.1,0-0.2c0-0.1,0.1-0.1,0.1-0.1l0.5-0.3
					c0,0,0.1,0,0.1,0c0,0,0,0.1,0,0.2L251.1,145.1L251.1,145.1z"/>
				<path class="st8" d="M256,143.1c0-0.1,0.1-0.3,0.1-0.5c0.1-0.2,0.1-0.4,0.3-0.6c0.1-0.2,0.2-0.4,0.4-0.6
					c0.2-0.2,0.3-0.3,0.5-0.4c0.2-0.1,0.4-0.2,0.6-0.2c0.2,0,0.3,0,0.4,0.1s0.2,0.2,0.3,0.5c0.1,0.2,0.1,0.5,0.1,0.8v2.8
					c0,0.1,0,0.1,0,0.2c0,0.1-0.1,0.1-0.1,0.1l-0.5,0.3c0,0-0.1,0-0.1,0c0,0,0-0.1,0-0.2v-0.3c-0.1,0.2-0.2,0.5-0.4,0.7
					c-0.2,0.2-0.4,0.4-0.6,0.6c-0.2,0.1-0.3,0.2-0.5,0.2c-0.1,0-0.3,0-0.4-0.1c-0.1-0.1-0.2-0.2-0.2-0.3c-0.1-0.2-0.1-0.3-0.1-0.5
					c0-0.4,0.1-0.8,0.3-1.2c0.2-0.4,0.5-0.7,0.8-1l1-0.8c0-0.3-0.1-0.4-0.2-0.5s-0.2,0-0.4,0.1c-0.1,0.1-0.2,0.1-0.2,0.2
					c-0.1,0.1-0.1,0.2-0.2,0.3c0,0.1-0.1,0.1-0.1,0.2c0,0-0.1,0.1-0.1,0.1l-0.6,0.3c0,0-0.1,0-0.1,0C256,143.2,256,143.2,256,143.1z
					 M257,145.2c0.1-0.1,0.3-0.2,0.4-0.3c0.1-0.1,0.2-0.3,0.3-0.4c0.1-0.1,0.1-0.3,0.2-0.4c0-0.1,0.1-0.3,0.1-0.4v-0.1l-0.8,0.7
					c-0.2,0.1-0.3,0.3-0.4,0.4c-0.1,0.1-0.1,0.3-0.1,0.4c0,0.1,0,0.2,0.1,0.2C256.8,145.3,256.9,145.2,257,145.2z"/>
				<path class="st8" d="M260.2,137.7c0,0,0.1,0,0.1,0s0,0.1,0,0.2v0.7c0,0.1,0,0.1,0,0.2c0,0.1-0.1,0.1-0.1,0.1l-0.5,0.3
					c0,0-0.1,0-0.1,0c0,0,0-0.1,0-0.2v-0.7c0-0.1,0-0.1,0-0.2c0-0.1,0.1-0.1,0.1-0.1L260.2,137.7z M260.3,144.1c0,0.1,0,0.1,0,0.2
					c0,0.1-0.1,0.1-0.1,0.1l-0.5,0.3c0,0-0.1,0-0.1,0c0,0,0-0.1,0-0.2v-4.4c0-0.1,0-0.1,0-0.2c0-0.1,0.1-0.1,0.1-0.1l0.5-0.3
					c0,0,0.1,0,0.1,0c0,0,0,0.1,0,0.2V144.1z"/>
				<path class="st8" d="M261.9,143.1c0,0.1,0,0.1,0,0.2c0,0.1-0.1,0.1-0.1,0.1l-0.5,0.3c0,0-0.1,0-0.1,0c0,0,0-0.1,0-0.2v-6.2
					c0-0.1,0-0.1,0-0.2c0-0.1,0.1-0.1,0.1-0.1l0.5-0.3c0,0,0.1,0,0.1,0c0,0,0,0.1,0,0.2V143.1z"/>
				<path class="st8" d="M264.2,138.3c0-0.1,0.1-0.3,0.1-0.5c0.1-0.2,0.1-0.4,0.3-0.6c0.1-0.2,0.2-0.4,0.4-0.6
					c0.2-0.2,0.3-0.3,0.5-0.4c0.2-0.1,0.4-0.2,0.6-0.2c0.2,0,0.3,0,0.4,0.1s0.2,0.2,0.3,0.5c0.1,0.2,0.1,0.5,0.1,0.8v2.8
					c0,0.1,0,0.1,0,0.2c0,0.1-0.1,0.1-0.1,0.1l-0.5,0.3c0,0-0.1,0-0.1,0c0,0,0-0.1,0-0.2v-0.3c-0.1,0.2-0.2,0.5-0.4,0.7
					c-0.2,0.2-0.4,0.4-0.6,0.6c-0.2,0.1-0.3,0.2-0.5,0.2c-0.1,0-0.3,0-0.4-0.1c-0.1-0.1-0.2-0.2-0.2-0.3c-0.1-0.1-0.1-0.3-0.1-0.5
					c0-0.4,0.1-0.8,0.3-1.2s0.5-0.7,0.8-1l1-0.8c0-0.3-0.1-0.4-0.2-0.5c-0.1,0-0.2,0-0.4,0.1c-0.1,0.1-0.2,0.1-0.2,0.2
					c-0.1,0.1-0.1,0.2-0.2,0.3c0,0.1-0.1,0.1-0.1,0.2c0,0-0.1,0.1-0.1,0.1l-0.6,0.3c0,0-0.1,0-0.1,0
					C264.2,138.5,264.2,138.4,264.2,138.3z M265.2,140.4c0.1-0.1,0.3-0.2,0.4-0.3c0.1-0.1,0.2-0.3,0.3-0.4c0.1-0.1,0.1-0.3,0.2-0.4
					c0-0.1,0.1-0.3,0.1-0.4v-0.1l-0.8,0.7c-0.2,0.1-0.3,0.3-0.4,0.4c-0.1,0.1-0.1,0.3-0.1,0.4c0,0.1,0,0.2,0.1,0.2
					C265,140.5,265.1,140.5,265.2,140.4z"/>
				<path class="st8" d="M268.9,134.3c0.1-0.1,0.2-0.1,0.3-0.1c0.1,0,0.2,0,0.3,0c0.1,0,0.1,0,0.2,0.1c0.1,0,0.1,0.1,0.1,0.1v-2
					c0-0.1,0-0.1,0-0.2c0-0.1,0.1-0.1,0.1-0.1l0.5-0.3c0,0,0.1,0,0.1,0s0,0.1,0,0.2v6.2c0,0.1,0,0.1,0,0.2c0,0.1-0.1,0.1-0.1,0.1
					l-0.5,0.3c0,0-0.1,0-0.1,0c0,0,0-0.1,0-0.2v-0.2c0,0.1-0.1,0.2-0.1,0.3c-0.1,0.1-0.1,0.2-0.2,0.3c-0.1,0.1-0.2,0.2-0.3,0.3
					c-0.1,0.1-0.2,0.2-0.3,0.3c-0.2,0.1-0.4,0.2-0.6,0.1c-0.2,0-0.3-0.1-0.4-0.2c-0.1-0.1-0.2-0.3-0.3-0.6c-0.1-0.2-0.1-0.5-0.1-0.8
					c0-0.1,0-0.2,0-0.3c0-0.1,0-0.2,0-0.3c0-0.3,0-0.6,0.1-0.9s0.2-0.6,0.3-0.9c0.1-0.3,0.3-0.5,0.4-0.7
					C268.5,134.6,268.7,134.4,268.9,134.3z M268.4,136.9c0,0.2,0,0.4,0,0.5c0,0.4,0.1,0.6,0.2,0.7s0.3,0.1,0.5,0
					c0.2-0.1,0.4-0.3,0.5-0.6c0.1-0.3,0.2-0.6,0.2-0.9c0-0.1,0-0.2,0-0.4s0-0.3,0-0.4c0-0.3-0.1-0.5-0.2-0.6c-0.1-0.1-0.3-0.1-0.5,0
					c-0.2,0.1-0.4,0.3-0.5,0.6C268.5,136.2,268.4,136.5,268.4,136.9z"/>
				<path class="st8" d="M272.7,132.1c0.1-0.1,0.2-0.1,0.3-0.1c0.1,0,0.2,0,0.3,0c0.1,0,0.1,0,0.2,0.1c0.1,0,0.1,0.1,0.1,0.1v-2
					c0-0.1,0-0.1,0-0.2c0-0.1,0.1-0.1,0.1-0.1l0.5-0.3c0,0,0.1,0,0.1,0c0,0,0,0.1,0,0.2v6.2c0,0.1,0,0.1,0,0.2
					c0,0.1-0.1,0.1-0.1,0.1l-0.5,0.3c0,0-0.1,0-0.1,0c0,0,0-0.1,0-0.2v-0.2c0,0.1-0.1,0.2-0.1,0.3c-0.1,0.1-0.1,0.2-0.2,0.3
					c-0.1,0.1-0.2,0.2-0.3,0.3s-0.2,0.2-0.3,0.3c-0.2,0.1-0.4,0.2-0.6,0.1c-0.2,0-0.3-0.1-0.4-0.2c-0.1-0.1-0.2-0.3-0.3-0.6
					c-0.1-0.2-0.1-0.5-0.1-0.8c0-0.1,0-0.2,0-0.3s0-0.2,0-0.3c0-0.3,0-0.6,0.1-0.9s0.2-0.6,0.3-0.9c0.1-0.3,0.3-0.5,0.4-0.7
					C272.4,132.4,272.5,132.2,272.7,132.1z M272.2,134.7c0,0.2,0,0.4,0,0.5c0,0.4,0.1,0.6,0.2,0.7c0.1,0.1,0.3,0.1,0.5,0
					c0.2-0.1,0.4-0.3,0.5-0.6c0.1-0.3,0.2-0.6,0.2-0.9c0-0.1,0-0.2,0-0.4c0-0.1,0-0.3,0-0.4c0-0.3-0.1-0.5-0.2-0.6
					c-0.1-0.1-0.3-0.1-0.5,0s-0.4,0.3-0.5,0.6C272.3,134,272.2,134.3,272.2,134.7z"/>
				<path class="st8" d="M276.8,131c-0.2,0.1-0.4,0.3-0.5,0.6c-0.1,0.2-0.2,0.5-0.2,0.9v2.5c0,0.1,0,0.1,0,0.2
					c0,0.1-0.1,0.1-0.1,0.1l-0.5,0.3c0,0-0.1,0-0.1,0c0,0,0-0.1,0-0.2V131c0-0.1,0-0.1,0-0.2c0-0.1,0.1-0.1,0.1-0.1l0.5-0.3
					c0,0,0.1,0,0.1,0c0,0,0,0.1,0,0.2v0.2c0.1-0.2,0.2-0.4,0.3-0.5c0.1-0.2,0.3-0.3,0.5-0.4l0.3-0.2c0,0,0.1,0,0.1,0
					c0,0,0,0.1,0,0.2v0.6c0,0.1,0,0.1,0,0.2c0,0.1-0.1,0.1-0.1,0.1L276.8,131z"/>
				<path class="st8" d="M277.7,131.8c0-0.4,0-0.7,0.1-1.1c0.1-0.4,0.2-0.7,0.3-1c0.1-0.3,0.3-0.6,0.5-0.8c0.2-0.2,0.4-0.4,0.6-0.6
					c0.2-0.1,0.4-0.2,0.6-0.2c0.2,0,0.3,0.1,0.5,0.2c0.1,0.1,0.2,0.3,0.3,0.6s0.1,0.5,0.1,0.9v0.4c0,0.1,0,0.1,0,0.2
					c0,0.1-0.1,0.1-0.1,0.1l-2.1,1.2c0,0.1,0,0.3,0.1,0.4c0,0.1,0.1,0.2,0.2,0.2c0.1,0,0.1,0.1,0.2,0c0.1,0,0.2,0,0.3-0.1
					c0.1-0.1,0.2-0.2,0.3-0.2s0.1-0.2,0.2-0.3c0-0.1,0.1-0.1,0.1-0.2c0,0,0.1-0.1,0.1-0.1l0.5-0.3c0,0,0.1,0,0.1,0c0,0,0,0.1,0,0.2
					c0,0.1,0,0.2-0.1,0.4c-0.1,0.2-0.1,0.4-0.3,0.6c-0.1,0.2-0.3,0.4-0.4,0.6c-0.2,0.2-0.4,0.4-0.6,0.5c-0.2,0.1-0.4,0.2-0.6,0.2
					c-0.2,0-0.3-0.1-0.5-0.3c-0.1-0.2-0.2-0.4-0.3-0.6C277.7,132.5,277.7,132.2,277.7,131.8z M279.2,129.5c-0.1,0.1-0.2,0.2-0.3,0.3
					c-0.1,0.1-0.2,0.2-0.2,0.3c-0.1,0.1-0.1,0.2-0.1,0.4c0,0.1-0.1,0.2-0.1,0.3l1.4-0.8c0-0.1,0-0.2,0-0.3c0-0.1-0.1-0.2-0.1-0.2
					c-0.1-0.1-0.1-0.1-0.2-0.1C279.4,129.4,279.3,129.4,279.2,129.5z"/>
				<path class="st8" d="M283.1,129.7c0-0.1,0-0.1,0-0.1c0,0-0.1,0-0.2,0s-0.2,0-0.3,0.1c-0.1,0-0.3,0.1-0.5,0.1c-0.2,0-0.3,0-0.5,0
					c-0.1,0-0.2-0.1-0.3-0.2c-0.1-0.1-0.1-0.2-0.1-0.3c0-0.1,0-0.3,0-0.5c0-0.2,0-0.4,0.1-0.6c0.1-0.2,0.1-0.4,0.2-0.6
					c0.1-0.2,0.2-0.4,0.4-0.6c0.2-0.2,0.3-0.3,0.5-0.4c0.2-0.1,0.4-0.2,0.5-0.2c0.2,0,0.3,0,0.4,0c0.1,0.1,0.2,0.1,0.3,0.2
					c0.1,0.1,0.1,0.2,0.1,0.4c0,0.1,0,0.1,0,0.2c0,0.1-0.1,0.1-0.1,0.1l-0.5,0.3c-0.1,0-0.1,0-0.1,0c0,0-0.1,0-0.1-0.1
					c0,0-0.1,0-0.1,0s-0.2,0-0.3,0.1c-0.1,0.1-0.2,0.2-0.3,0.3c-0.1,0.1-0.1,0.2-0.1,0.4c0,0.1,0,0.1,0,0.2c0,0,0.1,0.1,0.1,0.1
					c0.1,0,0.2,0,0.3,0c0.1,0,0.3-0.1,0.4-0.1c0.4-0.1,0.6-0.1,0.8,0.1c0.1,0.2,0.2,0.4,0.2,0.8c0,0.2,0,0.4-0.1,0.6
					s-0.2,0.4-0.3,0.6c-0.1,0.2-0.3,0.4-0.4,0.6c-0.2,0.2-0.4,0.3-0.6,0.5c-0.2,0.1-0.4,0.2-0.6,0.2c-0.2,0-0.3,0-0.4-0.1
					c-0.1-0.1-0.2-0.2-0.3-0.3c-0.1-0.1-0.1-0.3-0.1-0.4c0-0.1,0-0.1,0-0.2c0-0.1,0.1-0.1,0.1-0.1l0.5-0.3c0.1,0,0.1,0,0.1,0
					c0,0,0.1,0.1,0.1,0.1c0,0,0.1,0.1,0.2,0.1c0.1,0,0.2,0,0.3-0.1c0.1,0,0.1-0.1,0.2-0.1c0.1-0.1,0.1-0.1,0.2-0.2
					c0.1-0.1,0.1-0.1,0.1-0.2C283.1,129.9,283.1,129.8,283.1,129.7z"/>
				<path class="st8" d="M286.3,127.9c0-0.1,0-0.1,0-0.1c0,0-0.1,0-0.2,0c-0.1,0-0.2,0-0.3,0.1c-0.1,0-0.3,0.1-0.5,0.1
					c-0.2,0-0.3,0-0.4,0c-0.1,0-0.2-0.1-0.3-0.2c-0.1-0.1-0.1-0.2-0.2-0.3c0-0.1,0-0.3,0-0.5c0-0.2,0-0.4,0.1-0.6
					c0.1-0.2,0.1-0.4,0.2-0.6c0.1-0.2,0.2-0.4,0.4-0.6c0.2-0.2,0.3-0.3,0.5-0.4c0.2-0.1,0.4-0.2,0.5-0.2c0.2,0,0.3,0,0.4,0
					c0.1,0.1,0.2,0.1,0.3,0.2c0.1,0.1,0.1,0.2,0.1,0.4c0,0.1,0,0.1,0,0.2c0,0.1-0.1,0.1-0.1,0.1l-0.5,0.3c-0.1,0-0.1,0-0.1,0
					c0,0-0.1,0-0.1-0.1c0,0-0.1,0-0.1,0c-0.1,0-0.2,0-0.3,0.1c-0.1,0.1-0.2,0.2-0.3,0.3c-0.1,0.1-0.1,0.2-0.1,0.4c0,0.1,0,0.1,0,0.2
					c0,0,0.1,0.1,0.1,0.1c0.1,0,0.2,0,0.3,0c0.1,0,0.3-0.1,0.4-0.1c0.4-0.1,0.6-0.1,0.8,0.1c0.1,0.2,0.2,0.4,0.2,0.8
					c0,0.2,0,0.4-0.1,0.6c-0.1,0.2-0.2,0.4-0.3,0.6c-0.1,0.2-0.3,0.4-0.4,0.6c-0.2,0.2-0.4,0.3-0.6,0.5c-0.2,0.1-0.4,0.2-0.6,0.2
					c-0.2,0-0.3,0-0.4-0.1c-0.1-0.1-0.2-0.2-0.3-0.3c-0.1-0.1-0.1-0.3-0.1-0.4c0-0.1,0-0.1,0-0.2c0-0.1,0.1-0.1,0.1-0.1l0.5-0.3
					c0.1,0,0.1,0,0.1,0c0,0,0.1,0.1,0.1,0.1c0,0,0.1,0.1,0.2,0.1c0.1,0,0.2,0,0.3-0.1c0.1,0,0.1-0.1,0.2-0.1
					c0.1-0.1,0.1-0.1,0.2-0.2c0.1-0.1,0.1-0.1,0.1-0.2C286.3,128,286.3,128,286.3,127.9z"/>
			</g>
			<polygon class="st2" points="246.1,156.9 346,99.2 346,108.1 246.1,165.8 			"/>
			<g>
				<path class="st8" d="M248.6,174.5l1.2-3.8c0,0,0-0.1,0.1-0.2c0-0.1,0.1-0.2,0.2-0.2l0.4-0.2c0,0,0.1,0,0.1,0c0,0,0,0.1,0,0.2
					v6.1c0,0.1,0,0.1,0,0.2c0,0.1-0.1,0.1-0.1,0.1l-0.5,0.3c0,0-0.1,0-0.1,0c0,0-0.1-0.1-0.1-0.2v-3.7l-0.8,2.6c0,0.1,0,0.1-0.1,0.2
					c0,0.1-0.1,0.1-0.1,0.2l-0.3,0.2c-0.1,0-0.1,0-0.1,0c0,0-0.1-0.1-0.1-0.1l-0.8-1.7v3.7c0,0.1,0,0.1-0.1,0.2
					c0,0.1-0.1,0.1-0.1,0.1l-0.5,0.3c0,0-0.1,0-0.1,0c0,0,0-0.1,0-0.2v-6.1c0-0.1,0-0.1,0-0.2c0-0.1,0.1-0.1,0.1-0.1l0.4-0.2
					c0.1,0,0.1,0,0.2,0s0.1,0.1,0.1,0.1L248.6,174.5z"/>
				<path class="st8" d="M251.4,173.6c0-0.4,0-0.7,0.1-1.1c0.1-0.4,0.2-0.7,0.3-1c0.1-0.3,0.3-0.6,0.5-0.8c0.2-0.2,0.4-0.4,0.6-0.6
					c0.2-0.1,0.4-0.2,0.6-0.2c0.2,0,0.3,0.1,0.5,0.2c0.1,0.1,0.2,0.3,0.3,0.6c0.1,0.3,0.1,0.5,0.1,0.9v0.4c0,0.1,0,0.1,0,0.2
					c0,0.1-0.1,0.1-0.1,0.1l-2.1,1.2c0,0.1,0,0.3,0.1,0.4c0,0.1,0.1,0.2,0.2,0.2c0.1,0,0.1,0.1,0.2,0c0.1,0,0.2,0,0.3-0.1
					c0.1-0.1,0.2-0.2,0.3-0.2c0.1-0.1,0.1-0.2,0.2-0.3c0-0.1,0.1-0.1,0.1-0.2c0,0,0.1-0.1,0.1-0.1l0.5-0.3c0,0,0.1,0,0.1,0
					c0,0,0.1,0.1,0,0.2c0,0.1,0,0.2-0.1,0.4c-0.1,0.2-0.1,0.4-0.3,0.6c-0.1,0.2-0.3,0.4-0.4,0.6c-0.2,0.2-0.4,0.4-0.6,0.5
					c-0.2,0.1-0.4,0.2-0.6,0.2c-0.2,0-0.3-0.1-0.5-0.3c-0.1-0.2-0.2-0.4-0.3-0.6C251.4,174.3,251.4,174,251.4,173.6z M252.9,171.4
					c-0.1,0.1-0.2,0.2-0.3,0.3c-0.1,0.1-0.2,0.2-0.2,0.3c-0.1,0.1-0.1,0.2-0.1,0.4c0,0.1-0.1,0.2-0.1,0.3l1.4-0.8c0-0.1,0-0.2,0-0.3
					c0-0.1-0.1-0.2-0.1-0.2c-0.1-0.1-0.1-0.1-0.2-0.1C253.1,171.2,253,171.3,252.9,171.4z"/>
				<path class="st8" d="M256.8,171.6c0-0.1,0-0.1,0-0.1c0,0-0.1,0-0.2,0c-0.1,0-0.2,0-0.3,0.1c-0.1,0-0.3,0.1-0.5,0.1
					c-0.2,0-0.3,0-0.4,0c-0.1,0-0.2-0.1-0.3-0.2c-0.1-0.1-0.1-0.2-0.1-0.3c0-0.1,0-0.3,0-0.5c0-0.2,0-0.4,0.1-0.6
					c0.1-0.2,0.1-0.4,0.2-0.6c0.1-0.2,0.2-0.4,0.4-0.6c0.2-0.2,0.3-0.3,0.5-0.4c0.2-0.1,0.4-0.2,0.5-0.2c0.2,0,0.3,0,0.4,0
					c0.1,0.1,0.2,0.1,0.3,0.2c0.1,0.1,0.1,0.2,0.1,0.4c0,0.1,0,0.1,0,0.2c0,0.1-0.1,0.1-0.1,0.1l-0.5,0.3c-0.1,0-0.1,0-0.1,0
					c0,0-0.1,0-0.1-0.1c0,0-0.1,0-0.1,0c-0.1,0-0.2,0-0.3,0.1c-0.1,0.1-0.2,0.2-0.3,0.3c-0.1,0.1-0.1,0.2-0.1,0.4c0,0.1,0,0.1,0,0.2
					c0,0,0.1,0.1,0.1,0.1c0.1,0,0.2,0,0.3,0c0.1,0,0.3-0.1,0.4-0.1c0.4-0.1,0.6-0.1,0.8,0.1c0.1,0.2,0.2,0.4,0.2,0.8
					c0,0.2,0,0.4-0.1,0.6c-0.1,0.2-0.2,0.4-0.3,0.6c-0.1,0.2-0.3,0.4-0.4,0.6c-0.2,0.2-0.4,0.3-0.6,0.5c-0.2,0.1-0.4,0.2-0.6,0.2
					c-0.2,0-0.3,0-0.4-0.1c-0.1-0.1-0.2-0.2-0.3-0.3c-0.1-0.1-0.1-0.3-0.1-0.4c0-0.1,0-0.1,0-0.2c0-0.1,0.1-0.1,0.1-0.1l0.5-0.3
					c0.1,0,0.1,0,0.1,0c0,0,0.1,0.1,0.1,0.1c0,0,0.1,0.1,0.2,0.1c0.1,0,0.2,0,0.3-0.1c0.1,0,0.1-0.1,0.2-0.1
					c0.1-0.1,0.1-0.1,0.2-0.2c0.1-0.1,0.1-0.1,0.1-0.2C256.8,171.7,256.8,171.6,256.8,171.6z"/>
				<path class="st8" d="M260,169.7c0-0.1,0-0.1,0-0.1c0,0-0.1,0-0.2,0c-0.1,0-0.2,0-0.3,0.1c-0.1,0-0.3,0.1-0.5,0.1
					c-0.2,0-0.3,0-0.4,0c-0.1,0-0.2-0.1-0.3-0.2c-0.1-0.1-0.1-0.2-0.1-0.3c0-0.1,0-0.3,0-0.5c0-0.2,0-0.4,0.1-0.6
					c0.1-0.2,0.1-0.4,0.2-0.6c0.1-0.2,0.2-0.4,0.4-0.6c0.2-0.2,0.3-0.3,0.5-0.4c0.2-0.1,0.4-0.2,0.5-0.2c0.2,0,0.3,0,0.4,0
					c0.1,0,0.2,0.1,0.3,0.2c0.1,0.1,0.1,0.2,0.1,0.4c0,0.1,0,0.1,0,0.2c0,0.1-0.1,0.1-0.1,0.1l-0.5,0.3c-0.1,0-0.1,0-0.1,0
					c0,0-0.1,0-0.1-0.1c0,0-0.1,0-0.1,0c-0.1,0-0.2,0-0.3,0.1c-0.1,0.1-0.2,0.2-0.3,0.3c-0.1,0.1-0.1,0.2-0.1,0.4c0,0.1,0,0.1,0,0.2
					c0,0,0.1,0.1,0.1,0.1c0.1,0,0.2,0,0.3,0c0.1,0,0.3-0.1,0.4-0.1c0.4-0.1,0.6-0.1,0.8,0.1c0.1,0.2,0.2,0.4,0.2,0.8
					c0,0.2,0,0.4-0.1,0.6s-0.2,0.4-0.3,0.6s-0.3,0.4-0.4,0.6c-0.2,0.2-0.4,0.3-0.6,0.5c-0.2,0.1-0.4,0.2-0.6,0.2
					c-0.2,0-0.3,0-0.4-0.1c-0.1-0.1-0.2-0.2-0.3-0.3c-0.1-0.1-0.1-0.3-0.1-0.4c0-0.1,0-0.1,0-0.2c0-0.1,0.1-0.1,0.1-0.1l0.5-0.3
					c0.1,0,0.1,0,0.1,0c0,0,0.1,0.1,0.1,0.1c0,0,0.1,0.1,0.2,0.1c0.1,0,0.2,0,0.3-0.1c0.1,0,0.1-0.1,0.2-0.1
					c0.1-0.1,0.1-0.1,0.2-0.2c0.1-0.1,0.1-0.1,0.1-0.2C260,169.9,260,169.8,260,169.7z"/>
				<path class="st8" d="M261.5,166.6c0-0.1,0.1-0.3,0.1-0.5c0.1-0.2,0.1-0.4,0.3-0.6c0.1-0.2,0.2-0.4,0.4-0.6
					c0.2-0.2,0.3-0.3,0.6-0.4c0.2-0.1,0.4-0.2,0.6-0.2c0.2,0,0.3,0,0.4,0.1c0.1,0.1,0.2,0.2,0.3,0.5c0.1,0.2,0.1,0.5,0.1,0.8v2.8
					c0,0.1,0,0.1,0,0.2c0,0.1-0.1,0.1-0.1,0.1l-0.5,0.3c0,0-0.1,0-0.1,0c0,0,0-0.1,0-0.2v-0.3c-0.1,0.2-0.2,0.5-0.4,0.7
					c-0.2,0.2-0.4,0.4-0.6,0.6c-0.2,0.1-0.3,0.2-0.5,0.2c-0.1,0-0.3,0-0.4-0.1c-0.1-0.1-0.2-0.2-0.2-0.3c-0.1-0.2-0.1-0.3-0.1-0.5
					c0-0.4,0.1-0.8,0.3-1.2s0.5-0.7,0.8-1l1-0.8c0-0.3-0.1-0.4-0.2-0.5c-0.1,0-0.2,0-0.4,0.1c-0.1,0.1-0.2,0.1-0.2,0.2
					c-0.1,0.1-0.1,0.2-0.2,0.3c0,0.1-0.1,0.1-0.1,0.2c0,0-0.1,0.1-0.1,0.1l-0.6,0.3c0,0-0.1,0-0.1,0
					C261.5,166.7,261.5,166.6,261.5,166.6z M262.5,168.6c0.1-0.1,0.3-0.2,0.4-0.3c0.1-0.1,0.2-0.3,0.3-0.4c0.1-0.1,0.1-0.3,0.2-0.4
					c0-0.1,0.1-0.3,0.1-0.4V167l-0.8,0.7c-0.2,0.1-0.3,0.3-0.4,0.4c-0.1,0.1-0.1,0.3-0.1,0.4c0,0.1,0,0.2,0.1,0.2
					C262.3,168.7,262.4,168.7,262.5,168.6z"/>
				<path class="st8" d="M266.4,168.4c0.1,0,0.2-0.1,0.3-0.2c0.1-0.1,0.2-0.2,0.2-0.3c0.1-0.1,0.1-0.3,0.2-0.4
					c0-0.2,0.1-0.3,0.1-0.5v-0.4c0,0.1-0.1,0.2-0.1,0.3c-0.1,0.1-0.1,0.2-0.2,0.3c-0.1,0.1-0.2,0.2-0.3,0.3
					c-0.1,0.1-0.2,0.2-0.3,0.3c-0.2,0.1-0.4,0.2-0.6,0.1c-0.2,0-0.3-0.1-0.4-0.2c-0.1-0.1-0.2-0.3-0.3-0.5c-0.1-0.2-0.1-0.5-0.1-0.8
					c0-0.1,0-0.2,0-0.3s0-0.2,0-0.3c0-0.3,0-0.6,0.1-0.9s0.2-0.6,0.3-0.9c0.1-0.3,0.3-0.5,0.4-0.7c0.2-0.2,0.4-0.4,0.6-0.5
					c0.1-0.1,0.2-0.1,0.3-0.1c0.1,0,0.2,0,0.3,0c0.1,0,0.1,0,0.2,0.1c0.1,0,0.1,0.1,0.1,0.1v-0.2c0-0.1,0-0.1,0-0.2
					c0-0.1,0.1-0.1,0.1-0.1l0.5-0.3c0,0,0.1,0,0.1,0c0,0,0,0.1,0,0.2v4.4c0,0.8-0.1,1.4-0.4,2c-0.3,0.5-0.7,1-1.1,1.2
					c-0.2,0.1-0.4,0.2-0.6,0.2c-0.2,0-0.3,0-0.5-0.1c-0.1-0.1-0.2-0.2-0.3-0.3c-0.1-0.1-0.1-0.3-0.1-0.5c0-0.1,0-0.1,0-0.2
					c0-0.1,0.1-0.1,0.1-0.1l0.4-0.2c0.1,0,0.1,0,0.1,0c0,0,0.1,0.1,0.1,0.1c0.1,0.1,0.1,0.1,0.2,0.1
					C266,168.6,266.2,168.5,266.4,168.4z M265.6,165.1c0,0.2,0,0.4,0,0.5c0,0.4,0.1,0.6,0.2,0.7c0.1,0.1,0.3,0.1,0.5,0
					c0.2-0.1,0.4-0.3,0.5-0.6c0.1-0.3,0.2-0.6,0.2-0.9c0-0.1,0-0.2,0-0.4c0-0.1,0-0.3,0-0.4c0-0.3-0.1-0.5-0.2-0.6s-0.3-0.1-0.5,0
					s-0.4,0.3-0.5,0.6C265.7,164.4,265.7,164.7,265.6,165.1z"/>
				<path class="st8" d="M268.6,163.7c0-0.4,0-0.7,0.1-1.1c0.1-0.4,0.2-0.7,0.3-1c0.1-0.3,0.3-0.6,0.5-0.8c0.2-0.2,0.4-0.4,0.6-0.6
					c0.2-0.1,0.4-0.2,0.6-0.2c0.2,0,0.3,0.1,0.5,0.2c0.1,0.1,0.2,0.3,0.3,0.6c0.1,0.3,0.1,0.5,0.1,0.9v0.4c0,0.1,0,0.1,0,0.2
					c0,0.1-0.1,0.1-0.1,0.1l-2.1,1.2c0,0.1,0,0.3,0.1,0.4c0,0.1,0.1,0.2,0.2,0.2c0.1,0,0.1,0.1,0.2,0c0.1,0,0.2,0,0.3-0.1
					c0.1-0.1,0.2-0.2,0.3-0.2c0.1-0.1,0.1-0.2,0.2-0.3c0-0.1,0.1-0.1,0.1-0.2c0,0,0.1-0.1,0.1-0.1l0.5-0.3c0,0,0.1,0,0.1,0
					c0,0,0.1,0.1,0,0.2c0,0.1,0,0.2-0.1,0.4c-0.1,0.2-0.1,0.4-0.3,0.6c-0.1,0.2-0.3,0.4-0.4,0.6c-0.2,0.2-0.4,0.4-0.6,0.5
					c-0.2,0.1-0.4,0.2-0.6,0.2s-0.3-0.1-0.5-0.3c-0.1-0.2-0.2-0.4-0.3-0.6C268.7,164.4,268.6,164.1,268.6,163.7z M270.1,161.4
					c-0.1,0.1-0.2,0.2-0.3,0.3c-0.1,0.1-0.2,0.2-0.2,0.3c-0.1,0.1-0.1,0.2-0.1,0.4c0,0.1,0,0.2-0.1,0.3l1.4-0.8c0-0.1,0-0.2,0-0.3
					c0-0.1-0.1-0.2-0.1-0.2c-0.1-0.1-0.1-0.1-0.2-0.1C270.4,161.3,270.3,161.3,270.1,161.4z"/>
			</g>
			<polygon class="st2" points="246.1,183.6 346,125.9 346,156.9 246.1,214.7 			"/>
		</g>
	</g>
</g>
<g id="Character_2">
	<g>
		<g id="Window_9_">
			<g>
				<path class="st2" d="M211.4,68.4L95.7,135.2c-1.4,0.8-2.6,2.9-2.6,4.5v257.1c0,1.7,1.2,3.7,2.6,4.5l1.6,0.9
					c1.4,0.8,3.8,0.8,5.2,0l115.7-66.8c1.4-0.8,2.6-2.9,2.6-4.5v-257c0-1.7-1.2-3.7-2.6-4.5l-1.6-0.9
					C215.2,67.6,212.9,67.6,211.4,68.4z"/>
				<path id="XMLID_671_" class="st3" d="M220.9,331c0,2.3-1.6,3.8-3.6,4.9l-113.7,65.7c-2,1.1-3.6,0.2-3.6-2.1V144.7l0,0
					c0-2.6,1.4-4.9,3.6-6.2l113.8-65.7c1.6-0.9,3.6,0.2,3.6,2.1l0,0L220.9,331L220.9,331z"/>
				<path id="XMLID_670_" class="st2" d="M218.5,73.5L218.5,73.5c0.7,0,1.4,0.5,1.4,1.4V331c0,1.6-1,2.8-3.1,4l-113.7,65.7
					c-0.4,0.2-0.8,0.4-1.1,0.4c-0.9,0-1-1-1-1.6V144.7c0-2.2,1.2-4.2,3.1-5.3l113.8-65.7C218,73.5,218.3,73.5,218.5,73.5
					 M218.5,72.5c-0.4,0-0.8,0.1-1.2,0.3l-113.8,65.7c-2.2,1.3-3.6,3.6-3.6,6.2v254.8c0,1.6,0.8,2.6,2,2.6c0.5,0,1-0.2,1.6-0.5
					l113.7-65.7c2-1.1,3.6-2.6,3.6-4.9V74.9C220.9,73.5,219.8,72.5,218.5,72.5L218.5,72.5z"/>
				<path class="st5" d="M220.9,73.8v1c0-1.8-2-3-3.6-2.1l-113.8,65.7c-1.1,0.6-2,1.5-2.6,2.6c0,0,0,0.1,0,0.1l-7-4.1
					c0.5-0.8,1.1-1.6,1.9-2l115.7-66.7c1.4-0.8,3.8-0.8,5.2,0l1.6,0.9C219.7,70.2,220.9,72.2,220.9,73.8z"/>
			</g>
			<g>
				<g id="XMLID_630_">
					<path id="XMLID_651_" class="st8" d="M122.2,142.1c0,0,0-0.1,0-0.2v-0.8l-1.3,0.8c-0.1,0-0.1,0-0.1-0.1v-0.3c0-0.1,0-0.1,0-0.2
						c0,0,0-0.1,0-0.2l1.4-3.8c0-0.1,0-0.1,0.1-0.1c0,0,0-0.1,0.1-0.1l0.2-0.1c0.1,0,0.1,0,0.1,0c0,0,0,0.1,0,0.2v2.9l0.3-0.2
						c0.1,0,0.1,0,0.1,0c0,0,0,0.1,0,0.2v0.2c0,0.1,0,0.2,0,0.2c0,0.1-0.1,0.1-0.1,0.1l-0.3,0.2v0.8c0,0.1,0,0.2,0,0.2
						s-0.1,0.1-0.1,0.1l-0.2,0.1C122.2,142.2,122.2,142.2,122.2,142.1z M122.2,140.4v-2.1l-1,2.6L122.2,140.4z"/>
					<path id="XMLID_635_" class="st8" d="M123.7,140.7c-0.3-0.3-0.4-0.9-0.4-1.7c0-0.8,0.1-1.6,0.4-2.2c0.3-0.6,0.6-1,1.1-1.3
						c0.2-0.1,0.4-0.2,0.5-0.2c0.2,0,0.3,0,0.4,0.1c0,0,0,0,0,0.1c0,0,0,0.1,0,0.1l-0.1,0.4c0,0.1,0,0.1-0.1,0.1c0,0,0,0-0.1,0
						c-0.2-0.1-0.4,0-0.7,0.1c-0.3,0.2-0.6,0.5-0.7,0.9c-0.2,0.4-0.3,1-0.3,1.6c0,0.6,0.1,1.1,0.3,1.3c0.2,0.2,0.4,0.2,0.7,0.1
						c0.1-0.1,0.2-0.1,0.3-0.2c0.1-0.1,0.2-0.2,0.3-0.3v-1.4l-0.5,0.3c-0.1,0-0.1,0-0.1,0c0,0,0-0.1,0-0.2v-0.2c0-0.1,0-0.2,0-0.2
						c0-0.1,0.1-0.1,0.1-0.1l0.9-0.5c0.1,0,0.1,0,0.1,0c0,0,0,0.1,0,0.2v1.9c0,0.1,0,0.1,0,0.2c0,0,0,0.1-0.1,0.1
						c-0.3,0.4-0.6,0.8-1,1C124.4,141.1,124,141,123.7,140.7z"/>
				</g>
				<g id="XMLID_402_">
					<g id="XMLID_543_">
						<path id="XMLID_574_" class="st8" d="M134.8,134c0,0.6-0.3,1.4-0.8,1.6c-0.4,0.2-0.8-0.1-0.8-0.7s0.3-1.4,0.8-1.6
							C134.5,133.1,134.8,133.4,134.8,134z"/>
					</g>
					<g id="XMLID_529_">
						<g id="XMLID_539_">
							<path id="XMLID_540_" class="st8" d="M134,131.4c-0.8,0.4-1.4,1.5-1.8,2.7c-0.1,0.2,0,0.5,0.1,0.5l0,0
								c0.1,0.1,0.4-0.1,0.4-0.4c0.2-0.8,0.7-1.6,1.2-1.9c0.5-0.3,1-0.1,1.2,0.4c0.1,0.2,0.3,0.1,0.4-0.1l0,0
								c0.1-0.2,0.1-0.5,0.1-0.6C135.5,131.2,134.8,130.9,134,131.4z"/>
						</g>
					</g>
					<g id="XMLID_470_">
						<g id="XMLID_471_">
							<path id="XMLID_523_" class="st8" d="M134,129.5c-1.1,0.7-2.1,2.2-2.7,3.9c-0.1,0.3-0.1,0.5,0.1,0.6l0,0
								c0.1,0.1,0.3-0.1,0.4-0.4c0.5-1.4,1.3-2.6,2.2-3.2c0.9-0.5,1.8-0.3,2.2,0.6c0.1,0.2,0.3,0.1,0.4-0.1l0,0
								c0.1-0.2,0.1-0.5,0.1-0.7C136.2,129.2,135.2,128.8,134,129.5z"/>
						</g>
					</g>
				</g>
				<g>
					<path class="st8" d="M159.9,117.2C159.9,117.1,159.9,117.1,159.9,117.2c0.1,0,0.1,0.1,0.1,0.1v0.8c0,0.1,0,0.1,0,0.2
						c0,0.1-0.1,0.1-0.1,0.1l-0.5,0.3c0,0-0.1,0-0.1,0c0,0,0-0.1,0-0.1v-0.8c0-0.1,0-0.1,0-0.2c0-0.1,0.1-0.1,0.1-0.1L159.9,117.2z
						 M159.9,119.9C159.9,119.9,159.9,119.9,159.9,119.9c0.1,0,0.1,0.1,0.1,0.1v0.8c0,0.1,0,0.1,0,0.2c0,0.1-0.1,0.1-0.1,0.1
						l-0.5,0.3c0,0-0.1,0-0.1,0c0,0,0-0.1,0-0.1v-0.8c0-0.1,0-0.1,0-0.2c0-0.1,0.1-0.1,0.1-0.1L159.9,119.9z"/>
					<path class="st8" d="M162.5,119.5C162.5,119.5,162.5,119.5,162.5,119.5c-0.1,0-0.1-0.1-0.1-0.1v-0.9l-1.6,0.9c0,0-0.1,0-0.1,0
						c0,0,0-0.1,0-0.1v-0.6c0-0.1,0-0.1,0-0.2c0-0.1,0-0.1,0.1-0.2l1.5-3.9c0.1-0.2,0.1-0.3,0.2-0.3l0.4-0.2c0,0,0.1,0,0.1,0
						s0,0.1,0,0.1v3.1l0.4-0.3c0,0,0.1,0,0.1,0s0,0.1,0,0.1v0.6c0,0.1,0,0.1,0,0.2s-0.1,0.1-0.1,0.1l-0.4,0.3v0.9c0,0.1,0,0.1,0,0.2
						c0,0.1-0.1,0.1-0.1,0.1L162.5,119.5z M162.4,117.5v-1.7l-0.9,2.2L162.4,117.5z"/>
					<path class="st8" d="M157.4,122.5C157.3,122.5,157.3,122.5,157.4,122.5c-0.1,0-0.1-0.1-0.1-0.1v-0.9l-1.6,0.9c0,0-0.1,0-0.1,0
						c0,0,0-0.1,0-0.1v-0.6c0-0.1,0-0.1,0-0.2c0-0.1,0-0.1,0.1-0.2l1.5-3.9c0.1-0.2,0.1-0.3,0.2-0.3l0.4-0.2c0,0,0.1,0,0.1,0
						s0,0.1,0,0.1v3.1l0.4-0.3c0,0,0.1,0,0.1,0s0,0.1,0,0.1v0.6c0,0.1,0,0.1,0,0.2s-0.1,0.1-0.1,0.1l-0.4,0.3v0.9c0,0.1,0,0.1,0,0.2
						c0,0.1-0.1,0.1-0.1,0.1L157.4,122.5z M157.2,120.4v-1.7l-0.9,2.2L157.2,120.4z"/>
					<path class="st8" d="M164.6,113.1c0-0.1,0-0.1,0-0.2s0.1-0.1,0.1-0.1l1.9-1.1c0,0,0.1,0,0.1,0c0,0,0,0.1,0,0.1v0.6
						c0,0.1,0,0.1,0,0.2c0,0.1-0.1,0.1-0.1,0.1l-1.4,0.8l-0.1,1c0.1-0.1,0.2-0.2,0.3-0.3c0.1-0.1,0.2-0.1,0.2-0.1
						c0.2-0.1,0.4-0.2,0.5-0.2s0.3,0,0.4,0.1s0.2,0.2,0.3,0.4c0.1,0.2,0.1,0.4,0.1,0.7c0,0.3,0,0.6-0.1,0.9s-0.2,0.5-0.3,0.7
						c-0.1,0.2-0.3,0.4-0.4,0.6c-0.2,0.2-0.3,0.3-0.5,0.4c-0.2,0.1-0.4,0.2-0.6,0.2c-0.2,0-0.3,0-0.4-0.1c-0.1-0.1-0.2-0.2-0.2-0.3
						c-0.1-0.2-0.1-0.3-0.1-0.5c0-0.1,0-0.1,0-0.2c0-0.1,0.1-0.1,0.1-0.1l0.4-0.2c0,0,0.1,0,0.1,0c0,0,0,0.1,0.1,0.1
						c0,0.1,0.1,0.2,0.1,0.2c0,0.1,0.1,0.1,0.2,0.1c0.1,0,0.1,0,0.2,0c0.1,0,0.1-0.1,0.2-0.1c0.2-0.1,0.3-0.3,0.5-0.5
						c0.1-0.2,0.2-0.5,0.2-0.8c0-0.2-0.1-0.4-0.2-0.5c-0.1-0.1-0.3-0.1-0.5,0c-0.1,0.1-0.2,0.1-0.2,0.2c-0.1,0.1-0.1,0.1-0.1,0.2
						c0,0.1-0.1,0.1-0.1,0.1c0,0-0.1,0.1-0.1,0.1l-0.5,0.3c0,0-0.1,0-0.1,0c0,0,0-0.1,0-0.1L164.6,113.1z"/>
				</g>
				<g>
					<polygon class="st8" points="107.7,151.1 107.7,149.5 109.1,148.7 109.1,150.3 					"/>
					<polygon class="st8" points="109.8,149.9 109.8,146.7 111.2,145.9 111.2,149.1 					"/>
					<polygon class="st8" points="111.9,148.7 111.9,143.9 113.3,143 113.3,147.9 					"/>
					<polygon class="st8" points="114,147.5 114,141 115.4,140.2 115.4,146.7 					"/>
				</g>
				<g id="XMLID_276_">
					<path id="XMLID_323_" class="st8" d="M212.4,85.4c-0.1-0.2-0.3-0.3-0.5-0.2l-5.2,3c-0.3,0.2-0.6,0.9-0.6,1.6v2.9
						c0,0.4,0.1,0.7,0.2,0.9c0.1,0.1,0.1,0.2,0.2,0.2c0.1,0,0.2,0,0.3,0l5.2-3c0.3-0.2,0.6-0.9,0.6-1.6v-2.9
						C212.6,86,212.5,85.6,212.4,85.4z M206.4,93.4c-0.1-0.1-0.1-0.2-0.1-0.4V90c0-0.5,0.2-1.1,0.5-1.2l5.2-3c0.1,0,0.1,0,0.2,0
						c0,0,0,0,0.1,0.1c0.1,0.1,0.1,0.2,0.1,0.4v2.9c0,0.5-0.2,1.1-0.5,1.2l-5.2,3C206.5,93.4,206.5,93.4,206.4,93.4z"/>
					<g id="XMLID_322_">
						<path class="st8" d="M207.8,88.7v3.5l-0.8,0.5c-0.1,0-0.2,0-0.2-0.1V90c0-0.4,0.2-0.8,0.3-0.9L207.8,88.7z"/>
						<polygon class="st8" points="208.2,88.5 209.1,87.9 209.1,91.4 208.2,92 						"/>
						<polygon class="st8" points="209.5,87.7 210.5,87.1 210.5,90.6 209.5,91.2 						"/>
						<path class="st8" d="M211.9,86.6v2.5c0,0.5-0.3,0.9-0.7,1.1l-0.3,0.2v-3.5l0.8-0.5C211.8,86.4,211.9,86.5,211.9,86.6z"/>
					</g>
					<g id="XMLID_277_">
						<path id="XMLID_321_" class="st8" d="M212.8,86.3c0.1-0.1,0.3,0.3,0.3,0.9v0.5c0,0.6-0.1,1.2-0.3,1.3l-0.3,0.2l0-2.8
							C212.6,86.4,212.7,86.4,212.8,86.3z"/>
					</g>
				</g>
				<polygon class="st8" points="198.1,95.2 203.2,90.6 201.6,97.3 200.9,94.5 				"/>
			</g>
			<g>
				<path class="st6" d="M110.1,158l81.9-47.3c1.4-0.8,2.5-0.1,2.5,1.4v7.6c0,1.6-1.1,3.5-2.5,4.3l-81.9,47.3
					c-1.4,0.8-2.5,0.1-2.5-1.4v-7.6C107.6,160.7,108.7,158.8,110.1,158z"/>
				<g>
					<path class="st2" d="M200.6,118.1c-0.3,0-0.6-0.2-0.8-0.5c-0.3-0.5-0.1-1,0.3-1.3L211,110c0.5-0.3,1-0.1,1.3,0.3
						c0.3,0.5,0.1,1-0.3,1.3l-10.8,6.3C201,118.1,200.8,118.1,200.6,118.1z"/>
				</g>
				<g>
					<path class="st2" d="M200.6,113.4c-0.3,0-0.6-0.2-0.8-0.5c-0.3-0.5-0.1-1,0.3-1.3l10.8-6.3c0.5-0.3,1-0.1,1.3,0.3
						c0.3,0.5,0.1,1-0.3,1.3l-10.8,6.3C201,113.4,200.8,113.4,200.6,113.4z"/>
				</g>
				<g>
					<path class="st2" d="M200.6,108.8c-0.3,0-0.6-0.2-0.8-0.5c-0.3-0.5-0.1-1,0.3-1.3l10.8-6.3c0.5-0.3,1-0.1,1.3,0.3
						c0.3,0.5,0.1,1-0.3,1.3l-10.8,6.3C201,108.7,200.8,108.8,200.6,108.8z"/>
				</g>
			</g>
		</g>
		<g id="Character_3_">
			<g id="Botom_4_">
				<g id="XMLID_10831_">
					<g id="XMLID_10832_">
						<path class="st8" d="M100,344.8v54.8c0,2.2,1.6,3.1,3.5,2l34.3-19.8l3.3-1.9l26.5-15.3c0.2-5,0.3-9.2,0.4-12.3
							c0.1-3.6,0.2-5.7,0.2-5.7L100,344.8z"/>
					</g>
				</g>
			</g>
			<g id="Top_32_">
				<g>
					<g>
						<path class="st20" d="M206.5,271.1c0.3-0.9,0.5-3.2,0.6-4.2c0.6-6.8,4.1-12.9,7.9-18.4c0.6-0.9,1.3-1.9,2-2.8
							c0.3-0.5,0.7-0.9,0.9-1.4c0.2-0.5,0.5-0.8,1.1-0.7c0.5,0.1,0.8,0.4,1.1,0.8c0.9,1.3,1,3,0.7,4.5c-0.3,1.5-1,2.9-1.6,4.4
							c-0.5,1.1,0.9,0.8,1.5,0.5c2.9-1.2,5.9-5.3,7.7-7.9c1.2-1.7,2.1-3.5,3.6-5c0.9-0.9,2-1.6,3.3-1.9c0.9-0.2,1.7,0,1.8,1.1
							c0.1,0.7-0.3,1.3-0.5,1.9c-0.5,1.3-1,2.4-0.4,3.8c0.4,0.9,0.9,1.7,1,2.6c0.2,1.2-0.4,2.3-0.3,3.5c0,1.1,0.6,1.9,0.8,2.9
							c0.1,1.1-0.5,2.5-0.9,3.5c-0.9,2.3-2.1,4.5-3.5,6.5c-2.2,3.1-4.9,5.8-7.6,8.3c-1.5,1.4-3.2,2.9-4,4.8c-0.8,2-1.3,4-1.7,6.1
							c-0.5,2.6-1,5.2-1.6,7.8c-5.7,28-8.6,29.5-12.3,33.7c-2.2,2.5-8.6,4.9-17.2-4c-9.6-9.9-27.9-35.5-27.9-35.5l-3.8-34.2
							c0,0,3.4,0.9,7.7,2.1c4,1.1,8.3,5.2,11.1,9.7c5.9,9.4,21.2,33.7,21.2,33.7S205.3,274.7,206.5,271.1z"/>
					</g>
					<path class="st6" d="M159.7,252.1c6.3,0.8,10,2.8,13.7,7.2c3.7,4.4,18,28.3,18,28.3s-4.9,10.5-18,16.1l-16.4-21.5L159.7,252.1z
						"/>
					<path class="st15" d="M159.7,252.1c6.3,0.8,10,2.8,13.7,7.2c3.7,4.4,18,28.3,18,28.3s-4.9,10.5-18,16.1l-16.4-21.5L159.7,252.1
						z"/>
					<path class="st21" d="M197,297.3c-3.4,6.9-4.3,15.3-4.3,15.3s-1.9-10.6,2.3-18.5L197,297.3z"/>
					<path class="st21" d="M218.6,257.8c0.4,3.9-1.2,9.1-2.6,11.1c0,0,2.6-2.4,3.2-5.3C219.9,260.5,219.4,259.1,218.6,257.8z"/>
				</g>
				<g id="XMLID_10829_">
					<path class="st6" d="M169.2,352.5c-13.2,9.4-56.6,12.5-69.3,4.1v-61.2v-39.4v-1l1-0.2l12.4-2.6l6.7-1.4l1.7-0.4h0l6-1.3
						l15.6,0.9h0l4.7,0.3h0l0.5,0c0,0,5.4,0.7,11.1,1.6c0.2,0.2,0.4,0.4,0.6,0.6v0c3.9,4.2,7.3,15,8.3,26.5c0.4,4.4,0.6,11,0.8,18.4
						c0,0,0,0.5,0,0.7C170,321,169.2,352.5,169.2,352.5z"/>
				</g>
				<g id="Head_14_">
					<g>
						<g id="XMLID_10821_">
							<g id="XMLID_10828_">
								<path class="st22" d="M159.1,211.8c2.8-6.4,0.1-14.8-3.3-18.8c-4.8-5.7-12.2-8.2-23.5-7.5c-8.5,0.5-17,4.1-18.6,12.9
									c-6.9,2-6.1,13.3-4.4,18.3c3.5,10.1,10.3,18.9,10.4,24L159.1,211.8z"/>
								<path class="st20" d="M159.1,235.5c-1.4,4.9-4.2,8.4-8.7,9.2c-2.7,0.4-7.1,0-7.1,0l0.2,6.2c6.1,5.2,3.8,12-0.2,18.2
									c-5-5.6-10.8-7.6-15.8-9.8c-5-2.2-7.3-7.1-7.3-7.1l-0.6-21c0,0-2.8,3.1-7.3,0.2c-3.1-2-5.4-7.3-3.1-12.1
									c2.3-4.8,6.8-2.8,8.2-1.3c1.4,1.4,3,4.2,4.2,3.8c1.8-0.6,2.3-1.7,2.8-2.9c0.8-2,1.4-4.7,1.5-9.2c1.3-0.6,2.5-1.6,3.5-2.7
									c1.9-2.2,3-4.7,3.1-7.1c9.7-3.1,20.9-1.6,25,1.5c2.3,4.1,2.4,13.6,2.8,19.1C160.5,226.5,160.2,231.5,159.1,235.5z"/>
								<path class="st21" d="M143.3,244.7c-5-0.3-15-2.6-17.7-5.4c-2.7-2.8-3.8-8.5-3.8-8.5s0.4,7.2,2.5,10.4
									c2.1,3.2,7.3,4.6,10.4,5.3c3.2,0.8,8.7,1.3,8.7,1.3L143.3,244.7z"/>
								<g>
									<path class="st6" d="M143.3,269.1c-2.6-1.6-8.4-8.1-11.2-5.1c-2.9,3-4.4,3.9-6.3,3.3c-1.9-0.6-6.1-4.7-8.8-7.7
										c-2.7-3-3.6-7.3-3.6-7.3s2.6-3.2,3.8-5.3c1.3-2.3,1-2.9,2.7-3.1l0.1,4.3c0,0,1.1,2.4,5.7,5.6
										C130.4,257,139.9,261.7,143.3,269.1z"/>
									<path class="st15" d="M143.3,269.1c-2.6-1.6-8.4-8.1-11.2-5.1c-2.9,3-4.4,3.9-6.3,3.3c-1.9-0.6-6.1-4.7-8.8-7.7
										c-2.7-3-3.6-7.3-3.6-7.3s2.6-3.2,3.8-5.3c1.3-2.3,1-2.9,2.7-3.1l0.1,4.3c0,0,1.1,2.4,5.7,5.6
										C130.4,257,139.9,261.7,143.3,269.1z"/>
									<path class="st6" d="M143.3,269.1c1.6-1.4,4.1-8,4.8-7.8c1,0.3,2.8,4.8,3.6,3.8c1.4-1.7,0.9-9.4-1.3-12.2
										c-2.2-2.7-5.3-5.8-7-6.1l0.1,4.1c0,0,1.7,3.3,1.7,6.6C145.1,259.9,143.6,266.9,143.3,269.1z"/>
									<path class="st15" d="M143.3,269.1c1.6-1.4,4.1-8,4.8-7.8c1,0.3,2.8,4.8,3.6,3.8c1.4-1.7,0.9-9.4-1.3-12.2
										c-2.2-2.7-5.3-5.8-7-6.1l0.1,4.1c0,0,1.7,3.3,1.7,6.6C145.1,259.9,143.6,266.9,143.3,269.1z"/>
								</g>
							</g>
							<g id="XMLID_10822_">
								<path id="XMLID_10827_" class="st18" d="M140.1,217.3c0,1.2-0.9,2.1-2,2.1s-2-0.9-2-2.1c0-1.2,0.9-2.1,2-2.1
									C139.2,215.2,140.1,216.2,140.1,217.3z"/>
								<path id="XMLID_10826_" class="st23" d="M137.3,210.9l-4.1,2.8c-0.7-1.2-0.4-2.7,0.7-3.5
									C135.1,209.4,136.6,209.7,137.3,210.9z"/>
								<path id="XMLID_10825_" class="st23" d="M156.9,212.8l-4.5-2.1c0.5-1.3,2-1.8,3.2-1.2S157.4,211.5,156.9,212.8z"/>
								<path id="XMLID_10824_" class="st18" d="M155.4,217.2c0,1.2-0.9,2.1-2,2.1s-2-0.9-2-2.1s0.9-2.1,2-2.1
									C154.5,215.1,155.4,216,155.4,217.2z"/>
								<polygon id="XMLID_10823_" class="st21" points="144.8,213 146.2,227.5 154,225.1 								"/>
							</g>
						</g>
					</g>
					<path id="XMLID_10820_" class="st24" d="M140.1,230.9l8.3,1.8c-0.5,2.4-2.7,3.9-5,3.4C141.2,235.6,139.7,233.2,140.1,230.9z"/>
					<path class="st25" d="M143.5,236.1c0.2,0,0.3,0,0.5,0.1c-0.1-2.1-1.8-3.8-3.9-3.8C140.4,234.2,141.6,235.7,143.5,236.1z"/>
				</g>
				<path class="st6" d="M103,288.1l-3.1,7.4v-39.4v-1C100,255.1,108.6,271.7,103,288.1z"/>
				<path class="st15" d="M103,288.1l-3.1,7.4v-39.4v-1C100,255.1,108.6,271.7,103,288.1z"/>
			</g>
			<g>
				<path class="st18" d="M160.3,224.7c0,0,2.8,0.9,5.4,2.5c2.6,1.7,2.7,4.6,1.7,6.5l-2.1-0.4c0,0,1.1-2.4-0.2-3.7
					c-1.2-1.3-4.9-2.4-4.9-2.4L160.3,224.7z"/>
				<path class="st6" d="M166.5,232.4c-1.7-0.8-2.5,0.2-3.7,3.1c-1.2,2.8-0.4,3.6,1.1,4.2s2.5-0.4,3.4-2.7
					C168.3,234.2,168.3,233.2,166.5,232.4z"/>
				<path class="st26" d="M166.5,232.4c-1.7-0.8-2.5,0.2-3.7,3.1c-1.2,2.8-0.4,3.6,1.1,4.2s2.5-0.4,3.4-2.7
					C168.3,234.2,168.3,233.2,166.5,232.4z"/>
			</g>
			<g id="XMLID_712_">
				<path id="XMLID_3448_" class="st18" d="M118.1,189c-5,4.6-9.8,11.2-6.2,26.3c-2.1,1.9-3,5.2-2.1,8.5c1.4,4.7,5.9,7.8,10,6.9
					c4.2-0.9,6.4-5.4,5.1-10.1c-1-3.5-4.8-6.9-7.9-6.7c0,0-3-6.5-0.2-15.7c3.8-12.5,18.4-13.6,24.8-12.5
					C139.5,182.8,124.7,182.9,118.1,189z"/>
				<path class="st6" d="M125.8,220.5c-1.5-5.2-6.5-8.6-11.1-7.6c-0.7,0.2-1.4,0.4-2,0.7c-0.5,0.3-2.1,1.4-2.4,1.6
					c-2.9,1.9-4.3,6-3.1,10.1c1.5,5.2,6.5,8.6,11.1,7.6c0.9-0.2,1.7-0.5,2.4-1c0.4-0.2,1.8-1.2,2.2-1.5
					C125.7,228.4,127,224.5,125.8,220.5z"/>
				<path class="st14" d="M125.8,220.5c-1.5-5.2-6.5-8.6-11.1-7.6c-0.7,0.2-1.4,0.4-2,0.7c-0.5,0.3-2.1,1.4-2.4,1.6
					c-2.9,1.9-4.3,6-3.1,10.1c1.5,5.2,6.5,8.6,11.1,7.6c0.9-0.2,1.7-0.5,2.4-1c0.4-0.2,1.8-1.2,2.2-1.5
					C125.7,228.4,127,224.5,125.8,220.5z"/>
				<path id="XMLID_725_" class="st6" d="M123.9,221.7c-1.5-5.2-6.5-8.6-11.1-7.6c-4.6,1-7.1,6-5.6,11.2c1.5,5.2,6.5,8.6,11.1,7.6
					C122.9,231.9,125.4,226.9,123.9,221.7z"/>
				<path id="XMLID_722_" class="st26" d="M123.9,221.7c-1.5-5.2-6.5-8.6-11.1-7.6c-4.6,1-7.1,6-5.6,11.2c1.5,5.2,6.5,8.6,11.1,7.6
					C122.9,231.9,125.4,226.9,123.9,221.7z"/>
				<path id="XMLID_719_" class="st17" d="M119.5,222.7c-0.7-2.4-3.1-4.1-5.2-3.6c-2.2,0.5-3.4,2.8-2.7,5.3c0.7,2.4,3.1,4.1,5.2,3.6
					C119,227.5,120.2,225.1,119.5,222.7z"/>
			</g>
		</g>
		<g id="Speech_Bubble_7_">
			<g>
				<path class="st8" d="M177.3,165.1c-0.2,0.1-0.4,0.3-0.6,0.5c-0.2,0.2-0.3,0.4-0.4,0.6c-0.1,0.2-0.2,0.5-0.2,0.7
					c0,0.2-0.1,0.5-0.1,0.7c0,0.1,0,0.3,0,0.6c0,0.2,0,0.5,0,0.7s0,0.5,0,0.7c0,0.2,0,0.4,0,0.6c0,0.2,0,0.4,0.1,0.6
					c0.1,0.2,0.1,0.3,0.2,0.4s0.2,0.2,0.4,0.2c0.2,0,0.4-0.1,0.6-0.2c0.2-0.1,0.3-0.2,0.5-0.4c0.2-0.2,0.3-0.3,0.4-0.5
					s0.2-0.4,0.3-0.7c0.1-0.3,0.1-0.5,0.1-0.9l-0.9,0.5c-0.1,0-0.1,0-0.2,0c-0.1-0.1-0.1-0.1-0.1-0.2v-1.7c0-0.1,0-0.2,0.1-0.3
					c0.1-0.1,0.1-0.2,0.2-0.2l2.5-1.4c0.1,0,0.1,0,0.2,0c0.1,0.1,0.1,0.1,0.1,0.2v2c0,0.7-0.1,1.3-0.2,1.9c-0.2,0.6-0.4,1.2-0.7,1.7
					c-0.3,0.5-0.6,1-1,1.4c-0.4,0.4-0.8,0.8-1.2,1c-0.5,0.3-0.9,0.4-1.3,0.4c-0.4,0-0.7-0.1-1-0.3c-0.3-0.2-0.5-0.6-0.6-1
					c-0.1-0.4-0.2-0.9-0.2-1.5c0-0.4,0-0.9,0-1.4c0-0.5,0-1,0-1.4c0-0.6,0.1-1.2,0.2-1.8c0.1-0.6,0.4-1.2,0.6-1.7
					c0.3-0.5,0.6-1,1-1.5c0.4-0.4,0.8-0.8,1.3-1.1c0.5-0.3,0.9-0.4,1.3-0.4c0.4,0,0.7,0.1,1,0.3c0.3,0.2,0.5,0.4,0.6,0.7
					c0.1,0.3,0.2,0.6,0.2,1c0,0.1,0,0.2-0.1,0.3c0,0.1-0.1,0.2-0.2,0.2l-1.3,0.8c-0.1,0.1-0.2,0.1-0.2,0c-0.1-0.1-0.1-0.1-0.2-0.2
					c-0.1-0.1-0.2-0.2-0.4-0.3C177.8,164.8,177.6,164.9,177.3,165.1z"/>
				<path class="st8" d="M183,167.1c0,0.2,0,0.4,0.1,0.5c0.1,0.1,0.1,0.2,0.2,0.2c0.1,0,0.2,0.1,0.3,0c0.1,0,0.2-0.1,0.3-0.1
					c0.2-0.1,0.4-0.2,0.5-0.4c0.1-0.1,0.2-0.3,0.3-0.4c0.1-0.1,0.1-0.2,0.2-0.3s0.1-0.1,0.2-0.1l1.3-0.8c0.1-0.1,0.2,0,0.2,0.2
					c0,0.1-0.1,0.3-0.2,0.7c-0.1,0.3-0.3,0.7-0.5,1.1c-0.2,0.4-0.5,0.8-0.8,1.2c-0.3,0.4-0.7,0.7-1.2,1c-0.4,0.3-0.8,0.4-1.2,0.4
					c-0.3,0-0.6-0.1-0.9-0.3c-0.2-0.2-0.4-0.6-0.5-1c-0.1-0.5-0.2-1-0.2-1.7c0-0.6,0.1-1.2,0.2-1.8c0.1-0.6,0.3-1.1,0.5-1.6
					c0.2-0.5,0.5-1,0.9-1.4c0.3-0.4,0.7-0.7,1.2-1c0.5-0.3,0.9-0.4,1.3-0.3c0.3,0.1,0.6,0.2,0.9,0.5c0.2,0.3,0.4,0.6,0.5,1.1
					s0.1,0.9,0.1,1.4v0.4c0,0.1,0,0.2-0.1,0.3s-0.1,0.2-0.2,0.2L183,167.1z M183.9,163.6c-0.3,0.2-0.5,0.4-0.6,0.8
					c-0.1,0.3-0.2,0.7-0.3,1l1.8-1.1c0-0.3-0.1-0.5-0.3-0.7C184.4,163.5,184.2,163.5,183.9,163.6z"/>
				<path class="st8" d="M190,163.1c0,0.2,0,0.4,0.1,0.5s0.2,0.1,0.3,0l0.8-0.5c0.1,0,0.1,0,0.2,0c0.1,0.1,0.1,0.1,0.1,0.3v1.6
					c0,0.1,0,0.2-0.1,0.3c-0.1,0.1-0.1,0.2-0.2,0.2l-1,0.6c-0.3,0.2-0.6,0.3-0.9,0.3c-0.3,0-0.5-0.1-0.7-0.2
					c-0.2-0.2-0.3-0.4-0.4-0.7c-0.1-0.3-0.2-0.7-0.2-1.2v-2.6l-0.8,0.4c-0.1,0-0.1,0-0.2,0c-0.1-0.1-0.1-0.1-0.1-0.3v-1.6
					c0-0.1,0-0.2,0.1-0.3c0.1-0.1,0.1-0.2,0.2-0.2l0.8-0.4v-2.5c0-0.1,0-0.2,0.1-0.3c0.1-0.1,0.1-0.2,0.2-0.2l1.3-0.7
					c0.1,0,0.1,0,0.2,0c0.1,0.1,0.1,0.1,0.1,0.2v2.5l1.1-0.7c0.1,0,0.1,0,0.2,0c0.1,0.1,0.1,0.1,0.1,0.2v1.6c0,0.1,0,0.2-0.1,0.3
					c-0.1,0.1-0.1,0.2-0.2,0.2l-1.1,0.7L190,163.1L190,163.1z"/>
				<path class="st8" d="M196.3,153.2c0,0.1,0,0.2-0.1,0.3c-0.1,0.1-0.1,0.2-0.2,0.2l-1.3,0.7c-0.1,0-0.1,0-0.2,0
					c-0.1-0.1-0.1-0.1-0.1-0.2v-1.6c0-0.1,0-0.2,0.1-0.3s0.1-0.2,0.2-0.2l1.3-0.7c0.1,0,0.1,0,0.2,0c0.1,0.1,0.1,0.1,0.1,0.2V153.2z
					 M196.3,162.2c0,0.1,0,0.2-0.1,0.3c-0.1,0.1-0.1,0.2-0.2,0.2l-1.3,0.7c-0.1,0-0.1,0-0.2,0c-0.1-0.1-0.1-0.1-0.1-0.2V156
					c0-0.1,0-0.2,0.1-0.3c0.1-0.1,0.1-0.2,0.2-0.2l1.3-0.7c0.1,0,0.1,0,0.2,0c0.1,0.1,0.1,0.1,0.1,0.2V162.2z"/>
				<path class="st8" d="M202.9,158.4c0,0.1,0,0.2-0.1,0.3c-0.1,0.1-0.1,0.2-0.2,0.2l-1.3,0.7c-0.1,0-0.1,0-0.2,0s-0.1-0.1-0.1-0.2
					v-3.9c0-0.4-0.1-0.8-0.2-1c-0.1-0.2-0.4-0.2-0.7,0c-0.3,0.2-0.5,0.4-0.7,0.8c-0.1,0.4-0.2,0.7-0.2,1.2v3.9c0,0.1,0,0.2-0.1,0.3
					c-0.1,0.1-0.1,0.2-0.2,0.2l-1.3,0.7c-0.1,0-0.1,0-0.2,0c-0.1-0.1-0.1-0.1-0.1-0.3v-7.3c0-0.1,0-0.2,0.1-0.3
					c0.1-0.1,0.1-0.2,0.2-0.2l1.2-0.7c0.1,0,0.1,0,0.2,0c0.1,0.1,0.1,0.1,0.1,0.2v0.4c0.1-0.1,0.1-0.3,0.2-0.4
					c0.1-0.2,0.2-0.3,0.3-0.5c0.1-0.2,0.2-0.3,0.4-0.4c0.2-0.1,0.3-0.3,0.5-0.4c0.3-0.2,0.6-0.3,0.9-0.3c0.3,0,0.5,0.1,0.7,0.2
					c0.2,0.2,0.3,0.5,0.5,0.8c0.1,0.4,0.2,0.9,0.2,1.5L202.9,158.4L202.9,158.4z"/>
				<path class="st8" d="M175,187.6c0,0.2,0,0.4,0.1,0.5c0.1,0.1,0.2,0.1,0.3,0l0.8-0.5c0.1,0,0.1,0,0.2,0c0.1,0.1,0.1,0.1,0.1,0.2
					v1.6c0,0.1,0,0.2-0.1,0.3s-0.1,0.2-0.2,0.2l-1,0.6c-0.3,0.2-0.6,0.3-0.9,0.3c-0.3,0-0.5-0.1-0.7-0.2c-0.2-0.2-0.3-0.4-0.4-0.7
					c-0.1-0.3-0.2-0.7-0.2-1.2v-2.6l-0.7,0.4c-0.1,0-0.1,0-0.2,0c-0.1-0.1-0.1-0.1-0.1-0.2v-1.6c0-0.1,0-0.2,0.1-0.3
					c0.1-0.1,0.1-0.2,0.2-0.2l0.7-0.4v-2.5c0-0.1,0-0.2,0.1-0.3c0.1-0.1,0.1-0.2,0.2-0.2l1.3-0.7c0.1,0,0.1,0,0.2,0
					c0.1,0.1,0.1,0.1,0.1,0.2v2.5l1.1-0.7c0.1,0,0.1,0,0.2,0c0.1,0.1,0.1,0.1,0.1,0.3v1.6c0,0.1,0,0.2-0.1,0.3
					c-0.1,0.1-0.1,0.2-0.2,0.2L175,185L175,187.6L175,187.6z"/>
				<path class="st8" d="M182.6,181.6c0,0.2,0,0.4,0,0.6c0,0.2,0,0.4,0,0.6c0,0.5-0.1,1-0.2,1.5c-0.1,0.5-0.3,1-0.6,1.5
					c-0.2,0.5-0.5,0.9-0.9,1.3c-0.3,0.4-0.7,0.7-1.1,0.9c-0.4,0.2-0.8,0.4-1.1,0.4c-0.3,0-0.6-0.1-0.9-0.3c-0.2-0.2-0.4-0.5-0.6-0.8
					c-0.1-0.4-0.2-0.8-0.2-1.3c0-0.2,0-0.3,0-0.6s0-0.4,0-0.6c0-0.5,0.1-1,0.2-1.5c0.1-0.5,0.3-1,0.6-1.5c0.2-0.5,0.5-0.9,0.9-1.3
					c0.3-0.4,0.7-0.7,1.1-0.9c0.4-0.2,0.8-0.4,1.1-0.4c0.3,0,0.6,0.1,0.9,0.3c0.2,0.2,0.4,0.5,0.6,0.8
					C182.6,180.7,182.6,181.2,182.6,181.6z M179,184.9c0,0.4,0.1,0.6,0.3,0.8c0.2,0.1,0.4,0.1,0.7,0c0.3-0.2,0.5-0.4,0.7-0.7
					c0.2-0.3,0.3-0.7,0.3-1.1c0-0.2,0-0.3,0-0.5c0-0.2,0-0.4,0-0.5c0-0.4-0.1-0.6-0.3-0.8c-0.2-0.1-0.4-0.1-0.7,0
					c-0.3,0.2-0.5,0.4-0.7,0.7c-0.2,0.3-0.3,0.7-0.3,1.1c0,0.2,0,0.3,0,0.5C178.9,184.6,178.9,184.7,179,184.9z"/>
				<path class="st8" d="M183.6,178.1c0-0.1,0-0.2,0.1-0.3c0.1-0.1,0.1-0.2,0.2-0.2l1.3-0.7c0.1,0,0.1,0,0.2,0
					c0.1,0.1,0.1,0.1,0.1,0.3v3.9c0,0.4,0.1,0.8,0.2,1c0.1,0.2,0.3,0.2,0.6,0c0.3-0.2,0.5-0.4,0.6-0.8c0.1-0.3,0.2-0.7,0.2-1.2v-3.9
					c0-0.1,0-0.2,0.1-0.3c0.1-0.1,0.1-0.2,0.2-0.2l1.3-0.7c0.1,0,0.1,0,0.2,0c0.1,0.1,0.1,0.1,0.1,0.2v7.3c0,0.1,0,0.2-0.1,0.3
					c-0.1,0.1-0.1,0.2-0.2,0.2l-1.2,0.7c-0.1,0-0.1,0-0.2,0c-0.1-0.1-0.1-0.1-0.1-0.2v-0.4c-0.1,0.1-0.1,0.3-0.2,0.4
					c-0.1,0.2-0.2,0.3-0.3,0.5c-0.1,0.2-0.2,0.3-0.4,0.4c-0.2,0.1-0.3,0.3-0.5,0.4c-0.7,0.4-1.2,0.4-1.6,0c-0.4-0.3-0.6-1.1-0.6-2.4
					L183.6,178.1L183.6,178.1z"/>
				<path class="st8" d="M191.6,176.5c0,0.2,0,0.3,0,0.6c0,0.2,0,0.4,0,0.5c0,0.4,0.1,0.6,0.3,0.7c0.2,0.1,0.4,0.1,0.6,0
					c0.2-0.1,0.4-0.3,0.5-0.4c0.1-0.2,0.2-0.4,0.3-0.6c0-0.1,0.1-0.2,0.1-0.3c0-0.1,0.1-0.2,0.2-0.2l1.3-0.8c0.1,0,0.1,0,0.2,0
					c0.1,0.1,0.1,0.1,0.1,0.3c0,0.2-0.1,0.4-0.1,0.8c-0.1,0.4-0.2,0.8-0.4,1.2c-0.2,0.4-0.5,0.9-0.8,1.3c-0.3,0.4-0.8,0.8-1.3,1.1
					c-0.4,0.2-0.7,0.3-1.1,0.4c-0.3,0-0.6-0.1-0.9-0.2c-0.2-0.2-0.4-0.4-0.6-0.8c-0.1-0.4-0.2-0.8-0.2-1.4c0-0.2,0-0.4,0-0.6
					s0-0.5,0-0.6c0-0.6,0.1-1.1,0.2-1.6c0.1-0.5,0.3-1,0.6-1.5c0.2-0.5,0.5-0.9,0.9-1.2c0.3-0.4,0.7-0.6,1.1-0.9
					c0.5-0.3,1-0.4,1.3-0.4c0.3,0,0.6,0.2,0.8,0.4c0.2,0.2,0.3,0.4,0.4,0.7c0.1,0.3,0.1,0.5,0.1,0.7c0,0.1,0,0.2-0.1,0.3
					c-0.1,0.1-0.1,0.2-0.2,0.2l-1.3,0.8c-0.1,0-0.1,0-0.2,0c0,0-0.1-0.1-0.1-0.2c-0.1-0.1-0.2-0.2-0.3-0.2s-0.3,0-0.5,0.1
					c-0.3,0.2-0.5,0.4-0.6,0.7C191.7,175.8,191.7,176.1,191.6,176.5z"/>
				<path class="st8" d="M201.5,175c0,0.1,0,0.2-0.1,0.3c-0.1,0.1-0.1,0.2-0.2,0.2l-1.3,0.7c-0.1,0-0.1,0-0.2,0
					c-0.1-0.1-0.1-0.1-0.1-0.3v-3.9c0-0.4-0.1-0.8-0.2-1c-0.1-0.2-0.4-0.2-0.7,0c-0.3,0.2-0.5,0.4-0.7,0.8s-0.2,0.7-0.2,1.2v3.9
					c0,0.1,0,0.2-0.1,0.3s-0.1,0.2-0.2,0.2l-1.3,0.7c-0.1,0-0.1,0-0.2,0c-0.1-0.1-0.1-0.1-0.1-0.2v-10.2c0-0.1,0-0.2,0.1-0.3
					c0.1-0.1,0.1-0.2,0.2-0.2l1.3-0.7c0.1,0,0.1,0,0.2,0c0.1,0.1,0.1,0.1,0.1,0.2v3.3c0.1-0.3,0.3-0.6,0.5-0.9
					c0.2-0.3,0.5-0.6,0.8-0.8c0.3-0.2,0.6-0.3,0.9-0.3c0.3,0,0.5,0.1,0.7,0.2c0.2,0.2,0.3,0.5,0.5,0.8c0.1,0.4,0.2,0.9,0.2,1.5
					L201.5,175L201.5,175z"/>
				<path class="st8" d="M204.5,169.9c0,0.1,0,0.2-0.1,0.3c-0.1,0.1-0.1,0.2-0.2,0.2l-1.3,0.7c-0.1,0-0.1,0-0.2,0
					c-0.1-0.1-0.1-0.1-0.1-0.2v-6.7c0-0.1,0-0.2,0.1-0.3c0.1-0.1,0.1-0.2,0.2-0.2l1.3-0.7c0.1,0,0.1,0,0.2,0
					c0.1,0.1,0.1,0.1,0.1,0.2V169.9z M204.5,173.3c0,0.1,0,0.2-0.1,0.3c-0.1,0.1-0.1,0.2-0.2,0.2l-1.3,0.7c-0.1,0-0.1,0-0.2,0
					c-0.1-0.1-0.1-0.1-0.1-0.2v-1.6c0-0.1,0-0.2,0.1-0.3s0.1-0.2,0.2-0.2l1.3-0.7c0.1,0,0.1,0,0.2,0c0.1,0.1,0.1,0.1,0.1,0.3V173.3z
					"/>
			</g>
			<g>
				<path class="st6" d="M170.2,209.4c-0.5,0-0.9-0.2-1.1-0.6c-0.3-0.5-0.2-1.1,0.2-1.6c1.9-1.9,3-4.6,3.5-8.1
					c-6.3-1.3-10-6.7-10-14.6c0-14,11.4-31.9,25.3-40l0,0c7.4-4.3,14.5-5.1,19.5-2.3c4.1,2.4,6.3,7,6.3,13.2c0,14-11.4,31.9-25.3,40
					c-1.9,1.1-3.9,2-5.8,2.7c-3.3,7.4-8.5,10.3-12.2,11.3C170.4,209.4,170.3,209.4,170.2,209.4z M188.6,145.2
					c-13.7,7.9-24.9,25.5-24.9,39.2c0,7.7,3.5,12.8,9.7,13.8l0.4,0.1l-0.1,0.4c-0.5,4-1.8,6.9-3.8,9c-0.2,0.2-0.2,0.4-0.1,0.6
					c0,0.1,0.2,0.3,0.5,0.2c3.6-1,8.6-3.7,11.8-11l0.1-0.2l0.2-0.1c1.9-0.6,3.9-1.5,5.8-2.7c13.7-7.9,24.9-25.5,24.9-39.2
					c0-5.9-2.1-10.3-5.9-12.5C202.6,140.2,195.8,141.1,188.6,145.2L188.6,145.2z"/>
			</g>
		</g>
	</g>
</g>
<g id="Character_1">
	<g id="Character_34_">
		<g id="XMLID_1231_">
			<g>
				<path class="st27" d="M323,396.5c-0.4,1.1-0.5,3.4-0.1,4.1c0.4,0.8,2.9,3.5,7.9,4.5s11.9,0,14.9-0.2c3-0.2,12.3,1,15.3,1.4
					c4.7,0.6,8.2-0.4,10-2.1c0.7-0.7,0.7-1.6,0.7-2.5c-0.1-2-0.3-2.4-0.5-3.3L323,396.5z"/>
				<g id="XMLID_1246_">
					<g id="XMLID_1247_">
						<path id="XMLID_1248_" class="st28" d="M370.4,393.6c0.1,0.4,0.2,0.8,0.3,1.2c0.4,1.9,0.7,4.1,0.4,6c-0.6,1.5-2.3,2.3-3.6,2.7
							c-3.5,1.1-6.2,0.9-10.1,0.2c-2.3-0.4-9-0.9-11.8-0.7c-3.1,0.2-7.3,0.8-10.3,0.5c-2.6-0.2-5.2-0.5-7.6-1.5
							c-2-0.9-4.1-2-4.6-4.1c-0.6-4.4,1.3-6.4,3.4-7.6c2.2-1.3,5.1-1.1,8.3-1.4c2.9-0.2,5-0.2,7.6-0.4c1.7-0.1,4.9-0.4,6.6-0.9
							c1.9-0.6,3.9-3.1,4.7-3.2c0,0,12.8-0.1,14.1,0c1.4,0.1,1.9,4.5,2,5.5c0.1,0.7,0.2,1.5,0.4,2.3
							C370.1,392.6,370.3,393.1,370.4,393.6z"/>
					</g>
				</g>
				<path class="st29" d="M330.8,402.9c-0.4-3.2-0.9-10.1,4.9-14.1l0.7,0c0,0-3.4-1.2-8.1,0s-6.8,5-5.6,9.1
					C322.8,397.9,323.8,401.7,330.8,402.9z"/>
				<path class="st29" d="M347.9,387.8c-1.9,1.7-2.6,5.5-2.6,5.5c-0.2,1.4-2.8,1.6-2.6,0.3c0,0,0.6-3.1,2.2-5.3
					C345,388.3,346.3,387.5,347.9,387.8z"/>
				<path class="st29" d="M342.6,388.5c0,0-2,1.7-2.7,5.2c-0.3,1.4-2.4,1.4-2.3,0c0,0,0.3-3.4,2.3-5
					C340.6,388.2,342,388.1,342.6,388.5z"/>
			</g>
			<g>
				<path id="XMLID_1244_" class="st27" d="M376.3,355.6c-0.2,2.3-0.5,4.3,0.4,6.8c1.3,3.6,4.1,5.2,5.8,6.6s3.2,3.6,4.8,5.5
					c1.6,1.9,2,3.1,4.5,5.3c2.1,1.9,5.9,2.3,8.6,1.2c2.1-0.9,2.8-1.6,2.7-4.8c-0.1-3.1-10.4-4.3-10.4-4.3L376.3,355.6z"/>
				<path id="XMLID_1243_" class="st28" d="M401.6,366.5c0.9,0.3,1.1,1.9,1.2,5c0.1,2.4,1.2,5.9-2.3,7.4c-2.8,1.2-7.2,0.4-9.1-1.8
					c-2.3-2.8-3.9-5.3-7.3-8.7c-2.9-3-5.9-4-7.2-9.9c-0.8-3.8-0.2-5.4,2.5-6.5c3.7-1.5,9.5,3.4,12.4,4.2
					C394.4,356.9,400.8,366.2,401.6,366.5z"/>
				<path id="XMLID_1242_" class="st29" d="M391.9,356.2c-0.2,0-0.3-0.1-0.5-0.2c-5.4,0.4-7.5,3.9-8,5c-0.5,1,1,1.8,1.9,1
					c2.1-3.9,6.3-4.8,8-5C392.8,356.7,392.3,356.3,391.9,356.2z"/>
				<path id="XMLID_1241_" class="st29" d="M394.3,358c-4.9,0.6-6.9,3.9-7.5,5c-0.5,1,1,1.8,1.9,1c1.6-3.1,4.7-4.3,6.7-4.8
					C395.1,358.8,394.7,358.4,394.3,358z"/>
				<path id="XMLID_1237_" class="st29" d="M378.7,362.9c0,0,0.3-7.1,10.3-8l0.6,0.3c0,0-1.6-2.8-4.9-3.6c-3.3-0.9-6,0-7.7,2.1
					S376.9,361.6,378.7,362.9z"/>
			</g>
			<g id="XMLID_1234_">
				<path id="XMLID_1235_" class="st6" d="M405.1,316.6c-1-11-1.1-18.3-1.1-18.3s0-16,0.4-31.1c0.2-8.4,0.1-14.1,0.2-20.7
					c0.2-9.7-0.9-17.7-1.7-22c0,0-51.5-10.2-52.1,8.6c-0.8,22.6-0.7,61.3-1.5,76.1c-0.5,8.3,0.3,15.2,0.9,31.3
					c0.4,13.4,0.3,46.3,0.3,46.3c5.7,7.8,19,1.8,19,1.8s4.1-46.2,4.7-55.7c0.6-10.3-0.4-15.5-0.4-15.5l5.3-47.8
					c0,0,0.4,15.3,0.9,23.6c0.5,8.3,1.1,14.7,3.1,30.2c2,16.2,5.3,45.4,5.3,45.4c6.9,4.1,14.8,0.8,14.8,0.8S406.1,328.3,405.1,316.6
					z"/>
				<path id="XMLID_1216_" class="st30" d="M405.1,316.6c-1-11-1.1-18.3-1.1-18.3s0-16,0.4-31.1c0.2-8.4,0.1-14.1,0.2-20.7
					c0.2-9.7-0.9-17.7-1.7-22c0,0-51.5-10.2-52.1,8.6c-0.8,22.6-0.7,61.3-1.5,76.1c-0.5,8.3,0.3,15.2,0.9,31.3
					c0.4,13.4,0.3,46.3,0.3,46.3c5.7,7.8,19,1.8,19,1.8s4.1-46.2,4.7-55.7c0.6-10.3-0.4-15.5-0.4-15.5l5.3-47.8
					c0,0,0.4,15.3,0.9,23.6c0.5,8.3,1.1,14.7,3.1,30.2c2,16.2,5.3,45.4,5.3,45.4c6.9,4.1,14.8,0.8,14.8,0.8S406.1,328.3,405.1,316.6
					z"/>
				<path id="XMLID_1233_" class="st31" d="M398,250.6c0,0-2.1,7.7-14.9,12.8c0,0-3.5,27.8-3.4,27.3l-0.7-21.1l1.2-8.8
					C380.2,260.8,392.2,258.2,398,250.6z"/>
			</g>
		</g>
		<g>
			<path class="st6" d="M397.1,156.8c5.1,0,9.8,1.5,13.9,14.3c4.1,12.8,7.6,29.5,8,33.6c0.4,5.4,0.2,7.7-4,11.6
				c-4.1,3.9-15,13.1-15,13.1l-3.6-15.3l8.3-9.4L397.1,156.8z"/>
			<path class="st10" d="M397.1,156.8c5.1,0,9.8,1.5,13.9,14.3c4.1,12.8,7.6,29.5,8,33.6c0.4,5.4,0.2,7.7-4,11.6
				c-4.1,3.9-15,13.1-15,13.1l-3.6-15.3l8.3-9.4L397.1,156.8z"/>
			<g>
				<polygon id="XMLID_1208_" class="st24" points="371.1,152.2 373.2,170 389.7,166.3 387.6,142.5 				"/>
				<g id="XMLID_1206_">
					<path id="XMLID_1207_" class="st32" d="M358.7,130.4c0,0-4.4,6.7-3.9,7.4c0.5,0.7,3.8,1.3,3.8,1.3L358.7,130.4z"/>
				</g>
				<g id="XMLID_817_">
					<path id="XMLID_818_" class="st18" d="M360.7,134.4c-2.8,0-5-2.2-5-5c0-2.8,2.2-5,5-5s5,2.2,5,5
						C365.7,132.1,363.4,134.4,360.7,134.4z M360.7,125.5c-2.1,0-3.9,1.7-3.9,3.9c0,2.1,1.7,3.9,3.9,3.9c2.1,0,3.9-1.7,3.9-3.9
						C364.5,127.2,362.8,125.5,360.7,125.5z"/>
				</g>
				<g id="XMLID_815_">
					<path id="XMLID_816_" class="st24" d="M371,112.8c-8.5,1.8-11.5,5.2-12.3,18.7c-0.8,14.1,1.2,18.9,3,20.8
						c1.3,1.3,8.2,1.5,11.7,0.5c4.4-1.2,14.3-4.7,19-11.8c5.5-8.4,6.9-19.7,1-24.3C385.1,110.1,374.4,112,371,112.8z"/>
				</g>
				<path class="st32" d="M371.3,153.2l-0.4-2.6c0,0-4.1,2.4-8.7,2C363.8,153.4,368,153.6,371.3,153.2z"/>
				<polygon id="XMLID_814_" class="st18" points="356.5,128.4 371.6,130.4 371,131.5 356.5,129.6 				"/>
				<g id="XMLID_700_">
					<g id="XMLID_802_">
						<g id="XMLID_805_">
							<path id="XMLID_807_" class="st18" d="M357.8,118.2c0.6,0.1,1.3,0.1,1.9-0.1c-0.6,1.2,0,2.7,1,3.5c1.1,0.8,2.5,0.9,3.8,0.5
								c-0.5,0.8-0.6,1.7-0.4,2.6c0.4,1.8,2.5,3.5,4.4,3.2c0.1,2,0.1,3.9,2.2,4.8c0,0,1.3-5.2,5.7-4.6c4.4,0.7,5,6.3,2.2,9.7
								c-2.8,3.4-5.3,2.1-5.4,2.1c0.1,0.9,0.4,1.9,0.7,2.5c0.8,1.7,2.2,3.1,3.7,4.1c2.5,1.6,6.4,2.9,10.6,2.9c1.4-4,3.6-7,6-10.5
								c1.9-2.7,4.3-5.9,5.2-9c1.1-3.8,1.1-7.5,0.1-10.6c-1-3.2-2.3-5.6-5.7-6.4c-0.8-4.2-5-6.5-8.8-8.4s-8.6-2-12.4-0.1
								c-1.4-1.5-2.5-3.3-4.5-4.2c-1.6-0.7-3.7-0.5-4.8,0.9c-0.9,1.1-0.8,2.6-0.8,4.1c-1.6-0.2-3.3-0.2-4.8,0.4
								c-1.5,0.6-2.8,1.9-3.1,3.5c-0.3,1.6,0.6,3.5,2.2,3.9c-1.1,0.7-1.5,2.2-1.1,3.4C356.1,117.5,356.9,118.1,357.8,118.2z"/>
						</g>
					</g>
					<g id="XMLID_708_">
						<g id="XMLID_734_">
							<path id="XMLID_735_" class="st18" d="M370.6,135.7l0.2-5.9c-1.6,0-3,1.2-3,2.9C367.7,134.3,369,135.7,370.6,135.7z"/>
						</g>
					</g>
				</g>
			</g>
			<path id="XMLID_1226_" class="st6" d="M405.4,164.9c-1.8-4.6-5.7-8.5-11.9-8.7c-1.4,0-4.6,0-4.6,0c-0.7,2.9-11.8,3.8-17,2
				c-2.3,0.6-13.4,3.5-15.3,4.1c-5.5,1.8-5.5,8.8-5.5,24.9c0,15.1,0,32.9-0.8,51.8c9.6,5.1,23.5,6.4,34.1,5.3
				c16.6-1.7,20.6-6.6,20.6-6.6c-0.7-9.8-0.9-16.4-0.6-26.1c0.2-7.2,1.7-16.1,2.3-23.9C407.1,179.9,407,169.2,405.4,164.9z"/>
			<path id="XMLID_1209_" class="st7" d="M405.4,164.9c-1.8-4.6-5.7-8.5-11.9-8.7c-1.4,0-4.6,0-4.6,0c-0.7,2.9-11.8,3.8-17,2
				c-2.3,0.6-13.4,3.5-15.3,4.1c-5.5,1.8-5.5,8.8-5.5,24.9c0,15.1,0,32.9-0.8,51.8c9.6,5.1,23.5,6.4,34.1,5.3
				c16.6-1.7,20.6-6.6,20.6-6.6c-0.7-9.8-0.9-16.4-0.6-26.1c0.2-7.2,1.7-16.1,2.3-23.9C407.1,179.9,407,169.2,405.4,164.9z"/>
			<g id="XMLID_1813_">
				<path id="XMLID_1843_" class="st24" d="M298.9,141.5c-0.9-2.1,0.1-5.6,0.5-7.1c0.7-2.6,0.3-6.1,0.4-7.1c0.4-2.6-1.4-3.2-2.7-1.4
					c-1.2,1.6-1.2,5.1-2.1,5.3c-0.9,0.2-3.4-6.6-4.8-10.5c-1.3-4-1.7-6.5-3.9-6c-1.6,0.4-1.5,2.4-0.7,5.7c0.8,3.2,0.9,3.6,1,4.3
					c0,0.5-0.8,0.6-1.2,0.7c-0.7,0.2-1.9,0.6-2.2,1.3c-0.2,0.4-0.3,0.8-0.5,1.1c-0.6,0.7-1.8,0.7-2.4,1.4c-0.5,0.5-0.5,1.3-0.9,1.8
					c-0.2,0.4-0.6,0.6-0.8,1c-0.5,0.7-0.3,1.7-0.1,2.5c0.9,2.9,2.4,4.8,4.2,7c1.5,1.9,3.9,4.9,4.7,6.3c2.9,4.5,13.4,21.6,18.6,28.3
					c1.1,1.4,2.1,2.7,4.5,3.4c6,1.6,42.6,4.8,42.6,4.8c10.6,0.2,14.3-19.1,5.3-20.1c0,0-7.3-0.2-16.1-0.3
					c-9.4-0.1-25.1-0.5-25.1-0.5S299.6,143.2,298.9,141.5z"/>
				<path class="st6" d="M359,162.4c-5.4-0.2-41.2,0.1-41.2,0.1l-14.9-15.9c0,0-2.5,6.7-10.8,8.3c0,0,6.5,11.8,10.2,17.2
					c3.4,5,4.2,7.6,9.5,8.6c5.3,1,38.9,4.9,41.8,4.8s7.7-0.6,10.7-9.1C366.9,169,364.5,162.7,359,162.4z"/>
				<path class="st10" d="M359,162.4c-5.4-0.2-41.2,0.1-41.2,0.1l-14.9-15.9c0,0-2.5,6.7-10.8,8.3c0,0,6.5,11.8,10.2,17.2
					c3.4,5,4.2,7.6,9.5,8.6c5.3,1,38.9,4.9,41.8,4.8s7.7-0.6,10.7-9.1C366.9,169,364.5,162.7,359,162.4z"/>
			</g>
		</g>
	</g>
</g>
</svg>
