<svg id="Layer_1" data-name="Layer 1" xmlns="http://www.w3.org/2000/svg" viewBox="0 0 2278 2000"><defs><style>.cls-1{fill:#fff;}.cls-2{fill:#cae1f9;}.cls-3{fill:#9bc1f9;opacity:0.2;}.cls-4{fill:#3c8f7c;}.cls-5{fill:#50bfa5;}.cls-6{fill:#96d9c9;}.cls-7{fill:#256653;}.cls-8{fill:#327f6b;}.cls-9{fill:#b75742;}.cls-10{fill:#f47458;}.cls-11{fill:#fcf5eb;}.cls-12{fill:#184655;}.cls-13{fill:#12353d;}.cls-14{fill:#f7a491;}.cls-15{fill:#f7cc7f;}.cls-16{fill:#e25a44;}.cls-17{fill:#355389;}.cls-18{fill:#466eb6;}.cls-19{fill:#f79c8d;}.cls-20{fill:#f48c7f;}.cls-21{fill:#3cb4c5;}.cls-22{fill:#f8a492;}.cls-23{fill:#fe875e;}.cls-24{fill:#13375b;}.cls-25{fill:#0e2e35;}.cls-26{fill:#eab765;}</style></defs><rect class="cls-1" width="2278" height="2000"/><path class="cls-2" d="M969.25,687.7c-15.17-10.09-30.7-19.65-45.66-30-2.73-1.9-5.17-6.79-4.88-10,1.81-21,4.84-41.94,6.51-63,.49-6.12,1.85-9.33,7.71-11.67,20.62-8.22,41-17,61.49-25.59,3.32-1.39,6.59-2.9,12.31-5.43-10-31.44-19.92-62.53-30.07-94.4-26.39,5.42-50.46,10-74.31,15.48-8.4,2-13,1-18.47-6.76-11.19-15.88-24.58-30.2-36.61-45.51-1.85-2.35-2.66-7.1-1.62-9.86,8-21.06,15.93-42.18,25.16-62.7,4.43-9.85,2.15-15.12-6.68-19.63-3.39-1.73-6.16-4.69-9.21-7.09L809.2,287.29a31.68,31.68,0,0,1-5.72-1.15c-18.58-7.45-15-7.32-25.42,8.21C765.36,313.28,753,332.42,742.13,349l-82.36-7.14c-10.53-25.1-21.55-51.33-32.63-77.73-33.4,4.72-64,15.45-94.1,30C538.42,320,543.61,345.3,549,370.58c1,4.54.71,7.29-3.72,10.65-17.34,13.15-34.37,26.77-50.77,41.07-4.72,4.13-7.78,4.17-12.9,2.06-21.13-8.73-42.47-17-63.65-25.59-5.26-2.15-8.65-2-12.5,3.19-17.27,23.13-29,49-38.54,76-1.9,5.34.68,7.63,4.73,10.22,18.7,12,37.11,24.41,55.9,36.26,5.41,3.41,7.08,6.37,6.05,13.34-3.56,24.09-5.72,48.38-8.63,74.55l-74.59,31.31c4.67,34,14,65.51,29.31,95.47L460.4,721.9c15.69,17.84,29.84,34.8,45,50.77,5.74,6,6.78,10.6,3.5,18.13-8.75,20.05-16.71,40.43-24.79,60.77-1.59,4-4.76,8.7,1.52,12q38.31,19.9,76.6,39.81c5.43,2.82,8.83,1,12.07-4.14,12.06-19,24.95-37.56,36.68-56.8,4.52-7.42,9.44-7.73,17.12-6.75,19,2.42,38.06,4.47,57.14,4.78,8.22.13,11.25,2.25,14.07,9.54,9.08,23.44,19.07,46.51,28.51,69.24,20.38-.14,75.77-17.91,95.69-30.47-5.41-25-10.61-50.28-16.52-75.43-1.48-6.29.37-9,5.16-12.83,15.47-12.34,30.06-25.77,45.41-38.26,2.58-2.11,7.84-3.29,10.81-2.15,18.87,7.24,37.49,15.14,56.11,23,10.4,4.41,14.58,6.24,18.55,3.54L986,705.52C986.05,698.94,981.52,695.87,969.25,687.7ZM807.53,660.44a148.54,148.54,0,0,1-200.76,61.83h0a148.53,148.53,0,0,1-61.83-200.76h0A148.54,148.54,0,0,1,745.7,459.68h0a148.54,148.54,0,0,1,61.83,200.76Z"/><path class="cls-3" d="M1577.78,584.08c-5.56-3.71-11.26-7.22-16.76-11a4.85,4.85,0,0,1-1.79-3.69c.67-7.71,1.78-15.39,2.39-23.11.18-2.25.68-3.43,2.83-4.29,7.57-3,15.06-6.24,22.57-9.39,1.22-.51,2.42-1.07,4.52-2-3.67-11.54-7.31-23-11-34.65-9.69,2-18.53,3.66-27.28,5.68-3.09.72-4.77.37-6.78-2.48-4.11-5.83-9-11.08-13.44-16.7a4.4,4.4,0,0,1-.6-3.62c2.93-7.74,5.85-15.49,9.24-23,1.63-3.62.79-5.55-2.45-7.21a21.9,21.9,0,0,1-3.38-2.6L1519,437.09a11.32,11.32,0,0,1-2.1-.42c-6.81-2.74-5.5-2.69-9.33,3-4.66,6.95-9.2,14-13.19,20.05l-30.23-2.62-12-28.54c-12.26,1.74-23.51,5.68-34.54,11,2,9.53,3.88,18.82,5.85,28.1.36,1.66.26,2.67-1.37,3.9-6.36,4.83-12.61,9.83-18.63,15.08-1.74,1.52-2.86,1.53-4.74.76-7.76-3.21-15.59-6.23-23.36-9.4-1.93-.78-3.18-.72-4.59,1.18-6.34,8.49-10.64,18-14.15,27.87-.69,2,.25,2.81,1.74,3.76,6.86,4.39,13.62,9,20.52,13.31,2,1.25,2.6,2.34,2.22,4.89-1.31,8.85-2.1,17.76-3.17,27.37l-27.38,11.49a108.52,108.52,0,0,0,10.76,35l29.64-6.3c5.75,6.55,11,12.77,16.53,18.64,2.1,2.21,2.49,3.89,1.28,6.65-3.21,7.36-6.13,14.85-9.1,22.31-.58,1.47-1.74,3.19.56,4.39l28.12,14.62c2,1,3.24.35,4.43-1.53,4.43-7,9.16-13.78,13.46-20.84,1.66-2.73,3.47-2.84,6.29-2.48a191.67,191.67,0,0,0,21,1.75c3,.05,4.13.83,5.17,3.5,3.33,8.61,7,17.08,10.47,25.42,7.48,0,27.81-6.57,35.12-11.18-2-9.17-3.9-18.46-6.06-27.69-.55-2.31.13-3.31,1.89-4.71,5.68-4.53,11-9.46,16.67-14.05a4.8,4.8,0,0,1,4-.79c6.93,2.66,13.76,5.56,20.59,8.46,3.82,1.62,5.36,2.29,6.81,1.3l15.76-29.78C1584,588.2,1582.29,587.07,1577.78,584.08Zm-59.36-10a54.53,54.53,0,0,1-73.7,22.7h0a54.52,54.52,0,0,1-22.69-73.7h0a54.52,54.52,0,0,1,73.69-22.7h0a54.53,54.53,0,0,1,22.7,73.7Z"/><path class="cls-4" d="M613.38,1616.06s-284.94-140.49-333.95-213.77,23-77.43,23-77.43S175.31,1201.2,193.2,1149.13s83.76-4.31,83.76-4.31-81.76-182-43.21-200.3c71.8-34.08,172.54,161.75,172.54,161.75s-21.65-85.07,27.8-82.31c74.57,4.17,71.49,196.6,71.49,196.6s8.42-73.78,53.36-49.81C639.58,1213.75,613.38,1616.06,613.38,1616.06Z"/><path class="cls-5" d="M575.17,1141c-35.1-19.47-70,37.45-70,37.45s3.54-150.3-71-154.47c-49.45-2.76-27.8,82.31-27.8,82.31S305.55,910.44,233.75,944.52l380,668.42C616.39,1566.26,644.69,1179.56,575.17,1141Z"/><path class="cls-4" d="M606,1617.8s-233,29-293.38,3.15-17.1-57.65-17.1-57.65S166,1537.83,156,1498.09s49.78-36.57,49.78-36.57S81.51,1381.07,98.12,1354c30.94-50.43,173.35,30.78,173.35,30.78s-48.07-44.27-16.11-62.63c48.21-27.7,124.48,93.57,124.48,93.57s-4.74-29.89,33-33.2C480.65,1376.56,606,1617.8,606,1617.8Z"/><path class="cls-5" d="M414.4,1360.79c-37.77,3.31-34.56,54.92-34.56,54.92S302.19,1272,254,1299.65c-32,18.37,5.85,78.7,5.85,78.7S129.06,1303.56,98.12,1354l508.6,262.52C589.43,1586.31,477.71,1355.23,414.4,1360.79Z"/><path class="cls-5" d="M1946,1277.46l12.52-30.25c9.71-22.25,34.56-32.87,55.51-23.73h0c52.78,23,75.72,87.17,51.25,143.23l-17.89,41c-7.84,18-5.11,37.71,5.46,51.64,9.6,12.65,11.17,30.24,4.51,45.49l-9.44,21.61a85.92,85.92,0,0,1-53.65,47.87,52.11,52.11,0,0,0-32.39,29.27l-13.36,30.6c-14.77,33.83-52.55,50-84.4,36.08l-18.17-7.93c-31.84-13.9-45.69-52.59-30.92-86.42h0c23.88-40.45,22-70.64,13.51-91.12a122.49,122.49,0,0,1,1.17-95.58l1.88-4.32a121.64,121.64,0,0,1,74.31-67.25C1920.37,1313.06,1935.4,1301.84,1946,1277.46Z"/><path class="cls-6" d="M1121.48,1875c-33.82-43.85-219.31-278.81-340.26-318-133.5-43.22-7.68,128.43-7.68,128.43s-236.83-259-323.74-235.62c-79.66,21.4,0,181.92,0,181.92s-89.72-88.89-198.54-88.89c-105.9,0,74,315.25,83.69,332.12Z"/><path class="cls-7" d="M2120.63,934.4s-34.14,44.08-54.25,61.37-39.26,33.86-64.89,88.89-24.89,61.33-31.7,75.5-42.57,69.67-45.27,80.74-61.1,64.12-79.17,91.1-47.72,64.63-51.61,86.4l5.28-.11s15.72-49.22,62-91.88,43.61-53.39,88.89-70.31,87.33-83,87.33-83,58.07-68.86,65.66-109.91S2129.65,988,2120.63,934.4Z"/><path class="cls-7" d="M2085.19,846.15s-8.85,32.11-23.79,48.94-26.66,26.43-33.41,46.82-25.8,72.58-61,92-57.26,97.15-85,115.76-34.59,35-40,76.74-4.59,101.45-53.94,167.71l-3-20s37.14-55.32,39.83-92.14-4.24-95,8.85-119.1-12.15-35.26,12.8-70.5,21.57-50.29,51-78.92c0,0,2.59-1.06,14.9-28.22s70.35-68.7,95.63-81.59S2070.5,869.28,2085.19,846.15Z"/><path class="cls-4" d="M1961.74,986.63s-35.4,37.46-42.25,65.28-9.11,51.22-30.8,86.46-1.89,65.3-14.13,84.69-18.61,44.24-22.79,63.24-48,74.88-59.82,105.59-6.16,32.13-6.16,32.13,14.59-40.78,24.53-53.07,41.51-55.31,50.58-72.69,24.79-26.22,43.24-54.93,40.46-51.38,49.57-96.08S1991.61,1059.83,1961.74,986.63Z"/><path class="cls-4" d="M1809.37,1398.85s24.61-52.28,75.68-46.19,78,22.73,122.55-9.29,79.79-91,93.59-99.42c0,0-15.56-13.21-51.34,7.43s-61.25,36.68-82,48.72-32.12-1.61-52.54,4.76c-17.1,5.34-42.51,26.35-54.19,37.74a61.43,61.43,0,0,1-12.63,9.53c-4.19,2.39-9.21,5.33-12.51,7.59-6.61,4.52-30.52,38.43-30.52,38.43Z"/><path class="cls-4" d="M1794.08,1385.06s33.2-63.21,29.1-98.87-35.23-68.59-28.94-88.93,42.91-70.75,33.33-116.85c0,0-16,35.43-25.09,42s-66.44,28.36-67.88,74.39,44.33,67.51,53.19,83.22,24.87,19.41,23,28-6.06,40.66-18.56,70.32Z"/><path class="cls-8" d="M1823.74,1344.49l41.17-65.28s27.76-53.75,47.23-99.43,49.6-193.15,49.6-193.15-35.4,37.46-42.25,65.28-9.11,51.22-30.8,86.46-1.89,65.3-14.13,84.69-18.61,44.24-22.79,63.24-48,74.88-59.82,105.59c-6.48,16.82-7.7,24.84-7.49,28.67C1787,1391.88,1823.74,1344.49,1823.74,1344.49Z"/><path class="cls-8" d="M1955,1330.43c-23-.73-42.33-6.8-73,6.56a224,224,0,0,0-50.81,30.55s-16.61,18.24-24,28.17l-1.73,2.44,3.89.7s24.61-52.28,75.68-46.19,78,22.73,122.55-9.29,79.79-91,93.59-99.42c0,0-44.19,20.4-73.3,40.79S1978,1331.15,1955,1330.43Z"/><path class="cls-8" d="M1802.48,1122.42c-9.14,6.58-66.44,28.36-67.88,74.39s44.33,67.51,53.19,83.22,24.87,19.41,23,28-6.06,40.66-18.56,70.32l.82,2.91c5.4-11.46,13.28-29,17.7-42.64,7.18-22.2,5.69-32.42,2.68-52.46s-39.54-67.9-46.31-90.18,34.05-47.39,45.1-61.53,15.38-54.09,15.38-54.09S1811.62,1115.84,1802.48,1122.42Z"/><path class="cls-6" d="M1189.89,1875c33.82-43.85,219.31-278.81,340.26-318,133.5-43.22,7.67,128.43,7.67,128.43s236.84-259,323.74-235.62c79.67,21.4,0,181.92,0,181.92s89.73-88.89,198.55-88.89c105.9,0-74,315.25-83.69,332.12Z"/><path class="cls-7" d="M594.75,1873.68a1950.06,1950.06,0,0,0-395.89-401.13c-1.56-1.18-3.67,1.54-2.1,2.74a1948.26,1948.26,0,0,1,389.77,400.59Z"/><path class="cls-7" d="M286.09,1604.18c3.61-2.56,13-12.29,25.47-15.33,11.83-4,26.79-1.32,26.28-1,.31.71-9.86-10.85-25.73-14.2-15.25-4.46-36.21-.72-43.05,5.33-15.55,10.52-16.79,28.39-9.09,31.7C267.63,1614.22,277.85,1609.35,286.09,1604.18Z"/><path class="cls-7" d="M222.42,1548.09c3.62-2.56,13-12.28,25.48-15.33,11.83-4,26.79-1.32,26.27-1,.31.71-9.85-10.84-25.72-14.2-15.25-4.45-36.21-.71-43.06,5.34-15.54,10.51-16.78,28.38-9.08,31.7C204,1558.13,214.19,1553.27,222.42,1548.09Z"/><path class="cls-7" d="M393.24,1579.27c-3.39,2.11-15.44,6.35-21,16-6.42,8.67-6.33,22.72-5.89,22.41.7.55-9.7-12.89-10.35-28-1.93-15,5.9-31.7,13.59-35.23,14-9.28,33.23-3.22,35.34,4.79C407.29,1567.26,400.25,1574.19,393.24,1579.27Z"/><path class="cls-7" d="M409.72,1378.83a1560.81,1560.81,0,0,1,207.76,497.36l6.63-1.78a1570.62,1570.62,0,0,0-207-493.16c-22.45-35.08-46.69-76.71-88.73-90.39-.81-.27-1.12,1-.34,1.26C366.47,1306.59,388.71,1346,409.72,1378.83Z"/><path class="cls-7" d="M400.87,1285.11c-2.49,3.67-12,13.22-14.83,25.77-3.76,11.91-.79,26.82-.47,26.3.72.29-11-9.64-14.7-25.45-4.75-15.15-1.43-36.18,4.48-43.15,10.21-15.74,28-17.34,31.52-9.7C410.54,1266.46,405.88,1276.78,400.87,1285.11Z"/><path class="cls-7" d="M377.72,1420c3.62-2.56,13-12.29,25.48-15.34,11.83-4,26.79-1.31,26.27-1,.31.72-9.85-10.84-25.72-14.2-15.25-4.45-36.21-.71-43.06,5.34-15.54,10.52-16.78,28.39-9.08,31.7C359.27,1430.05,369.49,1425.18,377.72,1420Z"/><path class="cls-7" d="M412.66,1479.13c3.61-2.56,13-12.29,25.47-15.33,11.83-4,26.79-1.32,26.28-1,.31.71-9.86-10.84-25.73-14.2-15.25-4.46-36.2-.72-43.05,5.33-15.54,10.52-16.79,28.39-9.09,31.7C394.2,1489.17,404.43,1484.3,412.66,1479.13Z"/><path class="cls-7" d="M449.75,1352c-3,3.23-14,11.16-18.7,23.11-5.6,11.17-5,26.36-4.61,25.89.66.41-9.38-11.26-10.51-27.44-2.31-15.72,4.29-36,11.23-41.9,12.56-13.94,30.43-12.71,32.65-4.62C462.25,1335.12,456,1344.57,449.75,1352Z"/><path class="cls-7" d="M501.12,1419.06c-4.32,2.29-19.42,6.45-27,17.75-8.6,10.06-9.69,27.26-9.12,26.91.81.74-10.76-16.59-10.26-35.14-1.07-18.53,9.93-38.28,19.63-41.94,18-10.16,40.94-1.1,42.83,8.88C519.35,1405.57,510.13,1413.45,501.12,1419.06Z"/><path class="cls-7" d="M555.19,1520.61c-4.65,1.53-20.23,3.09-29.62,13-10.17,8.47-14.14,25.24-13.52,25,.68.86-7.82-18.17-4.21-36.37,2.07-18.45,16.24-36.07,26.41-38,19.42-7,40.54,5.81,40.73,16C575.42,1510.38,565,1516.59,555.19,1520.61Z"/><path class="cls-7" d="M311.91,1308.89c2-1.67,7.14-7.84,14.39-10.18,6.83-2.89,15.8-2,15.51-1.74.21.41-6.31-6-15.85-7.28-9.21-2-21.44,1.17-25.23,5-8.73,6.91-8.69,17.53-4,19.15S307.26,1312.31,311.91,1308.89Z"/><path class="cls-7" d="M331.31,1265.74c-.09,2.62-1.85,10.43.72,17.62,1.88,7.16,8.09,13.7,8.09,13.33.45-.07-8.59-1.34-15.43-8.1-7.19-6.1-12.18-17.7-11.42-23.06.14-11.14,8.58-17.59,12.73-14.85S331.18,1260,331.31,1265.74Z"/><path class="cls-7" d="M176.58,1491c2-1.67,7.14-7.83,14.39-10.18,6.83-2.88,15.8-2,15.51-1.74.21.41-6.31-6-15.84-7.27-9.22-2-21.45,1.16-25.24,5-8.73,6.9-8.69,17.53-4,19.15S171.93,1494.38,176.58,1491Z"/><path class="cls-7" d="M200,1447.44c-.3,2.61-2.7,10.25-.72,17.62,1.29,7.29,6.94,14.32,7,14,.46,0-8.45-2-14.72-9.34-6.66-6.66-10.68-18.63-9.49-23.92,1-11.08,10-16.82,13.91-13.75S200.33,1441.68,200,1447.44Z"/><path class="cls-7" d="M220.8,1737.77c98.8,10.83,190.83,54.44,279.41,97,59.74,28.68,56.73,36.85,68.9,41.12a2.44,2.44,0,0,0,3-3.34c-4.68-9.28-17-15.55-25.49-20.88a328.92,328.92,0,0,0-30.87-16.81c-22.54-10.95-45.68-20.8-68.67-30.79-46.75-20.31-94.27-39.42-143.67-52.36A505.61,505.61,0,0,0,220.86,1737a.41.41,0,0,0-.06.81Z"/><path class="cls-7" d="M301.39,1705.85c-.64,4.05-4.86,15.82-2.26,27.45,1.55,11.47,9.92,22.79,10,22.22.72,0-13.05-3.72-22.36-15.52-10-10.83-15.48-29.76-13.27-37.94,2.35-17.22,16.67-25.6,22.59-20.56S302.3,1696.89,301.39,1705.85Z"/><path class="cls-7" d="M388.44,1737c-.65,4-4.87,15.82-2.26,27.45,1.54,11.46,9.91,22.78,10,22.22.72,0-13-3.73-22.36-15.52-10-10.83-15.47-29.77-13.26-37.94,2.34-17.23,16.66-25.6,22.58-20.57S389.35,1728.06,388.44,1737Z"/><path class="cls-7" d="M476.88,1776.44c-.64,4-4.86,15.82-2.26,27.45,1.54,11.47,9.92,22.79,10,22.22.72,0-13.05-3.72-22.36-15.52-10-10.83-15.48-29.76-13.27-37.94,2.35-17.22,16.67-25.6,22.59-20.57S477.79,1767.48,476.88,1776.44Z"/><path class="cls-7" d="M275.41,1787.18c1.78-3.35,5.24-14.38,13.65-21.49,7.54-7.59,20-11.26,19.76-10.81.51.43-11.7-4.54-25.15-1-13.38,2.42-28,13.3-30.94,20.55-7.89,14-2,28.17,5.16,27.76C265.1,1801.93,271.08,1794.29,275.41,1787.18Z"/><path class="cls-7" d="M366,1819.22c1.79-3.34,5.24-14.37,13.65-21.49,7.54-7.58,20-11.25,19.76-10.8.51.42-11.7-4.54-25.15-1-13.38,2.42-28,13.3-30.94,20.56-7.89,14-2,28.17,5.16,27.76C355.64,1834,361.62,1826.34,366,1819.22Z"/><path class="cls-7" d="M206.45,1754.19c1.57-1.87,5.2-8.34,11.42-11.69,5.73-3.77,14.06-4.43,13.83-4.18.26.34-6.75-4.39-15.65-4-8.73-.24-19.35,4.66-22.15,8.82-6.8,7.75-5,17.43-.43,18.12S202.79,1758.08,206.45,1754.19Z"/><path class="cls-7" d="M216.9,1711.62c.36,2.41.07,9.82,3.61,15.93,2.92,6.22,9.67,11.13,9.6,10.8.4-.15-8,.22-15.41-4.8-7.57-4.35-14.06-14.08-14.26-19.1-1.75-10.16,4.87-17.45,9.11-15.66S215.82,1706.39,216.9,1711.62Z"/><circle class="cls-9" cx="1154.1" cy="1176.35" r="699.58" transform="translate(-493.77 1160.62) rotate(-45)"/><circle class="cls-10" cx="1154.1" cy="1176.35" r="637.96" transform="translate(-493.77 1160.62) rotate(-45)"/><circle class="cls-11" cx="1154.1" cy="1176.35" r="536.47" transform="translate(-493.77 1160.62) rotate(-45)"/><circle class="cls-10" cx="1154.1" cy="1176.35" r="403.26" transform="translate(-493.77 1160.62) rotate(-45)"/><circle class="cls-11" cx="1154.1" cy="1176.35" r="286.36" transform="translate(-493.77 1160.62) rotate(-45)"/><path class="cls-9" d="M1227.13,1176.35a73,73,0,1,1-73-73A73,73,0,0,1,1227.13,1176.35Z"/><polygon class="cls-12" points="1602.44 813.89 1599.85 766.45 1760.45 640.83 1752.06 709.52 1594.66 832.63 1602.44 813.89"/><polygon class="cls-13" points="1614.32 829.87 1659.73 843.81 1820.34 718.19 1751.65 709.79 1594.26 832.9 1614.32 829.87"/><path class="cls-12" d="M1148.62,1182.4h0a10.73,10.73,0,0,0,15.07,1.84l452.48-353.91-13.23-16.9-452.47,353.91A10.73,10.73,0,0,0,1148.62,1182.4Z"/><path class="cls-14" d="M1823.75,1313.8c0,4.54,1.7,8.21,3.79,8.21s3.79-3.67,3.79-8.21-1.7-8.21-3.79-8.21S1823.75,1309.27,1823.75,1313.8Z"/><path class="cls-14" d="M1788.08,1846.23c1-7.07,1.3-17.93,1.19-30.46H1814c-2.57,17.75-4.59,31.56-4.59,31.56l.62,5.61v16.56h-54.16a244.14,244.14,0,0,0,27.57-15.33A11.08,11.08,0,0,0,1788.08,1846.23Z"/><path class="cls-14" d="M1893.68,1842.07l-7.2-20.63h18.85c1,13.24,1.34,22.18,1.34,22.18l4.79,13.56,4.87,16.12s-16,4.13-24.44-.51l.93-16Z"/><path class="cls-15" d="M1795.91,1393.74c6.53-8.94,33.5-34.82,36.5-34.77,8.73.15,37.4.16,43,3l-.27,49.27c-.91,4.14-20.7,68.56-19.55,82.67l-.14.13a39.66,39.66,0,0,1-57.92-2.79h0a324.61,324.61,0,0,0-2.27-37.37C1791.6,1426,1779.67,1415.93,1795.91,1393.74Z"/><path class="cls-14" d="M1841.2,1331.23s-.76,18.18.87,25.07,3.81,7.42-10.2,9.51c-5.51.83-10.82,2.06-10.82,2.06s1.44-10.13,1.66-14.4c.35-7-1.62-28.76-1.62-28.76Z"/><path class="cls-10" d="M1830.52,1340.28a25,25,0,0,1-8.06,2.86c-.48-8.58-1.37-18.43-1.37-18.43l19.18,6.22A25.2,25.2,0,0,1,1830.52,1340.28Z"/><path class="cls-16" d="M1892.83,1856.68c7.39,3.29,15.36,1.31,18.56.25l1.07,2.87,4.07,13.6s-16.23,4-24.64-.61Z"/><path class="cls-16" d="M1810.63,1873.62h-56.31c-2.08-.19-2.59-1.9-1.87-2.94,1.49-2.16,8.06-3.75,15.44-7.19,12.95,1.36,40.13-7.58,42.18-10.58C1811.25,1858.92,1811.79,1873.36,1810.63,1873.62Z"/><path class="cls-17" d="M1814.9,1494.86l33,234.77,30,108.24h32.7s-7.59-87.21-23.85-118.1c0,0-7.11-82.79-14.21-133.42-1.06-7.57,4.19-27.21,2.82-32.29-10.54-39-19.82-60.14-19.82-60.14Z"/><path class="cls-18" d="M1835.3,1596.37l-7.64,90.18s7.81,51.54,2.45,85.74-12.46,65.58-12.46,65.58H1787.6l-6-170.3s-11.56-92.54-7.56-117.64,23.46-58.67,23.46-58.67l47.28,2.16s12.82,45.94,10.65,61.36C1853.85,1566.23,1835.3,1596.37,1835.3,1596.37Z"/><path class="cls-12" d="M1881.78,1441.69c35.73-10.72,26.17-42.22,26-41,.1-1,3.47-4.94,5.13-8.33,6.94-14.13-2.21-31.13-12.7-37,7-18,0-35.18-13-42.36a52.67,52.67,0,0,1-16.64-14.74c-9.91-13.23-27.94-26.54-49.62-22.2-21.45,5.49,7.27,17.92,4.43,38.55-1.44,10.46,2.7,9,9.16,17.37-9.3,16.35-3.93,43.79,10.34,56.24C1837.82,1417.64,1845.32,1452.64,1881.78,1441.69Z"/><path class="cls-12" d="M1855.23,1297.7c4.23,17.41-18.62,30-36.71,30.51-11.76.3-17.16-.91-19.06-13.3-3.08-20.09,5.19-32.34,16.79-37.41C1831.22,1271,1851.75,1283.34,1855.23,1297.7Z"/><path class="cls-14" d="M1828.67,1286a23.74,23.74,0,0,1,12.19,10.7c4.24,8,2.13,33.75-15.51,42.23s-25.74-10.78-24.46-25S1807.28,1281.13,1828.67,1286Z"/><path class="cls-1" d="M1817.65,1325.57l-12.52-.19s.22,4.84,5.72,5.09C1817.56,1330.77,1817.65,1325.57,1817.65,1325.57Z"/><path class="cls-12" d="M1847.13,1316.15c2.61-13.28,1.58-23.36-7.86-28.22s-17.51-9.68-26-.94l-1.91,1.07s15.95,4.41,16.84,12.88,9.36,18.53,8.06,22.69-2.81,12.45-2.81,12.45l3.49-2.87S1844.52,1329.44,1847.13,1316.15Z"/><path class="cls-14" d="M1830.69,1311.07c-1.31,3.67-.32,7.35,2.23,8.23s5.67-1.39,7-5.06.32-7.36-2.22-8.23S1832,1307.4,1830.69,1311.07Z"/><path class="cls-15" d="M489.87,1627.6H652.28l-38.76,246.57h16.75L848.87,483.48H832.12l-3.3,20.95H666.09l3.28-20.95H652.62L433.81,1874.17h16.75ZM768.48,888.32l-26.81,170.56H579.1l26.76-170.56ZM608.09,874.07,634.85,703.5H797.53L770.72,874.07Zm131.34,199.07L712.62,1243.7H550.1l26.76-170.56Zm-29,184.82-26.81,170.56H521.11L547.87,1258Zm116.2-739.27L799.77,689.25H637.09l26.76-170.56ZM492.11,1613.34l26.76-170.56H681.33l-26.81,170.56Z"/><path class="cls-19" d="M1181.74,254c-.17.63-1.53,4.91-3.6,11.28l21.72,4.38c.23-3.55.45-6.52.71-8.68,1.78-15.06,8.86-19.15,12.5-27.52s17.78-13.67,16-16.51-14.9,8.66-18.06,7.42,11.26-18.51,9.52-20.82c-3.19-4.24-16.9,18.13-18.51,16.28s11.42-25.46,6.2-25.76-11,25.56-13.73,24.42,7.58-23.82,2.33-27.21c-2.8-1.81-12.76,40.37-17.19,42.81s-10.7-14.2-14.93-12.79S1182.48,251.38,1181.74,254Z"/><path class="cls-19" d="M979.52,164.33c-.1.64-.63,5.1-1.38,11.76l-21.59-5c1.26-3.33,2.28-6.13,2.94-8.19,4.58-14.47-.18-21.11,0-30.24s-10.56-19.78-7.8-21.65,10,14,13.4,14.22-2.62-21.52-.09-22.9c4.66-2.55,7.92,23.49,10.15,22.47s.1-27.91,5-26-.52,27.82,2.45,27.91,2.91-24.83,9.09-25.75c3.3-.49-5,42-2,46.09s15.6-8.52,18.87-5.49S979.92,161.65,979.52,164.33Z"/><path class="cls-15" d="M1202.46,263.22s-25.87-6.19-26.12-4.11c-5.44,45.52-7.88,62-8.8,62.45-3.14,1.62-44.71-36.4-52.12-39-3.55-1.24-7.4-1-11.1-.92-8.82.26-10.56.29-10.56.29l-.32,0,0,8.3c9.94,8.93,32.68,144.32,34.6,144.23,2.14-.1,47.09,11.21,46.3,7.42-.13-.61-30.48-25.44-39.09-61.28-2.89-12-4.31-25-5.88-36.33,10,5,49,24.21,55.18,21.67C1203.82,358.1,1202.46,263.22,1202.46,263.22Z"/><path class="cls-14" d="M1279.87,503.6s41.83,32.76,43.22,38.57c2,8.36,40.31-2.63,31.07-4.34-2.12-.39-8.92-2.11-9.48-2.41-3-1.6-40.21-46.44-40.21-46.44Z"/><path class="cls-15" d="M1372.12,537.83l-26.7-2.17s-7.63,6.32-22.3,6.61a34.08,34.08,0,0,0-1.23,14.53c.19,1.36.42,5.44,1.78,5.35,4.93-.34,18.08-3.61,33-6.6,0,0,20.13-4.27,31.75-11.22S1372.12,537.83,1372.12,537.83Z"/><path class="cls-17" d="M1092.49,421.43a182.92,182.92,0,0,0,64.49-2.78c39.2-9.17,82.53-17.65,95.23-10.27,10.22,5.95,74,102.39,74,102.39l-24.65,18-70.28-78.7s-89.66,33.08-109.8,29.42C1075.67,471.13,1075,434.5,1092.49,421.43Z"/><path class="cls-14" d="M1188.24,568.3s-1.86,50.59-3,59.15,21.47,34.22,18.58,25.28c-.67-2.05-2.38-8.86-2.38-9.49,0-3.39,8.39-61.09,8.39-61.09Z"/><path class="cls-15" d="M1218.26,671.16,1201.56,644s-9.18-3.72-16.42-16.48a34.25,34.25,0,0,0-13.37,5.82c-1.1.81-8.57,6.28-8,7.54,1.91,4.65,12.1,14.6,23.24,25.46,0,0,15.78,12.74,27.43,19.66S1218.26,671.16,1218.26,671.16Z"/><path class="cls-18" d="M1237.88,468.58c-10.71-14.28-97.14-27.84-97.14-27.84l-24.1-46.33-53.29,32.87s5.33,42.4,9.33,53.73c5.32,15.1,41.14,15.87,63,15.65,20.13-.21,56.89,3.9,56.89,3.9l-12.43,109.69s24.44,5.56,31.31,4.66C1212.23,614.81,1251.2,486.34,1237.88,468.58Z"/><path class="cls-12" d="M1093.73,282.06l-30.06,1.68s-.69.21-.9.25c-2.45.45-.23,88.07,2,120.8s6.61,46.47,6.61,46.47,40.78-7.24,53.3-12.1c5.19-2,17.76-17.73,17.76-17.73s-12.84-17.26-19.31-45.31c-5-21.63-11.14-60-14.66-68C1100.34,289.77,1093.73,282.06,1093.73,282.06Z"/><path class="cls-14" d="M1064.52,257.19l-.85,26.55s19.46,33.53,29.45,28.86c8.39-3.92,1-29.43,1-29.43s-1.46-5.85-3.47-12.57c-1.41-4.7-2.58-9.78-2.49-13.51C1088.32,248,1064.52,257.19,1064.52,257.19Z"/><path class="cls-10" d="M1088.11,257.09c.21-9.08-23.59.1-23.59.1l-.08,2.59a12.94,12.94,0,0,0,2.66,3,32.73,32.73,0,0,0,23.17,6.68C1089,265.11,1088,260.52,1088.11,257.09Z"/><path class="cls-15" d="M1087.77,196.64s9.92,15,10.66,27.54a65.38,65.38,0,0,1-1.92,21.17l-31.83-38Z"/><path class="cls-20" d="M1101.73,221.6c.45,4.41-1.27,8.19-3.83,8.45s-5-3.1-5.44-7.5,1.26-8.19,3.82-8.45S1101.28,217.2,1101.73,221.6Z"/><path class="cls-14" d="M1054.38,213.4c-.73-.16-.65,36.47,10,45.09s29.09,9.37,34.49.69c6-9.6.29-48.2-15.5-56.39S1054.38,213.4,1054.38,213.4Z"/><path class="cls-15" d="M1051.69,190.68c-8.1,7.11-12,12.3-17.51,24.93-6.74,15.54,6.63,31.63,17.85,38s12.15,14.13,12.15,14.13l.46-4.77a11.79,11.79,0,0,0-.14-4.39,20.16,20.16,0,0,0-1.59-3.86c-1-2.05-4-9-5.22-10.89-3.16-4.86-3.78-5.92-2.22-10.54,1.2-3.56-.19-11.42,1.66-17.29l15.1-3.25s9.45-2.27,14.22-7.78C1100.15,189.2,1073.07,171.57,1051.69,190.68Z"/><path class="cls-14" d="M1059.06,237.33c1.86,4,1.47,8.15-.86,9.23s-5.74-1.3-7.6-5.32-1.48-8.15.86-9.23S1057.2,233.31,1059.06,237.33Z"/><path class="cls-15" d="M1063.67,283.74s-29.81-1.39-37.5-4.87c-4.66-2.11-43-33-43-33l.43-82.64-26.93-2s-14,91.34-9.13,101.34c5,10.32,61.06,52.83,72.27,71.27,6.46,10.63,19.93,155.15,22,156.45,14.51,7.55,59.31,15.09,58.25,10.51C1070.9,374.21,1063.67,283.74,1063.67,283.74Z"/><path class="cls-1" d="M1076.39,246.86l17.35-5.51s1.69,6.72-5.87,9.36C1078.65,253.94,1076.39,246.86,1076.39,246.86Z"/><path class="cls-15" d="M1816.78,568.44a3.57,3.57,0,0,0,2.22-5.19c-1.83-3-3.62-6-5.42-9-4-6.64-4.34-6.78-4-7.54.78-1.81,4.18-1,5.41-.56,2.72.93,5.22,2.56,8.11,2.93,5.64.71,9.75-3.6,7.24-9.06-2.3-5-4.89-9.91-7.52-14.78,6,1.24,12.07,2.65,18.13,3.8a2.44,2.44,0,0,0,2.76-3.5c-1.93-4.42-7.62-17.52-9.5-21.84-.49-1.12-3.37-6.06-2.37-7s5,.3,6,.44c5.26.76,7.13,1,24.29,3.06,2,.25,3.75-2.55,2.53-4.25-12-16.74-9.89-18.27-14.16-20.62a1.36,1.36,0,0,0-2,1.12c-.38,2.52-.29,3.14,4.22,11.13q1.75,3.1,3.66,6.1c-20.8-2.94-26-4.18-28.78.49-2,3.24-1,4.12,9.84,28.89-6.27-1.63-12.61-2.87-19-4.23a2.77,2.77,0,0,0-3.15,4c8.31,17.88,9.26,18,9.56,19.78,0,0,1.1.29-.53.15-2.76-.25-7.85-4.27-13.14-3.65-4.65.54-9.08,4.34-8,9.41.61,2.94,1.71,4,7.25,13.83a72.24,72.24,0,0,0-16.21,5.3,11.16,11.16,0,0,0-5.24,4.25,3,3,0,0,0,2.46,4.49C1797.56,576,1800.24,571.23,1816.78,568.44Z"/><path class="cls-10" d="M1926,617.87a89.17,89.17,0,0,1-1-15.76c0-1-.16-3,.89-3.62,2.53-1.57,6.3,2.77,16,4.89,4.21.92,12.84,3.19,14.68-2.46,1-2.9.33-6.56.32-9.57,0-2.28.08-4.56.11-6.84,15.75,4.44,14.85,5.36,18.42,3.81a2,2,0,0,0,.86-2.7c-2-3.24-1.63-2.31-21.43-8.12a3.12,3.12,0,0,0-4,2.78c0,3.09.82,17.08.65,18.81-.16-.11-.92,0-1.08,0-6.58-.23-12.11-2.61-18.07-5.07-4.89-2-11.53-2.06-13.06,4.2-.84,3.4-.49,10.4,0,15.8-9.59-3.07-19.16-6.21-28.76-9.21-1.88-.59-4.58.8-4.43,3.06.42,6.25.64,12.5.8,18.77a58,58,0,0,1-15.8-8.08c-3.56-2.57-8.09,2.42,1.34,8.29a55.7,55.7,0,0,0,16.93,7.58c2,.53,4.44-.76,4.44-3.07,0-6.2-.24-12.41-.62-18.61,9.58,2.94,19.21,5.78,28.8,8.72A3.17,3.17,0,0,0,1926,617.87Z"/><path class="cls-21" d="M1959.2,743.5a3.44,3.44,0,0,0,3.06,3.45c8.8,1.59,17.52,2.4,26.37.9,4.6-.79,3-7.64-1.54-7.15a91.67,91.67,0,0,1-21.46.25,73,73,0,0,1,2.15-15.65c.5-1.94-.79-4.56-3.07-4.5-5.69.16-27.2,1.41-27.39,1.64a1.05,1.05,0,0,0,0-.57c-.42-2.29,1.26-10.06,1.09-13.62-.2-4-5.5-5.43-8.71-5.74-6.51-.62-13.73,4.07-20.07,1.55-6.1-2.44.76-12-4.16-19.48-3.79-5.76-10.31-4-20.59-2.05-2.53.49-5,1-6.26,3.48a1.75,1.75,0,0,0,.2,2c3.1,2.88,6.81,1.58,16.21,0,1.2-.2,3.22-.91,4.29,0,3.55,2.94-1.65,11,2.55,17.87,3.28,5.32,9.83,6.3,15.39,5.63,4.36-.53,9.74-3.06,14.16-1.49-.24,3.78-.59,7.6-.54,11.38.05,4.13,2.16,7,6.32,7.34,4.59.38,9.37-.25,14-.46,3.09-.14,6.17-.27,9.26-.44A83,83,0,0,0,1959.2,743.5Z"/><path class="cls-21" d="M1705.82,503.2c-24.6-20.17-37.13-2-30,6.36,3,3.59,8.42,3.88,11.14-.18,1.24-1.86-.59-4.94-2.91-4.21-1.92.6-2.37-1.58-.33-2.42,2.74-1.14,6.07.87,8.43,2.13,5.51,2.91,12.7,6.62,13.64,13.53,1.39,10.31-9.09,21.22-24.63,15.21-22.41-8.67-21.35-45.34,2.42-51.43,12.94-3.31,26.83,2.18,34.77,12.82,1.55,2.08,4.32-.36,3.48-2.44-6.34-15.79-26.5-21.81-41.79-16.46-15.68,5.49-23.49,22-21.15,38,2.46,16.76,16.78,30.7,34.26,28.91C1712.27,541.05,1723,517.31,1705.82,503.2Z"/><path class="cls-4" d="M1948.1,799.36c-4-2.81-12.29-4.53-15,.93-1.25,2.54-.55,5.67,2.4,6.64s5.59-.6,7.82,2.07c1.91,2.29.76,5.58-1,7.63-5.32,6.27-16.67,4.35-23,.87-10.1-5.52-11.86-20-1-26.89,3.41-2.16,7.37-2.63,11.22-3.53,2.12-.5,3.15-3.87.9-5-8.65-4.37-19.32,1.23-24.44,8.59-5.38,7.72-5.17,18.72-.18,26.58,5.57,8.79,16.81,13.17,26.92,13.06C1953.77,830.07,1961.11,808.45,1948.1,799.36Z"/><path class="cls-22" d="M1533.15,1447.66a18,18,0,0,1-1.83,4.44c-5.28,9.61-17.54,23.33-17.54,23.33l-9.47-21.35s1.54-6.71,4.22-16.29C1517.68,1440.18,1526.4,1441.56,1533.15,1447.66Z"/><path class="cls-18" d="M1478.81,1429.14s52.86,22.76,54.57,22.33c1.1-.28,21.68-34.73,21.9-67.13.1-15-15.43-33-32.77-29.4-8.73,1.79-8.59,4.22-21.51,23S1478.81,1429.14,1478.81,1429.14Z"/><path class="cls-14" d="M1433.69,1837.24s1.26,20.76,1.26,20.81c.46,2.63,2.28,9.14,2.28,11.54,0,9-42.74-7.64-33.16-11.63.86-.36,5.41-3.09,5.69-6.16.44-4.72,1.55-14.27,1.55-14.27Z"/><path class="cls-4" d="M1404.17,1857.87s10,2.76,15.18,3.45,11.91-5.11,15.55-3.55c4,1.73,3.84,17.24,3.84,17.24s-53.81,4.41-68.94-.15C1363.8,1873.05,1383.66,1864.29,1404.17,1857.87Z"/><path class="cls-14" d="M1521.13,1837.24s1.25,20.76,1.26,20.81c.46,2.63,2.28,9.14,2.28,11.54,0,9-42.75-7.64-33.17-11.63.87-.36,6.76-5.13,7-8.19.44-4.73.21-12.24.21-12.24Z"/><path class="cls-4" d="M1491.61,1857.87s10,2.76,15.17,3.45,11.92-5.11,15.55-3.55c4,1.73,4.17,17.24,4.17,17.24s-54.06,5.15-69.27-.15C1451.33,1872.8,1471.09,1864.29,1491.61,1857.87Z"/><path class="cls-14" d="M1517.16,1321.07l4.85,30.65s-18.47,14.82-29.23,11.7c-9-2.63-2.84-14.44-2.84-14.44s4.81-16.36,3.33-24.93S1517.16,1321.07,1517.16,1321.07Z"/><path class="cls-23" d="M1513.68,1330.33a75.23,75.23,0,0,1-20.9,5.89c.68-4.28,1.07-8.82.49-12.17-.68-4,4.36-4.9,10-4.76,7.35.63,13.91,1.78,13.91,1.78l.93,5.89A15.18,15.18,0,0,1,1513.68,1330.33Z"/><path class="cls-14" d="M1540.46,1285.72c.76,0-7.3,34.24-19.77,40.13s-31.08,2.82-34.57-6.4c-3.86-10.2,10.22-45.13,27.77-49.57S1540.46,1285.72,1540.46,1285.72Z"/><path class="cls-24" d="M1526,1254.26A39.24,39.24,0,0,1,1542.1,1272c4.68,2.22,10.34,7,13.06,20,3.34,15.9-8.54,28.16-21.13,31.85s-14.53,12-14.53,12l-1.43-9s2.8-7.8,7-11.71-2-9.6-2.54-14.25c-.42-3.57,2.21-10.52,1.64-16.38,0,0-7-10.61-13.89-13.23C1498.54,1266.85,1513.24,1246.89,1526,1254.26Z"/><path class="cls-14" d="M1520.72,1306.88c-1.63,4-1,7.88,1.49,8.77s5.77-1.59,7.4-5.55,1-7.88-1.49-8.77S1522.35,1302.93,1520.72,1306.88Z"/><path class="cls-22" d="M1474.25,1460l-72.61-11.84s8.26-20.8,11.22-20.8,54.9,22.68,54.9,22.68l4.13,8.3Z"/><path class="cls-12" d="M1511.45,1509.8s7.24,35,4.29,61.57-3.18,120.88-3.18,120.88l11.26,150.91-26.73.59s-31.69-150.85-31.1-147-10.63-106.21-10.63-106.21l37.79-84.08Z"/><path class="cls-24" d="M1504.36,1508.14s4.73,31.53-1.18,45.36S1452.55,1703,1452,1714.08s-15.47,133.36-15.47,133.36l-31.08-.88-6.72-136,14.07-170.88,13.67-43.2Z"/><path class="cls-14" d="M1522,1351.72s-7.67,5-14.82,4.44-17.25-7.18-17.25-7.18l1.4-4.76s18.5-2.69,19-2.4S1522,1351.72,1522,1351.72Z"/><path class="cls-22" d="M1440.32,1426.34s-27.46,25.92-39.86,21.5-17.53-19.55,12.72-41.69C1440.25,1386.35,1440.32,1426.34,1440.32,1426.34Z"/><path class="cls-5" d="M1421.71,1458.35c4.08-22.2,33.65-91.28,36-104,1.15-6.19,17.1-6.32,32.3-5.52,16,.86,32,2.89,32,2.89s14.2,2.33,20.45,8.19,7.92,22-1.07,52.8c-7.09,24.27-15.89,37.6-20.24,55.28-.88,5.93-1.63,11.78-2.64,18.62-1.59,26.43,0,61.36,0,61.36s-77.34,16-106.27-8.3C1412.26,1539.67,1417.53,1481.09,1421.71,1458.35Z"/><path class="cls-18" d="M1402,1410.62s30.35,25.05,32.12,25.05c1.14,0,43.31-31,53-56.5,5.38-14.09-5.91-29.85-18.8-29.8-8.93,0-12.91,2.34-30.62,17.28S1402,1410.62,1402,1410.62Z"/><path class="cls-1" d="M1488.28,1304.64l11.39,6.24s-3,4.79-8.08,2.21C1485.37,1309.94,1488.28,1304.64,1488.28,1304.64Z"/><path class="cls-14" d="M767,1438.14c-.89-2.55,11.53-4.61,12.2-7.2s-15.69-2.78-16.28-5.06c-1.08-4.18,17.92-.88,17.55-2.83s-19.8-6.33-17.7-9.68,19.67,6.63,20.2,4.35-17.18-7.82-16.86-12.81c.17-2.67,29.06,13.31,32.41,11.86s-3.6-14-.93-15.86,10.32,25.49,12.16,26.41,40.88,23.19,54.76,26.73c1.69-4.65,21.58-33.45,23.07-37.85,7.79,5.55,15.79,6.31,23.83,11.36-5.83,14.6-32.57,55.14-36.63,57-12.36,5.59-60.17-34.06-69.71-40.85s-15-4.59-21.47-6.73S767.9,1440.7,767,1438.14Z"/><path class="cls-12" d="M1032.24,1332.36c-7.15-19.06-25.85-30.6-45.31-27a42.68,42.68,0,0,0-26.77-19.11c-21.37-4.58-50.27,3.86-49.49,26.49-8.29,15.2-8.61,36.94,4.08,48.5-4.42,20.44,14.73,40.21,39.62,39.49,8.66,14.29,25.18,23.48,41.6,21.52,3.94-.47,9.95-1.45,10.94-1.21-1.25-.23,26.38,21,49.79-11.62C1080.59,1376.14,1063.81,1335.91,1032.24,1332.36Z"/><path class="cls-14" d="M965.15,1516.19c.71.3-9.39,13.31-19.23,22.52-7.94,10-15.38,21.75-17.94,34.6-3.89,19.54-.66,116.08-4,123-29.12,28.47-50.21,99.91-56.13,121.71a23.27,23.27,0,0,1-6.73,11h0l1.3,24.63L876.85,1867s-3.22-20.07,3.21-35c0,0,73.31-111,77.66-119.51,8.32-24.17,38.59-148,38.59-148l7-28.47S965.21,1516.21,965.15,1516.19Z"/><path class="cls-17" d="M845.23,1837s9.16,14.11,9.94,19.61,5.66,18,11.06,18.76c1.22.18,22.2,1.72,22-.9-.12-2-7.71-4.87-11.24-7.3-6.09-4.21-15.56-38.5-15.56-38.5S845.63,1832.55,845.23,1837Z"/><path class="cls-19" d="M968.21,1365.4s30.68-55.18,38.15-66.91,26.91-58.34,27.6-60.17-13.39-23.9-10.25-24.65,6.63,11.62,10,10.15,13.16-31.3,15.07-29.82c3.57,2.77-5.28,18.5-3.38,19.49s7.68-17.31,11.43-16.77-7.12,16.77-6.07,18.2,12.32-13.86,14.36-10.6c1.11,1.77-10.37,13.35-8.16,14.44s12.41-6.39,13.49-4.24-9.44,5.11-12.59,10.92-8.5,8.32-10.73,19.08-5.55,49.7-17,69.12-36.47,62.42-36.47,62.42Z"/><path class="cls-14" d="M1027.81,1559s47.22,101,47.52,118.71c.26,15.22-8.25,100.59-5.87,171.68.08,2.57,3.33,6,8.06,8.15,2.67,1.22,15.53,7,15.53,7l1.76,4.6-44.28-3.15-.63-12.09s-17.63-106.35-15.83-136.43c.28-4.73,2.58-33,2.58-33l-53.26-102.82,33.49-44Z"/><path class="cls-10" d="M919.57,1680.26s0,0,0,0Z"/><path class="cls-4" d="M987.12,1395.27c1.27-7.76,13.28-27.19,15.18-32,0,0-13.93-17.7-25.24-16.36,0,0-15.19,25.19-23.83,26s-39,2.17-44.34,5.4S881,1416.32,881,1416.32s20.31,20.74,28.48,20.69c0,0,4.34-8.55,6.07-10.42,1.23,4,20.15,65.28,20.13,79.17l.14.12a39.75,39.75,0,0,0,57.14-7.35h0a314.84,314.84,0,0,1-.7-36.73C993.65,1434.19,999.24,1419.52,987.12,1395.27Z"/><path class="cls-15" d="M1085.6,1632.43l-92.68-133.9a90.78,90.78,0,0,1-17.23,5.51c-13.29,2.57-26.6,2.15-40.05,1.72a9.89,9.89,0,0,1-.08,1.31c-1.55,11-16.19,28.13-19.21,61.63-3.43,38-1.35,104.07-.19,108.41C977.77,1669.62,1068.12,1650.78,1085.6,1632.43Z"/><path class="cls-14" d="M937.6,1350.67s3.26,17.56,2.61,24.48,2.48,29.24,16.56,29.32,2.67-28.38,1.35-35.16-1.64-27.79-1.64-27.79Z"/><path class="cls-10" d="M956.77,1352.05c-.22-5.74-.29-10.53-.29-10.53l-18.88,9.15s.67,3.59,1.34,8.16C947.2,1360.56,953.19,1357.38,956.77,1352.05Z"/><path class="cls-14" d="M930.7,1302.22a24.11,24.11,0,0,0-9.93,13.31c-2.66,9.11.37,32.61,19.16,38.28s26.93-12.94,23.06-27.49S950.7,1293.35,930.7,1302.22Z"/><path class="cls-14" d="M965.34,1320.68c-.37,3.91-2.44,6.9-4.63,6.67s-3.66-3.57-3.29-7.47,2.44-6.9,4.62-6.68S965.7,1316.78,965.34,1320.68Z"/><path class="cls-14" d="M926.18,1335.74c2.21,3.42,2.2,7.45,0,9s-5.8,0-8-3.37-2.2-7.45,0-9S924,1332.33,926.18,1335.74Z"/><path class="cls-17" d="M1050.38,1874.36h55.94c2.07-.19,2.58-1.86,1.86-2.89-1.48-2.11-8-3.67-15.34-7-12.87,1.34-40.89-7.45-42.92-10.4C1048.75,1859.93,1049.23,1874.11,1050.38,1874.36Z"/><path class="cls-1" d="M940.28,1339.63l12-3.54s1.09,4.73-4.15,6.44C941.76,1344.62,940.28,1339.63,940.28,1339.63Z"/><path class="cls-4" d="M635.58,1062.44c1.56.07,5.85,1.5,12.11,13.34,8,15.13,19.7,60.81,19.7,60.81l-34.91,13-4.48-9.54-7.39-73.4S635.15,1062.42,635.58,1062.44Z"/><path class="cls-6" d="M589.44,1055.86c10,0,34.68,2.92,46.14,6.59,0,0,8.42,72.38-7.58,127.38-3.58,12.31,3,51,3,51l-103.44-1.37s12.26-93.62,7.64-108.74-4.73-67.83-4.73-67.83.71-.11,23.24-4A233.08,233.08,0,0,1,589.44,1055.86Z"/><path class="cls-14" d="M577.38,1375.21s2.29,26.41,6.5,33.73-.22,19.75-.45,21.45-8.85,4.15-22.58,2.68-13.51-4.63-12.4-9.75,8.41-11.7,8.85-16.58-4.2-22.43-4.2-22.43Z"/><path class="cls-17" d="M619.29,1219.07s71.4-4,87.35,5.69-11.33,57-11.33,57-49.69-2.29-147,3.33c-23,1.33-25-60.09-20.73-65.18S619.29,1219.07,619.29,1219.07Z"/><path class="cls-24" d="M559.13,1435.12c-14.13-1.5-12.38-8.45-11.24-13.72.71-3.3,4.77-7.19,7.18-10.87,1.27,1,3.32,2.78,9.46,4.59,6.38,1.89,15.12-1.84,20.69-4.17a68.67,68.67,0,0,1,1.89,18.23C586.88,1430.94,573.27,1436.63,559.13,1435.12Z"/><path class="cls-18" d="M566.94,1270.15c2.85,21.59,17,129,17,129l-32.78,4.06s-40.3-140.26-38.23-161.72,17.15-23.26,17.15-23.26S559.39,1213,566.94,1270.15Z"/><path class="cls-14" d="M529.31,1071c9.67-3.63,14.4,83.51,15.7,119.38,17.13,1.65,47,0,54.42-.55,3.49-.26,11.55-3.21,15-3.67a34.8,34.8,0,0,1,8.54-.4c.65.11,18.5,7.41,20,9,1.9,2,7,7,6.15,9.16s-9.84-6-9.84-6l-4.39-2.47c5.46,5.34,15.89,12.37,14.39,14.93s-10.87-4.63-17.57-9.5c5.74,5.19,12.89,14.49,11.24,15.93-1.48,1.31-9.6-9.45-18.28-12.55-3.22-1.15-6.43,2-9,2.42-1.86.28-4.73.88-6.55.36l-9.4-2.66c-3.2.29-3.29,2.18-6.52,2.87-3.75.8-9.91,1.64-14.69,2.81-27.53,6.72-36.71,9.85-45.14,9.84C507.93,1219.84,506.45,1079.55,529.31,1071Z"/><path class="cls-4" d="M511,1152.79c-1.81-36.74-1.54-82,19.05-89.75,8.13-3,22.45,15.28,19.88,90.5C538.88,1154.44,522.74,1155.17,511,1152.79Z"/><path class="cls-14" d="M673.22,1397.8s-2.86,9.17,2.26,15.24,26.4,12,29.19,15.29,2.58,6.08,2.58,6.08l-59.72-1.64.65-18,2.75-13Z"/><path class="cls-24" d="M679.19,1416.06s-15.34,6.21-22.75,2.53-7.19-4.69-9.34-3.32-2.91,18.28-2.91,18.28l67.15,2c4.68-.11,7-3.55,3.24-6.5a54.37,54.37,0,0,0-7.32-4.35C702,1421.66,679.19,1416.06,679.19,1416.06Z"/><path class="cls-18" d="M671,1236c4.61-9.71,15.11-22.36,33.58-14.74,17.62,7.26,22.34,25.12,16.79,43.4s-42.15,125.76-43.43,140.54l-29.21.19s5.31-85.1,6.61-105.67C656.55,1279.92,663,1252.8,671,1236Z"/><path class="cls-13" d="M718.38,1137H620.72a6.37,6.37,0,0,0-5.89,4l-30.07,73.59H530.92a2.73,2.73,0,0,0-2.73,2.73h0a2.74,2.74,0,0,0,2.73,2.74H684.16a10.69,10.69,0,0,0,9.75-6.34L724.19,1146A6.39,6.39,0,0,0,718.38,1137Z"/><path class="cls-1" d="M665.8,1179.86c-.66,3.3-3.53,5.51-6.41,4.93s-4.69-3.72-4-7,3.53-5.52,6.41-4.94S666.46,1176.55,665.8,1179.86Z"/><path class="cls-25" d="M612.64,967.45A74.83,74.83,0,0,1,604,964c-3.16-1.52-7.26-3.31-9.85-3.71-5.45-.84-14.81-.28-20,5.33-6.44,7-17.89,1.26-15.58,37.86,2.61,41.43,25.64,36.88,26.2,36.18s20.54-26.5,20.54-26.5,7,15.28,7,14.72S648,979.36,612.64,967.45Z"/><path class="cls-14" d="M595.16,1042.71l2,14.8s4.45,21.33-1.28,25.44-24.37-26-24.37-26l2-37.5Z"/><path class="cls-10" d="M572.83,1031.55c4.74,12.8,16,20.66,24,23.71l-1.68-12.55-21.69-23.31Z"/><path class="cls-14" d="M594,978.58a19.74,19.74,0,0,1,22.73,20,149.41,149.41,0,0,1-1.66,19c-2.64,17.09-14.3,32.13-22,30.79s-27.1-16.09-23.69-40.4C571.46,992.9,581.24,980.64,594,978.58Z"/><path class="cls-14" d="M574.7,1010.82c-.65,3.76-3.66,6.37-6.72,5.84s-5-4-4.37-7.77,3.66-6.37,6.72-5.84S575.35,1007.06,574.7,1010.82Z"/><path class="cls-25" d="M570.33,1003.05s9.32,2.32,12.78-3.68,15.83-18.93,31.55-13.57-13.83-13-15.09-13l-16.35-.1s-11.64,9.57-12.06,10.62-3.77,12.51-3.77,12.51Z"/><path class="cls-1" d="M587.39,1028.06l17,3.24s-1.61,6.39-9.11,5.18C586.08,1035,587.39,1028.06,587.39,1028.06Z"/><path class="cls-13" d="M2056.91,1873.23H288.49a6.27,6.27,0,0,0-6.27,6.27h0a6.27,6.27,0,0,0,6.27,6.27H2056.91a6.27,6.27,0,0,0,6.27-6.27h0A6.27,6.27,0,0,0,2056.91,1873.23Z"/><path class="cls-14" d="M1695,1417.73c-.89-2.55,11.54-4.62,12.2-7.2s-15.69-2.79-16.27-5.06c-1.08-4.18,17.92-.88,17.54-2.83s-19.8-6.33-17.7-9.69,19.67,6.64,20.2,4.36-17.17-7.82-16.85-12.81c.17-2.67,29.06,13.3,32.41,11.85s-3.61-14-.94-15.85,10.33,25.49,12.17,26.4,40.87,23.19,54.76,26.74c1.69-4.66,5.33-10.93,6.82-15.33,7.79,5.55,13.58,8.33,21.62,13.39-5.83,14.6-14.12,30.59-18.18,32.42-12.36,5.58-60.16-34.06-69.7-40.85s-15-4.59-21.48-6.73S1695.86,1420.29,1695,1417.73Z"/><path class="cls-26" d="M1839.17,1389.89c3.69,15.21-16,49.11-16,49.11s-28.06-13.24-33-19c0,0,19.07-32.89,20.32-34.89,5.65-9.06,13.33-9.07,18.34-8.48C1832.85,1377.15,1839.17,1389.89,1839.17,1389.89Z"/></svg>